<svg width="140" height="80" viewBox="0 0 140 80" fill="none" xmlns="http://www.w3.org/2000/svg">
<g clip-path="url(#clip0_15361_9046)">
<path d="M28.4797 29.5697C30.9897 11.9897 40.0497 2.01966 55.3897 0.229664C66.9597 -1.12034 76.0797 3.53966 83.1897 12.6697C84.2497 14.0397 86.5997 15.4397 88.1397 15.2397C104.49 13.1197 115.72 21.3997 118.11 37.6397C118.18 38.1097 118.43 38.5497 118.64 39.1297C120.76 39.4497 122.93 39.5597 124.96 40.1197C134.34 42.7097 140.73 52.0897 139.56 61.3197C138.26 71.5497 130.39 79.1197 119.98 79.1797C88.6497 79.3797 57.3197 79.4997 25.9997 79.0497C20.6597 78.9697 14.7497 76.8597 10.1897 73.9797C1.12973 68.2897 -2.03027 56.8497 1.27973 46.5797C4.47973 36.6597 13.6697 29.8397 24.2097 29.5697C25.5297 29.5397 26.8397 29.5697 28.4797 29.5697Z" fill="#1E76BD"/>
</g>
<defs>
<clipPath id="clip0_15361_9046">
<rect width="139.7" height="79.37" fill="white"/>
</clipPath>
</defs>
</svg>
