<svg width="25" height="25" viewBox="0 0 25 25" fill="none" xmlns="http://www.w3.org/2000/svg">
<path d="M22.0703 13.0625C22.4903 13.0625 22.8203 12.7225 22.8203 12.3125C22.8203 11.8925 22.4903 11.5625 22.0703 11.5625H20.8203V9.3625H22.0703C22.4903 9.3625 22.8203 9.0325 22.8203 8.6125C22.8203 8.2025 22.4903 7.8625 22.0703 7.8625H20.5903C20.1103 6.2725 18.8603 5.0225 17.2703 4.5425V3.0625C17.2703 2.6525 16.9303 2.3125 16.5203 2.3125C16.1103 2.3125 15.7703 2.6525 15.7703 3.0625V4.3125H13.5703V3.0625C13.5703 2.6525 13.2303 2.3125 12.8203 2.3125C12.4103 2.3125 12.0703 2.6525 12.0703 3.0625V4.3125H9.88031V3.0625C9.88031 2.6525 9.54031 2.3125 9.13031 2.3125C8.71031 2.3125 8.38031 2.6525 8.38031 3.0625V4.5425C6.78031 5.0225 5.53031 6.2725 5.05031 7.8625H3.57031C3.16031 7.8625 2.82031 8.2025 2.82031 8.6125C2.82031 9.0325 3.16031 9.3625 3.57031 9.3625H4.82031V11.5625H3.57031C3.16031 11.5625 2.82031 11.8925 2.82031 12.3125C2.82031 12.7225 3.16031 13.0625 3.57031 13.0625H4.82031V15.2625H3.57031C3.16031 15.2625 2.82031 15.5925 2.82031 16.0125C2.82031 16.4225 3.16031 16.7625 3.57031 16.7625H5.05031C5.52031 18.3525 6.78031 19.6025 8.38031 20.0825V21.5625C8.38031 21.9725 8.71031 22.3125 9.13031 22.3125C9.54031 22.3125 9.88031 21.9725 9.88031 21.5625V20.3125H12.0803V21.5625C12.0803 21.9725 12.4103 22.3125 12.8303 22.3125C13.2403 22.3125 13.5803 21.9725 13.5803 21.5625V20.3125H15.7703V21.5625C15.7703 21.9725 16.1103 22.3125 16.5203 22.3125C16.9303 22.3125 17.2703 21.9725 17.2703 21.5625V20.0825C18.8603 19.6025 20.1103 18.3525 20.5903 16.7625H22.0703C22.4903 16.7625 22.8203 16.4225 22.8203 16.0125C22.8203 15.5925 22.4903 15.2625 22.0703 15.2625H20.8203V13.0625H22.0703ZM18.0803 14.5725C18.0803 16.2225 16.7303 17.5725 15.0803 17.5725H10.5603C8.91031 17.5725 7.56031 16.2225 7.56031 14.5725V10.0525C7.56031 8.4025 8.91031 7.0525 10.5603 7.0525H15.0803C16.7303 7.0525 18.0803 8.4025 18.0803 10.0525V14.5725Z" fill="#4F697E"/>
<path d="M10.8403 16.5647H14.8103C16.0603 16.5647 17.0803 15.5547 17.0803 14.2947V10.3247C17.0803 9.07469 16.0703 8.05469 14.8103 8.05469H10.8403C9.59031 8.05469 8.57031 9.06469 8.57031 10.3247V14.2947C8.57031 15.5547 9.58031 16.5647 10.8403 16.5647Z" fill="#4F697E"/>
</svg>
