<svg width="103" height="86" viewBox="0 0 103 86" fill="none" xmlns="http://www.w3.org/2000/svg">
<g clip-path="url(#clip0_15361_8951)">
<path d="M61.3416 66.2982C61.3416 70.1167 61.3252 73.7213 61.3416 77.3095C61.3416 78.5275 62.2944 78.7414 63.2636 78.8896C67.4198 79.4656 71.5595 80.0746 75.7156 80.6507C78.2783 80.9964 79.3461 82.7246 78.344 85.1112C78.1962 85.4733 77.6705 85.7531 77.2598 85.9177C76.9313 86.0494 76.5042 85.9671 76.1263 85.9671C59.7317 85.9671 43.3372 85.9671 26.9262 85.9671C25.7927 85.9671 24.577 86.1975 24.4785 84.4034C24.3306 81.5395 24.5606 81.0457 26.6798 80.733C30.8852 80.124 35.0906 79.5479 39.296 78.9554C41.4644 78.6427 41.6287 78.4616 41.6287 76.2561C41.6287 72.9971 41.6287 69.7382 41.6287 66.3146C40.7745 66.3146 40.1338 66.3146 39.4932 66.3146C27.4518 66.3146 15.4105 66.3146 3.36923 66.3146C0.675129 66.3146 -0.03125 65.6234 -0.03125 62.9569C0.00160486 43.0741 0.00160486 23.2077 0.00160486 3.34124C0.00160486 0.707751 0.724412 0 3.43494 0C35.5177 0 67.6005 0 99.6833 0C102.246 0 103.002 0.757129 103.002 3.30833C103.002 23.2241 103.002 43.1564 103.002 63.0722C103.002 65.5246 102.23 66.2982 99.7982 66.3146C87.642 66.3146 75.5021 66.3146 63.3458 66.3146C62.7544 66.3146 62.163 66.3146 61.3252 66.3146L61.3416 66.2982ZM5.01197 5.00364V58.8256H97.9748V5.00364H5.01197Z" fill="#1E76BD"/>
<rect x="7" y="7" width="89" height="49" fill="#1E76BD"/>
</g>
<defs>
<clipPath id="clip0_15361_8951">
<rect width="103" height="86" fill="white"/>
</clipPath>
</defs>
</svg>
