<svg width="24" height="24" viewBox="0 0 24 24" fill="none" xmlns="http://www.w3.org/2000/svg">
<mask id="mask0_15199_8269" style="mask-type:alpha" maskUnits="userSpaceOnUse" x="0" y="0" width="24" height="24">
<rect width="24" height="24" fill="#D9D9D9"/>
</mask>
<g mask="url(#mask0_15199_8269)">
<path d="M20.4719 23.3L15.6719 18.5C15.1385 19.0667 14.5719 19.6417 13.9719 20.225C13.3719 20.8083 12.7135 21.4 11.9969 22C9.31354 19.7167 7.30937 17.5958 5.98438 15.6375C4.65937 13.6792 3.99688 11.8667 3.99688 10.2C3.99688 9.66667 4.03854 9.15833 4.12188 8.675C4.20521 8.19167 4.32187 7.73333 4.47187 7.3L0.671875 3.5L2.09688 2.075L21.8969 21.875L20.4719 23.3ZM18.1969 15.325L13.7719 10.9C13.8552 10.7667 13.9135 10.625 13.9469 10.475C13.9802 10.325 13.9969 10.1667 13.9969 10C13.9969 9.45 13.801 8.97917 13.4094 8.5875C13.0177 8.19583 12.5469 8 11.9969 8C11.8302 8 11.6719 8.01667 11.5219 8.05C11.3719 8.08333 11.2302 8.14167 11.0969 8.225L6.77187 3.9C7.48854 3.28333 8.29688 2.8125 9.19688 2.4875C10.0969 2.1625 11.0302 2 11.9969 2C14.1135 2 15.976 2.74167 17.5844 4.225C19.1927 5.70833 19.9969 7.7 19.9969 10.2C19.9969 11 19.8469 11.8208 19.5469 12.6625C19.2469 13.5042 18.7969 14.3917 18.1969 15.325Z" fill="#D90200"/>
</g>
</svg>
