<svg width="24" height="24" viewBox="0 0 24 24" fill="none" xmlns="http://www.w3.org/2000/svg">
<mask id="mask0_15199_8293" style="mask-type:alpha" maskUnits="userSpaceOnUse" x="0" y="0" width="24" height="24">
<rect width="24" height="24" fill="#D9D9D9"/>
</mask>
<g mask="url(#mask0_15199_8293)">
<path d="M12 12.0008C12.55 12.0008 13.0208 11.8049 13.4125 11.4133C13.8042 11.0216 14 10.5508 14 10.0008C14 9.45078 13.8042 8.97995 13.4125 8.58828C13.0208 8.19661 12.55 8.00078 12 8.00078C11.45 8.00078 10.9792 8.19661 10.5875 8.58828C10.1958 8.97995 10 9.45078 10 10.0008C10 10.5508 10.1958 11.0216 10.5875 11.4133C10.9792 11.8049 11.45 12.0008 12 12.0008ZM12 22.0008C9.31667 19.7174 7.3125 17.5966 5.9875 15.6383C4.6625 13.6799 4 11.8674 4 10.2008C4 7.70078 4.80417 5.70911 6.4125 4.22578C8.02083 2.74245 9.88333 2.00078 12 2.00078C12.2833 2.00078 12.575 2.01745 12.875 2.05078C13.175 2.08411 13.4667 2.11745 13.75 2.15078L16.15 4.55078L14.05 6.65078L16.875 9.47578L18.975 7.37578L19.75 8.17578C19.8167 8.50911 19.875 8.84245 19.925 9.17578C19.975 9.50911 20 9.85078 20 10.2008C20 11.8674 19.3375 13.6799 18.0125 15.6383C16.6875 17.5966 14.6833 19.7174 12 22.0008ZM16.875 8.05078L15.475 6.65078L17.575 4.55078L15.475 2.45078L16.875 1.05078L18.975 3.15078L21.075 1.05078L22.475 2.45078L20.375 4.55078L22.475 6.65078L21.075 8.05078L18.975 5.95078L16.875 8.05078Z" fill="#D90200"/>
</g>
</svg>
