<svg width="19" height="18" viewBox="0 0 19 18" fill="none" xmlns="http://www.w3.org/2000/svg">
<mask id="mask0_14510_10763" style="mask-type:alpha" maskUnits="userSpaceOnUse" x="0" y="0" width="19" height="18">
<rect x="0.5" width="18" height="18" fill="#D9D9D9"/>
</mask>
<g mask="url(#mask0_14510_10763)">
<path d="M4.25 15.75C3.8375 15.75 3.48438 15.6031 3.19063 15.3094C2.89688 15.0156 2.75 14.6625 2.75 14.25V11.25H4.25V14.25H14.75V3.75H4.25V6.75H2.75V3.75C2.75 3.3375 2.89688 2.98438 3.19063 2.69063C3.48438 2.39688 3.8375 2.25 4.25 2.25H14.75C15.1625 2.25 15.5156 2.39688 15.8094 2.69063C16.1031 2.98438 16.25 3.3375 16.25 3.75V14.25C16.25 14.6625 16.1031 15.0156 15.8094 15.3094C15.5156 15.6031 15.1625 15.75 14.75 15.75H4.25ZM8.375 12.75L7.325 11.6625L9.2375 9.75H2.75V8.25H9.2375L7.325 6.3375L8.375 5.25L12.125 9L8.375 12.75Z" fill="white"/>
</g>
</svg>
