<svg width="171" height="58" viewBox="0 0 171 58" fill="none" xmlns="http://www.w3.org/2000/svg">
<path d="M170.513 2.62464V51.929C170.513 53.205 169.479 54.2372 168.216 54.2372H2.29705C1.01932 54.2372 0 53.205 0 51.929V2.62464C0 1.34866 1.01932 0.316406 2.29705 0.316406H168.216C169.479 0.316406 170.513 1.34866 170.513 2.62464Z" fill="#1E76BD"/>
<path d="M22.3808 53.3633H13.25V57.4779H22.3808V53.3633Z" fill="#1E76BD"/>
<path d="M156.193 53.3633H147.062V57.4779H156.193V53.3633Z" fill="#1E76BD"/>
<path d="M40.0103 0C39.5653 1.87812 37.8855 3.2688 35.8756 3.2688C33.8657 3.2688 32.1573 1.87812 31.7266 0H40.0103Z" fill="white"/>
<path d="M51.3931 0C50.9481 1.87812 49.2396 3.2688 47.2441 3.2688C45.2485 3.2688 43.5544 1.87812 43.1094 0H51.3931Z" fill="white"/>
<path d="M62.7525 0C62.3074 1.87812 60.6277 3.2688 58.6178 3.2688C56.6079 3.2688 54.8994 1.87812 54.4688 0H62.7525Z" fill="white"/>
<path d="M74.1197 0C73.6746 1.87812 71.9949 3.2688 69.985 3.2688C67.9751 3.2688 66.2666 1.87812 65.8359 0H74.1197Z" fill="white"/>
<path d="M85.4869 0C85.0418 1.87812 83.3334 3.2688 81.3378 3.2688C79.3423 3.2688 77.6482 1.87812 77.2031 0H85.4869Z" fill="white"/>
<path d="M96.8541 0C96.409 1.87812 94.7293 3.2688 92.7194 3.2688C90.7094 3.2688 89.001 1.87812 88.5703 0H96.8541Z" fill="white"/>
<path d="M108.237 0C107.792 1.87812 106.083 3.2688 104.088 3.2688C102.092 3.2688 100.398 1.87812 99.9531 0H108.237Z" fill="white"/>
<path d="M119.588 0C119.143 1.87812 117.464 3.2688 115.454 3.2688C113.444 3.2688 111.735 1.87812 111.305 0H119.588Z" fill="white"/>
<path d="M130.963 0C130.518 1.87812 128.81 3.2688 126.814 3.2688C124.819 3.2688 123.125 1.87812 122.68 0H130.963Z" fill="white"/>
<path d="M142.316 0C141.871 1.87812 140.191 3.2688 138.182 3.2688C136.172 3.2688 134.492 1.87812 134.047 0H142.316Z" fill="white"/>
<path d="M102.27 18.7812H89.2059C88.5399 18.7812 88 19.3204 88 19.9855V29.964C88 30.6291 88.5399 31.1683 89.2059 31.1683H102.27C102.936 31.1683 103.476 30.6291 103.476 29.964V19.9855C103.476 19.3204 102.936 18.7812 102.27 18.7812Z" fill="white"/>
<path d="M83.2704 18.7812H70.2059C69.5399 18.7812 69 19.3204 69 19.9855V29.964C69 30.6291 69.5399 31.1683 70.2059 31.1683H83.2704C83.9365 31.1683 84.4764 30.6291 84.4764 29.964V19.9855C84.4764 19.3204 83.9365 18.7812 83.2704 18.7812Z" fill="white"/>
<path d="M64.2704 18.7812H51.2059C50.5399 18.7812 50 19.3204 50 19.9855V29.964C50 30.6291 50.5399 31.1683 51.2059 31.1683H64.2704C64.9365 31.1683 65.4764 30.6291 65.4764 29.964V19.9855C65.4764 19.3204 64.9365 18.7812 64.2704 18.7812Z" fill="white"/>
<path d="M45.2704 18.7812H32.2059C31.5399 18.7812 31 19.3204 31 19.9855V29.964C31 30.6291 31.5399 31.1683 32.2059 31.1683H45.2704C45.9365 31.1683 46.4764 30.6291 46.4764 29.964V19.9855C46.4764 19.3204 45.9365 18.7812 45.2704 18.7812Z" fill="white"/>
<path d="M26.2704 18.7812H13.2059C12.5399 18.7812 12 19.3204 12 19.9855V29.964C12 30.6291 12.5399 31.1683 13.2059 31.1683H26.2704C26.9365 31.1683 27.4764 30.6291 27.4764 29.964V19.9855C27.4764 19.3204 26.9365 18.7812 26.2704 18.7812Z" fill="white"/>
<path d="M121.27 18.7812H108.206C107.54 18.7812 107 19.3204 107 19.9855V29.964C107 30.6291 107.54 31.1683 108.206 31.1683H121.27C121.936 31.1683 122.476 30.6291 122.476 29.964V19.9855C122.476 19.3204 121.936 18.7812 121.27 18.7812Z" fill="white"/>
<path d="M140.27 18.7812H127.206C126.54 18.7812 126 19.3204 126 19.9855V29.964C126 30.6291 126.54 31.1683 127.206 31.1683H140.27C140.936 31.1683 141.476 30.6291 141.476 29.964V19.9855C141.476 19.3204 140.936 18.7812 140.27 18.7812Z" fill="white"/>
<path d="M159.27 18.7812H146.206C145.54 18.7812 145 19.3204 145 19.9855V29.964C145 30.6291 145.54 31.1683 146.206 31.1683H159.27C159.936 31.1683 160.476 30.6291 160.476 29.964V19.9855C160.476 19.3204 159.936 18.7812 159.27 18.7812Z" fill="white"/>
<path d="M150.705 47.6708C152.259 47.6708 153.518 46.4127 153.518 44.8608C153.518 43.3089 152.259 42.0508 150.705 42.0508C149.15 42.0508 147.891 43.3089 147.891 44.8608C147.891 46.4127 149.15 47.6708 150.705 47.6708Z" fill="#ED2024"/>
<path d="M140.814 47.6708C142.368 47.6708 143.628 46.4127 143.628 44.8608C143.628 43.3089 142.368 42.0508 140.814 42.0508C139.26 42.0508 138 43.3089 138 44.8608C138 46.4127 139.26 47.6708 140.814 47.6708Z" fill="white"/>
<path d="M160.447 47.6708C162.001 47.6708 163.261 46.4127 163.261 44.8608C163.261 43.3089 162.001 42.0508 160.447 42.0508C158.893 42.0508 157.633 43.3089 157.633 44.8608C157.633 46.4127 158.893 47.6708 160.447 47.6708Z" fill="#74C044"/>
</svg>
