<svg width="197" height="76" viewBox="0 0 197 76" fill="none" xmlns="http://www.w3.org/2000/svg">
<path d="M93.3357 76H92.1091C91.2198 75.3976 90.3612 74.7198 89.4259 74.2078C84.2895 71.3613 79.1223 68.6052 74.0012 65.7437C65.4149 60.9394 60.9991 53.6801 60.9685 43.9208C60.9531 33.529 60.9531 23.1221 60.9531 12.7152C60.9531 11.8567 61.0758 10.9832 61.1371 10.2C61.5358 10.0645 61.7198 9.95906 61.9191 9.95906C63.1457 9.92894 64.3723 9.80845 65.5836 9.92894C74.4612 10.7723 82.1429 8.27227 88.8893 2.45886C92.7531 -0.854487 93.1517 -0.809305 97.0616 2.53416C103.563 8.06142 110.876 10.7422 119.478 9.92894C121.241 9.76327 123.035 9.89882 124.89 9.89882V37.505C124.139 36.4357 123.802 35.7128 123.25 35.2158C119.969 32.1434 116.871 28.7849 113.238 26.1794C109.772 23.6944 105.418 26.2246 106.123 30.2909C107.212 36.6315 103.425 40.7581 100.128 46.0293C100.189 42.7461 99.4688 40.246 96.5863 39.9298C94.9763 39.749 92.5231 40.4418 91.6031 41.6165C87.0953 47.3245 85.4701 53.8458 87.0953 61.0448C88.3373 66.5269 91.5571 70.7288 95.7736 74.3584C94.8383 74.9909 94.087 75.4879 93.3357 75.9849V76Z" fill="#1E76BD"/>
<path d="M111.15 75.6255C105.063 74.8273 98.5462 71.8754 94.8357 67.297C91.3092 62.9445 90.0826 57.2063 91.4165 51.8146C91.7692 50.3538 92.3058 48.938 93.0111 47.5977C93.5018 46.6488 95.1424 45.0373 95.1117 44.0283C95.2497 44.0433 95.311 44.1337 95.357 44.2692C95.8937 46.2723 96.4456 48.2754 97.3196 50.1429C98.0249 51.664 99.0062 53.3207 100.34 54.39C101.459 55.2936 101.643 54.0587 102.226 53.0647C103.269 51.2724 104.388 49.5104 105.339 47.673C106.719 45.0373 107.976 42.3565 109.095 39.6004C109.846 37.748 110.291 36.1064 110.582 34.1485C110.628 33.8925 111.211 30.3231 111.119 30.293C114.814 31.2719 117.773 34.5551 119.69 37.6426C122.833 42.6728 123.247 47.8838 123.477 53.5918C125.639 53.6822 128.384 50.9562 129.534 49.3296C130.239 48.3356 130.76 47.2362 131.159 46.1066C131.281 45.7753 131.971 42.5072 132.033 42.5072C132.324 42.462 132.6 42.4168 132.891 42.3716C134.302 46.2723 136.081 49.9622 136.096 54.1641C136.096 65.9114 126.406 75.8665 114.385 75.8364C113.342 75.8364 112.269 75.7611 111.18 75.6105L111.15 75.6255Z" fill="#1E76BD"/>
<rect x="26.125" y="18.4609" width="26.1215" height="10.8566" rx="1" fill="#1E76BD"/>
<rect x="152.375" y="18.4609" width="26.1215" height="10.8566" rx="1" fill="#1E76BD"/>
<rect x="31.5625" y="58.6289" width="14.1492" height="10.8566" rx="1" transform="rotate(-180 31.5625 58.6289)" fill="#1E76BD"/>
<rect x="170.875" y="58.6289" width="14.1492" height="10.8566" rx="1" transform="rotate(-180 170.875 58.6289)" fill="#1E76BD"/>
<rect x="14.1484" y="58.6289" width="14.1492" height="10.8566" rx="1" transform="rotate(-180 14.1484 58.6289)" fill="#1E76BD"/>
<rect x="153.461" y="58.6289" width="14.1492" height="10.8566" rx="1" transform="rotate(-180 153.461 58.6289)" fill="#1E76BD"/>
<rect x="39.1797" y="32.5742" width="13.0608" height="10.8566" rx="1" fill="#1E76BD"/>
<rect x="174.141" y="32.5742" width="13.0608" height="10.8566" rx="1" fill="#1E76BD"/>
<rect x="10.8828" y="18.4609" width="13.0608" height="10.8566" rx="1" fill="#1E76BD"/>
<rect x="132.781" y="18.4609" width="13.0608" height="10.8566" rx="1" fill="#1E76BD"/>
<rect x="57.6875" y="58.6289" width="22.8564" height="10.8566" rx="1" transform="rotate(-180 57.6875 58.6289)" fill="#1E76BD"/>
<rect x="197" y="58.6289" width="22.8564" height="10.8566" rx="1" transform="rotate(-180 197 58.6289)" fill="#1E76BD"/>
<rect x="5.44531" y="32.5742" width="31.5635" height="10.8566" rx="1" fill="#1E76BD"/>
<rect x="139.312" y="32.5742" width="31.5635" height="10.8566" rx="1" fill="#1E76BD"/>
</svg>
