<svg width="19" height="18" viewBox="0 0 19 18" fill="none" xmlns="http://www.w3.org/2000/svg">
<mask id="mask0_14761_8077" style="mask-type:alpha" maskUnits="userSpaceOnUse" x="0" y="0" width="19" height="18">
<rect x="0.5" y="18" width="18" height="18" transform="rotate(-90 0.5 18)" fill="#D9D9D9"/>
</mask>
<g mask="url(#mask0_14761_8077)">
<path d="M16.25 14.25C16.25 14.6625 16.1031 15.0156 15.8094 15.3094C15.5156 15.6031 15.1625 15.75 14.75 15.75L11.75 15.75L11.75 14.25L14.75 14.25L14.75 3.75L4.25 3.75L4.25 14.25L7.25 14.25L7.25 15.75L4.25 15.75C3.8375 15.75 3.48438 15.6031 3.19063 15.3094C2.89688 15.0156 2.75 14.6625 2.75 14.25L2.75 3.75C2.75 3.3375 2.89688 2.98438 3.19063 2.69062C3.48438 2.39687 3.8375 2.25 4.25 2.25L14.75 2.25C15.1625 2.25 15.5156 2.39687 15.8094 2.69062C16.1031 2.98438 16.25 3.3375 16.25 3.75L16.25 14.25ZM13.25 10.125L12.1625 11.175L10.25 9.2625L10.25 15.75L8.75 15.75L8.75 9.2625L6.8375 11.175L5.75 10.125L9.5 6.375L13.25 10.125Z" fill="white"/>
</g>
</svg>
