<svg width="95" height="33" viewBox="0 0 95 33" fill="none" xmlns="http://www.w3.org/2000/svg">
<g clip-path="url(#clip0_14314_7740)">
<path d="M26.7952 12.1348C27.9377 12.1348 28.8639 11.1978 28.8639 10.042C28.8639 8.88618 27.9377 7.94922 26.7952 7.94922C25.6527 7.94922 24.7266 8.88618 24.7266 10.042C24.7266 11.1978 25.6527 12.1348 26.7952 12.1348Z" fill="#E9B125"/>
<path d="M21.3421 25.8496C22.4846 25.8496 23.4108 24.9126 23.4108 23.7568C23.4108 22.601 22.4846 21.6641 21.3421 21.6641C20.1996 21.6641 19.2734 22.601 19.2734 23.7568C19.2734 24.9126 20.1996 25.8496 21.3421 25.8496Z" fill="#E9B125"/>
<path d="M11.389 15.6738C12.5315 15.6738 13.4577 14.7369 13.4577 13.5811C13.4577 12.4252 12.5315 11.4883 11.389 11.4883C10.2465 11.4883 9.32031 12.4252 9.32031 13.5811C9.32031 14.7369 10.2465 15.6738 11.389 15.6738Z" fill="#E9B125"/>
<path d="M19.9097 17.4779C20.7961 17.4779 21.5147 16.7509 21.5147 15.8542C21.5147 14.9574 20.7961 14.2305 19.9097 14.2305C19.0233 14.2305 18.3047 14.9574 18.3047 15.8542C18.3047 16.7509 19.0233 17.4779 19.9097 17.4779Z" fill="#E9B125"/>
<path d="M19.73 8.7435C20.6164 8.7435 21.335 8.01654 21.335 7.1198C21.335 6.22305 20.6164 5.49609 19.73 5.49609C18.8436 5.49609 18.125 6.22305 18.125 7.1198C18.125 8.01654 18.8436 8.7435 19.73 8.7435Z" fill="#E9B125"/>
<path d="M29.3316 17.6927C30.218 17.6927 30.9366 16.9658 30.9366 16.069C30.9366 15.1723 30.218 14.4453 29.3316 14.4453C28.4451 14.4453 27.7266 15.1723 27.7266 16.069C27.7266 16.9658 28.4451 17.6927 29.3316 17.6927Z" fill="#E9B125"/>
<path d="M13.9566 22.599C14.843 22.599 15.5616 21.872 15.5616 20.9753C15.5616 20.0785 14.843 19.3516 13.9566 19.3516C13.0701 19.3516 12.3516 20.0785 12.3516 20.9753C12.3516 21.872 13.0701 22.599 13.9566 22.599Z" fill="#E9B125"/>
<path d="M10.7144 8.23959C11.6008 8.23959 12.3194 7.51264 12.3194 6.61589C12.3194 5.71914 11.6008 4.99219 10.7144 4.99219C9.82796 4.99219 9.10938 5.71914 9.10938 6.61589C9.10938 7.51264 9.82796 8.23959 10.7144 8.23959Z" fill="#E9B125"/>
<path d="M2.04251 13.2904C2.92893 13.2904 3.64751 12.5634 3.64751 11.6667C3.64751 10.7699 2.92893 10.043 2.04251 10.043C1.15609 10.043 0.4375 10.7699 0.4375 11.6667C0.4375 12.5634 1.15609 13.2904 2.04251 13.2904Z" fill="#E9B125"/>
<path d="M4.89407 21.3372C5.78049 21.3372 6.49907 20.6103 6.49907 19.7135C6.49907 18.8168 5.78049 18.0898 4.89407 18.0898C4.00765 18.0898 3.28906 18.8168 3.28906 19.7135C3.28906 20.6103 4.00765 21.3372 4.89407 21.3372Z" fill="#E9B125"/>
<path d="M26.3628 4.306C27.2492 4.306 27.9678 3.57904 27.9678 2.6823C27.9678 1.78555 27.2492 1.05859 26.3628 1.05859C25.4764 1.05859 24.7578 1.78555 24.7578 2.6823C24.7578 3.57904 25.4764 4.306 26.3628 4.306Z" fill="#E9B125"/>
<path d="M35.5659 14.0482C36.4524 14.0482 37.171 13.3212 37.171 12.4245C37.171 11.5277 36.4524 10.8008 35.5659 10.8008C34.6795 10.8008 33.9609 11.5277 33.9609 12.4245C33.9609 13.3212 34.6795 14.0482 35.5659 14.0482Z" fill="#E9B125"/>
<path d="M34.7456 3.51303C35.6321 3.51303 36.3506 2.78607 36.3506 1.88933C36.3506 0.992581 35.6321 0.265625 34.7456 0.265625C33.8592 0.265625 33.1406 0.992581 33.1406 1.88933C33.1406 2.78607 33.8592 3.51303 34.7456 3.51303Z" fill="#E9B125"/>
<path d="M30.4722 28.013C31.3586 28.013 32.0772 27.2861 32.0772 26.3893C32.0772 25.4926 31.3586 24.7656 30.4722 24.7656C29.5858 24.7656 28.8672 25.4926 28.8672 26.3893C28.8672 27.2861 29.5858 28.013 30.4722 28.013Z" fill="#E9B125"/>
<path d="M24.0503 32.7747C24.9367 32.7747 25.6553 32.0478 25.6553 31.151C25.6553 30.2543 24.9367 29.5273 24.0503 29.5273C23.1639 29.5273 22.4453 30.2543 22.4453 31.151C22.4453 32.0478 23.1639 32.7747 24.0503 32.7747Z" fill="#E9B125"/>
<path d="M15.0581 31.7669C15.9445 31.7669 16.6631 31.04 16.6631 30.1432C16.6631 29.2465 15.9445 28.5195 15.0581 28.5195C14.1717 28.5195 13.4531 29.2465 13.4531 30.1432C13.4531 31.04 14.1717 31.7669 15.0581 31.7669Z" fill="#E9B125"/>
<path d="M21.4059 24.0803L13.7375 21.1937L11.0625 13.4721L19.6939 6.79688L27.2552 9.82779L29.6449 16.1422L21.4059 24.0803ZM14.1655 20.7607L21.2989 23.4308L29.0386 15.9979L26.8272 10.2608L19.7652 7.44636L11.7045 13.6886L14.1655 20.7607Z" fill="#E9B125"/>
<path d="M26.8911 9.8249L19.7578 15.6484L20.0938 16.0696L27.2271 10.2461L26.8911 9.8249Z" fill="#E9B125"/>
<path d="M20.6321 16.0315L20.1016 16.1016L21.0938 23.7941L21.6244 23.724L20.6321 16.0315Z" fill="#E9B125"/>
<path d="M11.4306 13.5015L11.2891 14.0234L19.6475 16.3426L19.7891 15.8206L11.4306 13.5015Z" fill="#E9B125"/>
<path d="M26.6042 2.67299L26.0703 2.70703L26.5302 10.0891L27.0642 10.0551L26.6042 2.67299Z" fill="#E9B125"/>
<path d="M27.5637 9.78505L27.4141 10.3047L35.4956 12.6864L35.6452 12.1668L27.5637 9.78505Z" fill="#E9B125"/>
<path d="M34.5403 1.69567L27.2812 9.25L27.6648 9.62724L34.9239 2.07291L34.5403 1.69567Z" fill="#E9B125"/>
<path d="M11.0032 6.60433L10.4688 6.62891L10.7392 12.6486L11.2736 12.624L11.0032 6.60433Z" fill="#E9B125"/>
<path d="M2.36208 11.6913L2.24219 12.2188L10.0286 14.03L10.1485 13.5025L2.36208 11.6913Z" fill="#E9B125"/>
<path d="M10.1737 14.2468L5.21875 19.1328L5.59218 19.5204L10.5471 14.6344L10.1737 14.2468Z" fill="#E9B125"/>
<path d="M20.4508 24.2837L15.3594 29.7422L15.7485 30.1136L20.8399 24.6552L20.4508 24.2837Z" fill="#E9B125"/>
<path d="M22.0093 24.4046L21.5 24.5703L23.4221 30.616L23.9314 30.4502L22.0093 24.4046Z" fill="#E9B125"/>
<path d="M22.3631 23.9186L22.2109 24.4375L29.5968 26.654L29.7489 26.1352L22.3631 23.9186Z" fill="#E9B125"/>
<path d="M44.5887 6.28906H42.4844V18.124H44.5887V6.28906Z" fill="#0E76BC"/>
<path d="M52.6897 18.1253V13.182C52.6897 11.7748 52.119 11.0532 50.942 11.0532C49.979 11.0532 49.3014 11.7387 49.0874 12.3882C49.016 12.5326 48.9804 12.7491 48.9804 13.0016V18.1614H46.876V11.9552C46.876 11.0532 46.8404 10.4037 46.8047 9.79031V9.46557H48.7664L48.8377 10.3676C49.4084 9.79031 50.3 9.28516 51.5127 9.28516C53.0464 9.28516 54.8654 10.2594 54.8654 13.0016V18.1253H52.6897Z" fill="#0E76BC"/>
<path d="M62.0308 18.1249V11.161H59.1061V18.161H57.0017V11.161H55.7891V9.46514H57.0017V9.32081C57.0017 6.97547 58.5711 5.49609 61.0677 5.49609C61.9237 5.49609 62.9224 5.74867 63.4218 6.07341L63.6001 6.18166L62.9224 7.84144L62.6371 7.66103C62.3518 7.48062 61.7454 7.22804 60.9607 7.22804C59.6767 7.22804 59.0704 7.91361 59.0704 9.32081V9.42906H64.0994V18.0888H62.0308V18.1249Z" fill="#0E76BC"/>
<path d="M71.9832 18.1244V13.1811C71.9832 11.7739 71.4125 11.0523 70.2355 11.0523C69.2725 11.0523 68.5948 11.7378 68.3808 12.3873C68.3095 12.5316 68.2738 12.7481 68.2738 13.0007V18.1605H66.1695V11.9543C66.1695 11.0523 66.1338 10.4028 66.0982 9.78938L66.0625 9.50072H68.0242L68.0955 10.4028C68.6662 9.82546 69.5578 9.32031 70.7705 9.32031C72.3042 9.32031 74.1232 10.2945 74.1232 13.0368V18.1605H71.9832V18.1244Z" fill="#0E76BC"/>
<path d="M76.1158 18.125V9.46523H78.2202V18.125H76.1158ZM77.1502 8.63534C76.4368 8.63534 75.9375 8.13018 75.9375 7.44462C75.9375 6.75906 76.4725 6.25391 77.1858 6.25391C77.8992 6.25391 78.4342 6.75906 78.4342 7.44462C78.4342 7.73328 78.3272 8.02194 78.1488 8.23843C77.8992 8.52709 77.5425 8.63534 77.1502 8.63534Z" fill="#0E76BC"/>
<path d="M83.2515 18.3036C82.4668 18.3036 81.7891 18.051 81.3611 17.582C80.8975 17.149 80.6835 16.3913 80.6835 15.2727V11.1593H79.3281V9.46346H80.6835V7.58718L82.7521 7.08203V9.49954H84.9991V11.1593H82.7521V15.2727C82.7521 16.3552 83.1088 16.5717 83.6438 16.5717C84.0361 16.5717 84.3215 16.5356 84.4998 16.4634L84.8208 16.3913L84.9278 18.015L84.7495 18.0871C84.3928 18.2315 83.8578 18.3036 83.2515 18.3036Z" fill="#0E76BC"/>
<path d="M86.2147 20.1452L86.5 20.073C86.714 20.0009 87.249 19.8205 87.784 19.3875C88.2834 19.0266 88.747 18.4493 89.0324 17.8359C89.068 17.7638 89.1394 17.6555 89.1394 17.5834C89.1394 17.5834 89.1394 17.5112 89.068 17.2947L85.6797 9.46484H87.998L89.9597 14.4442C90.0667 14.7329 90.1737 15.0576 90.2807 15.3463C90.3877 15.0215 90.4947 14.7329 90.6017 14.4081L92.385 9.46484H94.6321L92.0997 15.6349C91.0297 18.2689 90.245 19.8565 89.0324 20.8308C88.105 21.5885 87.2134 21.805 86.9637 21.8411L86.714 21.8771L86.2147 20.1452Z" fill="#0E76BC"/>
<path d="M44.5184 19.7109H42.4141V32.1593H44.5184V19.7109Z" fill="#0E76BC"/>
<path d="M48.9091 32.3429C46.983 32.3429 45.9844 31.044 45.9844 29.745C45.9844 28.5182 46.662 26.4976 51.1917 26.4615C51.1561 25.4512 50.5854 24.9822 49.4797 24.9822C48.7307 24.9822 47.946 25.1986 47.3754 25.5595L47.09 25.7399L46.555 24.2605L46.7334 24.1523C47.518 23.6832 48.6237 23.3945 49.7294 23.3945C52.0477 23.3945 53.2961 24.6574 53.2961 27.0028V30.0337C53.2961 30.8275 53.3317 31.4409 53.4387 31.9099L53.5101 32.2347H51.5127L51.4057 31.513C50.7637 32.0182 49.8721 32.3429 48.9091 32.3429ZM51.2274 28.0131C49.1587 28.0131 48.0887 28.5543 48.0887 29.5646C48.0887 30.611 49.016 30.6832 49.3014 30.6832C50.3357 30.6832 50.9421 30.0337 51.1561 29.4924C51.1917 29.3481 51.2274 29.2399 51.2274 29.1316V28.0131Z" fill="#0E76BC"/>
<path d="M59.8598 32.3397C58.7185 32.3397 57.7912 31.9789 57.1492 31.2573L57.1135 32.1593H55.1875L55.2232 31.8707C55.2588 31.3294 55.2945 30.4995 55.2945 29.7779V19.7109H57.3988V24.3295C58.0765 23.68 59.0038 23.3192 60.1095 23.3192C61.1795 23.3192 62.1069 23.7161 62.8202 24.4377C63.6049 25.2315 64.0329 26.4222 64.0329 27.7573C64.0329 30.7521 61.9285 32.3397 59.8598 32.3397ZM59.6102 25.0511C58.6115 25.0511 57.7555 25.7006 57.4702 26.6748V26.747C57.4345 26.8913 57.3988 27.0356 57.3988 27.216V28.6593C57.3988 28.8037 57.4345 28.9841 57.4702 29.1284C57.7555 30.0305 58.5758 30.6439 59.5745 30.6439C61.0369 30.6439 61.9285 29.5614 61.9285 27.7934C61.9285 26.4222 61.2152 25.0511 59.6102 25.0511Z" fill="#0E76BC"/>
<path d="M67.0242 32.3409C66.0612 32.3409 65.1339 32.1244 64.4562 31.7636L64.2422 31.6553L64.8129 29.9955L65.0982 30.1759C65.5262 30.4646 66.3109 30.7172 67.0242 30.7172C67.9159 30.7172 68.4509 30.3564 68.4509 29.779C68.4509 29.31 68.2369 28.9491 67.0242 28.5522C64.9912 27.8667 64.5632 26.7842 64.5632 25.9904C64.5632 24.4389 65.9185 23.3203 67.8445 23.3203C68.6649 23.3203 69.4852 23.5368 70.0915 23.8615L70.3055 23.9698L69.6992 25.5574L69.4139 25.377C69.1999 25.2327 68.5935 24.944 67.7732 24.944C67.0599 24.944 66.5962 25.2688 66.5962 25.7739C66.5962 26.243 66.9172 26.4956 68.0585 26.8925C69.1999 27.2894 70.5195 27.9749 70.5195 29.5986C70.5552 31.2584 69.1642 32.3409 67.0242 32.3409Z" fill="#0E76BC"/>
</g>
<defs>
<clipPath id="clip0_14314_7740">
<rect width="94.196" height="32.5101" fill="white" transform="translate(0.4375 0.265625)"/>
</clipPath>
</defs>
</svg>
