<svg width="14" height="14" viewBox="0 0 14 14" fill="none" xmlns="http://www.w3.org/2000/svg">
<mask id="mask0_17404_8645" style="mask-type:alpha" maskUnits="userSpaceOnUse" x="0" y="0" width="14" height="14">
<rect width="13.12" height="13.12" fill="#D9D9D9"/>
</mask>
<g mask="url(#mask0_17404_8645)">
<path d="M5.96094 9.20703H7.04427V5.95703H5.96094V9.20703ZM6.5026 4.8737C6.65608 4.8737 6.78472 4.82179 6.88854 4.71797C6.99236 4.61415 7.04427 4.4855 7.04427 4.33203C7.04427 4.17856 6.99236 4.04991 6.88854 3.94609C6.78472 3.84227 6.65608 3.79036 6.5026 3.79036C6.34913 3.79036 6.22049 3.84227 6.11667 3.94609C6.01285 4.04991 5.96094 4.17856 5.96094 4.33203C5.96094 4.4855 6.01285 4.61415 6.11667 4.71797C6.22049 4.82179 6.34913 4.8737 6.5026 4.8737ZM6.5026 11.9154C5.7533 11.9154 5.04913 11.7732 4.3901 11.4888C3.73108 11.2044 3.15781 10.8185 2.67031 10.331C2.18281 9.84349 1.79688 9.27023 1.5125 8.6112C1.22812 7.95217 1.08594 7.248 1.08594 6.4987C1.08594 5.74939 1.22812 5.04523 1.5125 4.3862C1.79688 3.72717 2.18281 3.15391 2.67031 2.66641C3.15781 2.17891 3.73108 1.79297 4.3901 1.50859C5.04913 1.22422 5.7533 1.08203 6.5026 1.08203C7.25191 1.08203 7.95608 1.22422 8.6151 1.50859C9.27413 1.79297 9.8474 2.17891 10.3349 2.66641C10.8224 3.15391 11.2083 3.72717 11.4927 4.3862C11.7771 5.04523 11.9193 5.74939 11.9193 6.4987C11.9193 7.248 11.7771 7.95217 11.4927 8.6112C11.2083 9.27023 10.8224 9.84349 10.3349 10.331C9.8474 10.8185 9.27413 11.2044 8.6151 11.4888C7.95608 11.7732 7.25191 11.9154 6.5026 11.9154ZM6.5026 10.832C7.71233 10.832 8.73698 10.4122 9.57656 9.57266C10.4161 8.73307 10.8359 7.70842 10.8359 6.4987C10.8359 5.28898 10.4161 4.26432 9.57656 3.42474C8.73698 2.58516 7.71233 2.16536 6.5026 2.16536C5.29288 2.16536 4.26823 2.58516 3.42865 3.42474C2.58906 4.26432 2.16927 5.28898 2.16927 6.4987C2.16927 7.70842 2.58906 8.73307 3.42865 9.57266C4.26823 10.4122 5.29288 10.832 6.5026 10.832Z" fill="#4F697E"/>
</g>
</svg>
