<svg width="105" height="95" viewBox="0 0 105 95" fill="none" xmlns="http://www.w3.org/2000/svg">
<g clip-path="url(#clip0_15361_9063)">
<path d="M36.8666 47.1216C35.5353 46.8124 34.0319 46.5719 32.6202 46.1024C22.6126 42.7472 12.6164 39.3462 2.60876 35.968C2.48251 35.9222 2.34479 35.8993 2.21855 35.8535C1.04793 35.3955 0.0724128 34.7542 0.0035528 33.3571C-0.0653072 31.9257 0.875779 31.2157 2.0464 30.7577C4.93852 29.624 7.84211 28.5018 10.7572 27.4025C34.5368 18.4017 58.3165 9.40101 82.0961 0.411741C84.9997 -0.687584 87.5475 0.457546 88.6493 3.33182C90.7954 8.95441 92.9186 14.5885 95.0074 20.2339C96.1091 23.1998 94.9385 25.7535 91.989 26.8642C74.6133 33.4144 57.2377 39.9645 39.862 46.4803C38.9783 46.8124 38.0028 46.8811 36.8666 47.1101V47.1216Z" fill="#1E76BD"/>
<path d="M60.9878 53.8914C56.6382 55.4945 52.3574 57.0748 48.0766 58.6551C42.1202 60.8652 36.1638 63.0982 30.1959 65.2854C26.9825 66.4649 24.492 65.2625 23.31 62.079C22.6328 60.2468 21.9098 58.4261 21.1409 56.4335C20.1309 56.7885 19.1784 57.0748 18.2946 57.4871C18.0422 57.6016 17.87 58.1054 17.8471 58.449C17.7667 59.5827 17.2503 60.3384 16.1829 60.7278C14.8976 61.1973 13.6236 61.7126 12.3268 62.1592C10.9496 62.6287 9.83635 62.1592 9.33137 60.7965C7.63283 56.216 5.94576 51.624 4.37346 47.0091C4.16688 46.4137 4.39641 45.2342 4.844 44.925C6.34744 43.8715 7.9886 42.7607 9.99702 43.4592C17.2617 45.9556 24.5265 48.452 31.7568 51.0285C35.108 52.2195 38.2985 52.4027 41.753 51.0858C58.0613 44.8219 74.427 38.7298 90.7698 32.569C91.1026 32.4431 91.4469 32.34 91.9174 32.1797C92.5487 33.863 93.2717 35.4433 93.7308 37.0923C94.4308 39.6001 93.0995 41.9705 90.6206 42.8981C87.4645 44.089 84.297 45.2571 81.4507 46.322C81.4507 48.452 81.6458 50.3644 81.4048 52.2195C81.0146 55.1854 79.3161 57.4527 76.8142 59.0559C76.0911 59.5139 75.8386 60.0064 75.8616 60.8194C75.9075 62.3653 75.8731 63.9227 75.8731 65.5717H95.4752C95.4752 65.1136 95.4752 64.6327 95.4752 64.1517C95.4752 60.3613 95.4752 56.5595 95.4752 52.7691C95.4752 50.4674 96.6229 49.3223 98.9297 49.2994C100.938 49.2765 102.935 49.2994 105.012 49.2994V94.9786C102.602 94.9786 100.192 95.1046 97.7935 94.9328C96.3015 94.8298 95.4752 93.4441 95.4752 91.6806C95.4752 86.7451 95.4752 81.7982 95.4752 76.8627C95.4752 76.4161 95.4752 75.958 95.4752 75.3053C94.8784 75.3053 94.3964 75.3053 93.9144 75.3053C87.6826 75.3053 81.4507 75.3053 75.2189 75.3053C70.0085 75.3053 66.4163 71.8241 66.2442 66.6023C66.1753 64.6327 66.2442 62.6745 66.2097 60.7049C66.2097 60.2926 66.095 59.6628 65.8195 59.491C63.6389 58.1627 62.0781 56.3076 60.9993 53.9028L60.9878 53.8914ZM71.0414 45.0395C68.1148 45.0395 65.7736 47.3641 65.8195 50.2155C65.8654 53.0898 68.1034 55.2999 70.9955 55.3113C73.9335 55.3342 76.2174 53.0554 76.1944 50.1353C76.1715 47.2725 73.922 45.0395 71.0529 45.0395H71.0414Z" fill="#1E76BD"/>
</g>
<defs>
<clipPath id="clip0_15361_9063">
<rect width="105" height="95" fill="white"/>
</clipPath>
</defs>
</svg>
