<svg width="91" height="91" viewBox="0 0 91 91" fill="none" xmlns="http://www.w3.org/2000/svg">
<g clip-path="url(#clip0_15361_9042)">
<path d="M0.00314607 57.022C0.726412 55.6477 1.66885 54.5678 3.36743 54.4806C5.49339 54.3824 7.02759 55.9858 7.03855 58.3745C7.06047 63.9373 7.00567 69.5109 7.07143 75.0737C7.08238 76.3825 7.2906 77.7132 7.64127 78.9785C8.60563 82.3816 10.7973 84.0068 14.1178 83.985C17.4273 83.9522 19.5971 82.3052 20.4957 78.8585C20.934 77.2006 21.0107 75.4445 21.2737 73.6775C20.1121 73.4485 19.2245 73.3285 18.3697 73.0885C13.6575 71.8233 10.5672 67.7985 10.5563 62.9011C10.5563 45.5038 10.5563 28.1175 10.5563 10.7203C10.5563 5.43024 13.9425 1.01277 19.2026 0.325605C22.797 -0.143411 26.5667 -0.110689 30.1721 0.380141C35.1692 1.0673 38.6321 5.43024 38.6431 10.4585C38.6869 28.0085 38.6869 45.5584 38.6431 63.1192C38.6321 68.2784 34.8405 72.4886 29.668 73.3176C29.1968 73.3939 28.7256 73.503 28.3859 73.5684C28.0461 75.9353 27.9256 78.2804 27.3338 80.5055C25.5695 87.1481 20.0464 91.2929 13.6904 90.9875C6.68788 90.6493 1.6031 86.0464 0.320945 78.9021C0.244235 78.4986 0.101773 78.1059 -0.0078125 77.7132C-0.0078125 70.8198 -0.0078125 63.9263 -0.0078125 57.0329L0.00314607 57.022Z" fill="#1E76BD"/>
<path d="M42.1797 36.7995C42.1797 28.1609 42.1797 19.5223 42.1797 10.8837C42.1797 4.54649 46.6727 0.0853859 53.0177 0.0853859C61.0065 0.0853859 68.9953 0.107201 76.9841 0.0744785C80.2826 0.0526638 82.825 1.40518 84.7647 3.99022C87.5811 7.75325 88.7208 12.1598 89.4879 16.6536C91.2522 27.0483 91.2741 37.5303 90.5618 48.0232C90.1782 53.5314 89.4988 58.9742 87.5811 64.1879C87.055 65.6167 86.3756 67.0129 85.6085 68.3327C83.5702 71.8339 80.5237 73.5682 76.4033 73.5355C68.6337 73.4809 60.8531 73.5355 53.0725 73.5027C46.6289 73.47 42.1797 68.9871 42.1797 62.5627C42.1797 53.9786 42.1797 45.3836 42.1797 36.7995ZM66.6502 10.5673C62.7051 10.5673 58.76 10.5673 54.8259 10.5673C53.3574 10.5673 52.6999 11.2327 52.7109 12.6943C52.7437 15.8792 52.7109 19.0533 52.7109 22.2382C52.7109 24.027 53.2698 24.5615 55.1327 24.5615C62.8585 24.5615 70.5843 24.5615 78.3101 24.5615C80.184 24.5615 80.7977 23.9725 80.8087 22.0964C80.8306 19.0751 80.8087 16.0537 80.8087 13.0324C80.8087 11.1454 80.2279 10.5783 78.332 10.5673C74.4417 10.5673 70.5514 10.5673 66.6611 10.5673H66.6502ZM52.7109 34.978C52.7109 37.3485 54.1063 38.5374 56.897 38.5447C59.2093 38.5447 59.7244 38.0211 59.7244 35.6324C59.7244 31.8258 59.56 31.5749 56.9847 31.564C54.1282 31.564 52.6999 32.702 52.6999 34.978H52.7109ZM52.7109 45.4272C52.6999 48.6667 52.9629 49.0157 55.4286 49.0267C59.6805 49.0485 59.7134 49.0266 59.7244 44.871C59.7244 42.5477 59.286 42.0459 57.1929 42.0459C54.2122 42.0459 52.7145 43.173 52.6999 45.4272H52.7109ZM63.2421 56.0183C63.2421 59.2141 63.516 59.5304 66.2666 59.5304C70.1021 59.5304 70.2556 59.3886 70.2556 55.6583C70.2556 52.6588 70.0802 52.5279 66.0584 52.5388C63.3516 52.5388 63.2421 52.6806 63.2421 56.0183ZM63.264 34.8798C63.264 35.1961 63.264 35.5124 63.264 35.8288C63.264 38.0539 63.7242 38.5229 65.916 38.5447C70.2994 38.5774 70.4418 38.4138 70.2775 33.8327C70.2336 32.7529 69.9706 31.5858 68.7433 31.6512C66.957 31.7385 64.8968 30.6914 63.4174 32.5457C63.253 32.7529 63.2749 33.1456 63.264 33.4619C63.2421 33.9309 63.264 34.4108 63.264 34.8798ZM73.7952 35.0216C73.7952 38.1629 74.102 38.5556 76.4362 38.5556C80.5676 38.5556 80.8196 38.3593 80.8196 35.4252C80.8196 32.8365 79.3073 31.5458 76.2828 31.5531C74.0034 31.5531 73.7952 31.8585 73.7952 35.0216ZM66.8584 42.0569C63.527 42.0569 63.264 42.2423 63.264 44.5655C63.264 47.5542 64.5169 49.0485 67.0228 49.0485C69.7624 49.0485 70.2775 48.6013 70.2884 46.2344C70.2884 42.1441 70.2227 42.0569 66.8694 42.0569H66.8584ZM77.291 42.0569C74.0691 42.046 73.7952 42.2314 73.7952 44.4892C73.7952 47.5069 75.0262 49.023 77.4882 49.0376C80.3374 49.0485 80.8196 48.634 80.8196 46.1362C80.8196 42.1768 80.7319 42.0678 77.291 42.0569ZM52.7218 55.9419C52.7218 59.2796 52.941 59.5304 55.7683 59.5304C59.4614 59.5304 59.7463 59.2796 59.7463 56.1382C59.7463 52.5606 59.7244 52.5388 55.582 52.5497C52.8753 52.5497 52.7218 52.7351 52.7218 55.9528V55.9419ZM77.3019 52.5497C74.0143 52.5388 73.7952 52.7024 73.7842 55.1675C73.7733 59.4323 73.839 59.5195 77.0827 59.5413C80.2826 59.5522 80.7977 59.1923 80.8087 56.8472C80.8306 52.6261 80.7867 52.5715 77.3019 52.5606V52.5497Z" fill="#1E76BD"/>
</g>
<defs>
<clipPath id="clip0_15361_9042">
<rect width="91" height="91" fill="white"/>
</clipPath>
</defs>
</svg>
