<svg width="211" height="59" viewBox="0 0 211 59" fill="none" xmlns="http://www.w3.org/2000/svg">
<g clip-path="url(#clip0_15361_9067)">
<path d="M208.128 0H2.88327C1.29689 0 0 1.29248 0 2.8877V56.1123C0 57.7075 1.29689 59 2.88327 59H208.128C209.715 59 211 57.7075 211 56.1123V2.8877C211 1.29248 209.715 0 208.128 0ZM48.1356 47.9033C48.1356 50.2437 46.225 52.165 43.886 52.165H10.6415C8.30244 52.165 6.39183 50.2437 6.39183 47.9033V11.1433C6.39183 8.7912 8.30244 6.86994 10.6415 6.86994H43.886C46.225 6.86994 48.1356 8.7912 48.1356 11.1433V47.9033ZM99.4671 47.9033C99.4671 50.2437 97.5565 52.165 95.2175 52.165H61.973C59.634 52.165 57.7234 50.2437 57.7234 47.9033V11.1433C57.7234 8.7912 59.634 6.86994 61.973 6.86994H95.2175C97.5565 6.86994 99.4671 8.7912 99.4671 11.1433V47.9033ZM150.451 47.9033C150.451 50.2437 148.541 52.165 146.202 52.165H112.946C110.618 52.165 108.707 50.2437 108.707 47.9033V11.1433C108.707 8.7912 110.618 6.86994 112.946 6.86994H146.202C148.541 6.86994 150.451 8.7912 150.451 11.1433V47.9033ZM201.956 47.9033C201.956 50.2437 200.046 52.165 197.707 52.165H164.462C162.123 52.165 160.213 50.2437 160.213 47.9033V11.1433C160.213 8.7912 162.123 6.86994 164.462 6.86994H197.707C200.046 6.86994 201.956 8.7912 201.956 11.1433V47.9033Z" fill="#1E76BD"/>
<path d="M26.5651 20.6673C28.5987 20.6673 30.2473 19.0095 30.2473 16.9645C30.2473 14.9195 28.5987 13.2617 26.5651 13.2617C24.5314 13.2617 22.8828 14.9195 22.8828 16.9645C22.8828 19.0095 24.5314 20.6673 26.5651 20.6673Z" fill="#1E76BD"/>
<path d="M15.8151 41.9759C17.8487 41.9759 19.4973 40.3181 19.4973 38.2731C19.4973 36.2281 17.8487 34.5703 15.8151 34.5703C13.7814 34.5703 12.1328 36.2281 12.1328 38.2731C12.1328 40.3181 13.7814 41.9759 15.8151 41.9759Z" fill="#1E76BD"/>
<path d="M37.9791 41.9759C40.0128 41.9759 41.6614 40.3181 41.6614 38.2731C41.6614 36.2281 40.0128 34.5703 37.9791 34.5703C35.9455 34.5703 34.2969 36.2281 34.2969 38.2731C34.2969 40.3181 35.9455 41.9759 37.9791 41.9759Z" fill="#1E76BD"/>
<path d="M78.2682 20.6673C80.3018 20.6673 81.9504 19.0095 81.9504 16.9645C81.9504 14.9195 80.3018 13.2617 78.2682 13.2617C76.2345 13.2617 74.5859 14.9195 74.5859 16.9645C74.5859 19.0095 76.2345 20.6673 78.2682 20.6673Z" fill="#1E76BD"/>
<path d="M67.5104 41.9759C69.544 41.9759 71.1926 40.3181 71.1926 38.2731C71.1926 36.2281 69.544 34.5703 67.5104 34.5703C65.4767 34.5703 63.8281 36.2281 63.8281 38.2731C63.8281 40.3181 65.4767 41.9759 67.5104 41.9759Z" fill="#1E76BD"/>
<path d="M89.6823 41.9759C91.7159 41.9759 93.3645 40.3181 93.3645 38.2731C93.3645 36.2281 91.7159 34.5703 89.6823 34.5703C87.6486 34.5703 86 36.2281 86 38.2731C86 40.3181 87.6486 41.9759 89.6823 41.9759Z" fill="#1E76BD"/>
<path d="M129.253 20.6673C131.286 20.6673 132.935 19.0095 132.935 16.9645C132.935 14.9195 131.286 13.2617 129.253 13.2617C127.219 13.2617 125.57 14.9195 125.57 16.9645C125.57 19.0095 127.219 20.6673 129.253 20.6673Z" fill="#1E76BD"/>
<path d="M118.495 41.9759C120.528 41.9759 122.177 40.3181 122.177 38.2731C122.177 36.2281 120.528 34.5703 118.495 34.5703C116.461 34.5703 114.812 36.2281 114.812 38.2731C114.812 40.3181 116.461 41.9759 118.495 41.9759Z" fill="#1E76BD"/>
<path d="M140.667 41.9759C142.7 41.9759 144.349 40.3181 144.349 38.2731C144.349 36.2281 142.7 34.5703 140.667 34.5703C138.633 34.5703 136.984 36.2281 136.984 38.2731C136.984 40.3181 138.633 41.9759 140.667 41.9759Z" fill="#1E76BD"/>
<path d="M181.557 20.6673C183.591 20.6673 185.24 19.0095 185.24 16.9645C185.24 14.9195 183.591 13.2617 181.557 13.2617C179.524 13.2617 177.875 14.9195 177.875 16.9645C177.875 19.0095 179.524 20.6673 181.557 20.6673Z" fill="#1E76BD"/>
<path d="M170.799 41.9759C172.833 41.9759 174.482 40.3181 174.482 38.2731C174.482 36.2281 172.833 34.5703 170.799 34.5703C168.766 34.5703 167.117 36.2281 167.117 38.2731C167.117 40.3181 168.766 41.9759 170.799 41.9759Z" fill="#1E76BD"/>
<path d="M192.971 41.9759C195.005 41.9759 196.654 40.3181 196.654 38.2731C196.654 36.2281 195.005 34.5703 192.971 34.5703C190.938 34.5703 189.289 36.2281 189.289 38.2731C189.289 40.3181 190.938 41.9759 192.971 41.9759Z" fill="#1E76BD"/>
</g>
<defs>
<clipPath id="clip0_15361_9067">
<rect width="211" height="59" fill="white"/>
</clipPath>
</defs>
</svg>
