<svg width="138" height="83" viewBox="0 0 138 83" fill="none" xmlns="http://www.w3.org/2000/svg">
<g clip-path="url(#clip0_15361_8947)">
<path d="M121.254 0H16.7983C12.8037 0 11.0625 1.71134 11.0625 5.62058C11.0625 25.9385 11.0625 46.2397 11.0625 66.5577C11.0625 70.3831 12.8208 72.0944 16.7129 72.0944H121.186C125.3 72.0944 127.007 70.4334 127.007 66.4235C127.007 46.1558 127.007 25.905 127.007 5.63736C127.007 1.72812 125.266 0 121.271 0L121.254 0ZM121.869 63.437C121.869 66.2893 121.152 66.9771 118.182 66.9771H68.9494C52.5444 66.9771 36.1394 66.9771 19.7344 66.9771C16.9007 66.9771 16.1667 66.2557 16.1667 63.4706V8.60703C16.1667 5.87225 16.969 5.10046 19.7686 5.10046H118.216C121.084 5.10046 121.852 5.85547 121.852 8.7077V63.437H121.869Z" fill="#1E76BD"/>
<path d="M44.9288 74.6953C44.4166 76.3731 44.7068 76.7925 46.3115 76.7925C61.4533 76.7925 76.578 76.7925 91.7197 76.7925C93.3244 76.7925 93.5975 76.3731 93.1195 74.7792C93.4609 74.7456 93.7853 74.7121 94.0926 74.7121C107.169 74.7121 120.245 74.7121 133.338 74.7121C134.738 74.7121 135.95 75.0309 136.906 76.0711C139.04 78.3864 137.913 82.0776 134.823 82.8326C134.175 82.9836 133.475 83.0171 132.792 83.0171C90.2687 83.0171 47.7454 83.0171 5.23926 83.0171C4.55643 83.0171 3.85653 82.9836 3.20784 82.8326C1.22763 82.3628 -0.155101 80.4501 0.0326777 78.5374C0.237527 76.4738 1.89339 74.8128 3.99309 74.7624C6.92926 74.6953 9.86543 74.7289 12.8016 74.7289C22.9416 74.7289 33.0817 74.7289 43.2217 74.7289H44.9458L44.9288 74.6953Z" fill="#1E76BD"/>
<rect x="19" y="8" width="100" height="56" fill="#1E76BD"/>
</g>
<defs>
<clipPath id="clip0_15361_8947">
<rect width="138" height="83" fill="white"/>
</clipPath>
</defs>
</svg>
