<svg width="161" height="41" viewBox="0 0 161 41" fill="none" xmlns="http://www.w3.org/2000/svg">
<path d="M8.67845 24.8676C8.67845 22.7168 8.67952 20.566 8.67845 18.4152C8.67739 17.2077 8.65086 16.0002 8.59356 14.7938C8.57658 14.4277 8.56066 14.0606 8.52564 13.6955C8.51079 13.5385 8.57127 13.5237 8.69968 13.5247C9.63565 13.529 10.5716 13.5311 11.5087 13.5226C11.653 13.5215 11.6891 13.5756 11.6954 13.7009C11.7294 14.3035 11.7676 14.9062 11.8047 15.5089C11.8281 15.8867 11.8504 16.2644 11.8758 16.6422C11.879 16.6825 11.8504 16.7493 11.9183 16.7599C11.9766 16.7695 11.9894 16.7058 12.0117 16.6666C12.7174 15.4145 13.7223 14.468 15.0201 13.8706C17.3696 12.7894 19.7191 12.7629 21.9975 14.0765C23.393 14.8808 24.2578 16.1339 24.7842 17.6353C25.1047 18.5521 25.2628 19.5007 25.3265 20.4673C25.354 20.8939 25.3551 21.3194 25.3551 21.7459C25.3551 25.4671 25.354 29.1873 25.3594 32.9085C25.3594 33.0793 25.3211 33.1228 25.1482 33.1207C24.0933 33.1111 23.0385 33.1122 21.9837 33.1207C21.8256 33.1217 21.7895 33.0804 21.7906 32.9254C21.7948 29.2584 21.7959 25.5902 21.7927 21.9231C21.7927 20.8833 21.6919 19.854 21.3332 18.8672C20.8896 17.6491 20.133 16.7154 18.8627 16.3047C16.5419 15.5535 14.1086 16.5032 12.884 18.7526C12.4393 19.5707 12.2409 20.4504 12.2409 21.3788C12.2409 25.2178 12.2409 29.0567 12.2451 32.8968C12.2451 33.0687 12.2143 33.1239 12.0276 33.1228C10.9791 33.1122 9.9296 33.1143 8.88114 33.1217C8.72302 33.1228 8.67633 33.0867 8.67633 32.9212C8.68164 30.2377 8.68058 27.5532 8.68058 24.8697L8.67845 24.8676Z" fill="#1072B9"/>
<path d="M34.5389 27.3294C34.5389 29.1894 34.5357 31.0506 34.5432 32.9106C34.5432 33.0878 34.4922 33.1218 34.3256 33.1207C33.0989 33.1133 31.8722 33.1133 30.6465 33.1207C30.4799 33.1207 30.4311 33.0878 30.4311 32.9117C30.4374 29.1969 30.4353 25.482 30.4353 21.7672C30.4353 21.5147 30.4714 21.5412 30.2093 21.5401C29.2733 21.5401 28.3373 21.5369 27.4003 21.5422C27.2634 21.5422 27.2167 21.5094 27.2188 21.3661C27.2273 20.8568 27.2273 20.3475 27.2188 19.8382C27.2167 19.697 27.2666 19.6748 27.3918 19.6758C28.3458 19.6801 29.2998 19.6758 30.2538 19.6822C30.4003 19.6822 30.4448 19.6493 30.4395 19.4986C30.4141 18.7569 30.4533 18.0195 30.6688 17.3022C31.0381 16.0692 31.8 15.1471 32.8941 14.4871C33.8651 13.9014 34.9252 13.5587 36.0331 13.3624C38.0324 13.008 40.0264 13.0653 42.014 13.4781C42.1615 13.5088 42.1933 13.5513 42.1456 13.6988C41.9843 14.1996 41.8325 14.7036 41.6914 15.2108C41.6468 15.3721 41.5959 15.4124 41.4186 15.3731C40.0762 15.0718 38.7232 14.9986 37.3681 15.2734C36.4003 15.4697 35.5747 15.9101 35.0515 16.7939C34.7437 17.3149 34.6068 17.8879 34.5655 18.4842C34.5421 18.8206 34.5538 19.1591 34.5357 19.4954C34.5283 19.644 34.5729 19.6822 34.7215 19.6822C36.4279 19.6769 38.1343 19.679 39.8407 19.679C39.9949 19.679 40.072 19.7582 40.072 19.9167C40.072 20.391 40.0656 20.8653 40.0752 21.3385C40.0784 21.4966 40.0423 21.5465 39.8746 21.5465C38.1746 21.5401 36.4735 21.5422 34.7724 21.5422C34.6168 21.5422 34.5389 21.6176 34.5389 21.7683C34.5389 23.623 34.5389 25.4767 34.5389 27.3315V27.3294Z" fill="#1072B9"/>
<path d="M3.64414 23.1594C3.64414 26.3999 3.64414 29.6415 3.64414 32.8821C3.64414 33.1473 3.67067 33.1123 3.42235 33.1134C2.33781 33.1144 1.25327 33.1113 0.169791 33.1166C0.0392641 33.1166 0.00106119 33.0879 0.00212239 32.9521C0.00424477 26.4116 0.00424477 19.8701 0 13.3296C0 13.1917 0.0403253 13.1651 0.16873 13.1662C1.26494 13.1715 2.36116 13.1736 3.45737 13.1641C3.62504 13.163 3.64626 13.2203 3.64626 13.3657C3.64308 16.6306 3.64308 19.8945 3.64308 23.1594H3.64414Z" fill="#1072B9"/>
<path d="M43.3792 23.1251C43.3792 19.8729 43.3803 16.6197 43.375 13.3675C43.375 13.2009 43.4228 13.1669 43.5798 13.168C44.6527 13.1744 45.7245 13.1712 46.7973 13.1722C47.0457 13.1722 47.0191 13.1372 47.0191 13.4036C47.0191 17.4802 47.0191 21.5558 47.0191 25.6325C47.0191 28.0496 47.0191 30.4667 47.0191 32.8839C47.0191 33.1534 47.0499 33.1152 46.7793 33.1152C45.7128 33.1162 44.6463 33.112 43.5798 33.1194C43.4217 33.1194 43.375 33.0855 43.375 32.9189C43.3803 29.6539 43.3792 26.3901 43.3792 23.1251Z" fill="#1072B9"/>
<path d="M60.6433 28.7462L62.147 21.4492H65.1025L62.1789 32.9088H59.6161L57.4449 25.6967L55.2737 32.9088H52.7205L49.7969 21.4492H52.7523L54.2454 28.7356L56.3423 21.4492H58.556L60.6423 28.7462H60.6433Z" fill="#1072B9"/>
<path d="M67.2266 27.0742C67.2266 25.9378 67.4452 24.9245 67.8834 24.0342C68.3207 23.144 68.951 22.4564 69.7745 21.9694C70.5969 21.4823 71.552 21.2383 72.6397 21.2383C74.1859 21.2383 75.4487 21.7115 76.426 22.658C77.4045 23.6045 77.9499 24.8894 78.0624 26.5129L78.0836 27.297C78.0836 29.0552 77.5923 30.4654 76.6118 31.5286C75.6302 32.5918 74.3132 33.1223 72.6609 33.1223C71.0087 33.1223 69.6896 32.5929 68.7048 31.5339C67.72 30.475 67.2276 29.034 67.2276 27.2132V27.0753L67.2266 27.0742ZM70.287 27.2907C70.287 28.3793 70.4919 29.2123 70.9015 29.7884C71.3111 30.3646 71.8969 30.6532 72.6599 30.6532C73.4229 30.6532 73.98 30.3688 74.397 29.799C74.8141 29.2292 75.0221 28.3199 75.0221 27.0678C75.0221 26.0004 74.8141 25.1728 74.397 24.586C73.98 23.9992 73.3942 23.7053 72.6386 23.7053C71.8831 23.7053 71.3111 23.9971 70.9015 24.5807C70.4919 25.1643 70.287 26.0672 70.287 27.2907Z" fill="#1072B9"/>
<path d="M87.4951 24.3196C87.078 24.2634 86.7108 24.2348 86.3936 24.2348C85.2347 24.2348 84.476 24.6263 84.1162 25.4104V32.9091H81.0547V21.4494H83.9464L84.0313 22.8161C84.6458 21.7646 85.4968 21.2383 86.5846 21.2383C86.9231 21.2383 87.2414 21.2839 87.5375 21.3762L87.4951 24.3207V24.3196Z" fill="#1072B9"/>
<path d="M94.4171 24.8701L96.3453 21.4492H99.618L96.3559 27.0623L99.7559 32.9088H96.4726L94.4288 29.3076L92.3955 32.9088H89.1016L92.5016 27.0623L89.2501 21.4492H92.5335L94.4192 24.8701H94.4171Z" fill="#1072B9"/>
<path fill-rule="evenodd" clip-rule="evenodd" d="M82.2636 1.94637C81.6852 1.94637 81.2162 2.41537 81.2162 2.99366C81.2162 4.98848 79.2254 4.90572 78.2098 4.90572C76.9459 4.90572 75.9219 5.92966 75.9219 7.1934C75.9219 8.45714 76.9459 9.48108 78.2098 9.48108C79.6689 9.48108 81.4634 9.64554 81.4634 11.9587C81.4634 12.7938 82.1405 13.4707 82.9756 13.4707C83.8108 13.4707 84.4878 12.7938 84.4878 11.9587C84.4878 11.1236 83.8108 10.4467 82.9756 10.4467C80.6622 10.4467 80.4977 8.65238 80.4977 7.1934C80.4977 6.33605 80.2314 4.03988 82.2625 4.03988C82.8409 4.03988 83.3099 3.57088 83.3099 2.99259C83.3099 2.41431 82.8409 1.94531 82.2625 1.94531" fill="#FAC329"/>
<path fill-rule="evenodd" clip-rule="evenodd" d="M79.5816 13.1471C79.5816 11.8833 78.5575 10.8594 77.2936 10.8594C76.0298 10.8594 75.0057 11.8833 75.0057 13.1471C75.0057 14.7429 74.6598 16.4003 72.5278 16.4003C71.6927 16.4003 71.0156 17.0773 71.0156 17.9124C71.0156 18.7474 71.6927 19.4244 72.5278 19.4244C73.363 19.4244 74.04 18.7474 74.04 17.9124C74.04 15.7806 75.6987 15.4347 77.2936 15.4347C78.1511 15.4347 80.4475 15.1684 80.4475 17.1993C80.4475 17.7776 80.9166 18.2466 81.4949 18.2466C82.0733 18.2466 82.5423 17.7776 82.5423 17.1993C82.5423 16.621 82.0733 16.152 81.4949 16.152C79.4999 16.152 79.5826 14.1614 79.5826 13.146" fill="#FAC329"/>
<path fill-rule="evenodd" clip-rule="evenodd" d="M69.9685 6.27733C69.9685 7.54107 70.9926 8.56501 72.2565 8.56501C73.5204 8.56501 74.5444 7.54107 74.5444 6.27733C74.5444 4.81835 74.7089 3.02407 77.0223 3.02407C77.8575 3.02407 78.5345 2.3471 78.5345 1.51203C78.5345 0.676967 77.8575 0 77.0223 0C76.1871 0 75.5101 0.676967 75.5101 1.51203C75.5101 3.82518 73.7156 3.98965 72.2565 3.98965C71.0998 3.98965 69.1026 4.01087 69.1026 2.22508C69.1026 1.64679 68.6336 1.1778 68.0552 1.1778C67.4769 1.1778 67.0078 1.64679 67.0078 2.22508C67.0078 2.80336 67.4769 3.27236 68.0552 3.27236C69.7659 3.27236 69.9675 5.05709 69.9675 6.27839" fill="#FAC329"/>
<path fill-rule="evenodd" clip-rule="evenodd" d="M71.3405 14.522C72.6044 14.522 73.6284 13.4981 73.6284 12.2344C73.6284 10.9706 72.6044 9.94668 71.3405 9.94668C69.5853 9.94668 68.0869 9.56045 68.0869 7.46907C68.0869 6.634 67.4099 5.95703 66.5747 5.95703C65.7395 5.95703 65.0625 6.634 65.0625 7.46907C65.0625 8.30413 65.7395 8.9811 66.5747 8.9811C68.6674 8.9811 69.0526 10.4804 69.0526 12.2344C69.0526 13.1946 69.0791 15.3879 67.2878 15.3879C66.7095 15.3879 66.2404 15.8569 66.2404 16.4352C66.2404 17.0134 66.7095 17.4824 67.2878 17.4824C67.8662 17.4824 68.3352 17.0134 68.3352 16.4352C68.3352 14.7109 70.2273 14.5231 71.3416 14.5231" fill="#FAC329"/>
<path d="M118.584 33.1488H115.13L106.268 19.045V33.1488H102.812V13.2695H106.268L115.157 27.4285V13.2695H118.585V33.1488H118.584Z" fill="#1072B9"/>
<path d="M127.142 13.2695L132.877 28.5066L138.599 13.2695H143.064V33.1488H139.623V26.5956L139.965 17.83L134.093 33.1499H131.622L125.764 17.8438L126.106 26.5956V33.1488H122.664V13.2695H127.143H127.142Z" fill="#1072B9"/>
<path d="M157.543 28.0284C157.543 27.154 157.235 26.4813 156.621 26.0081C156.007 25.5348 154.898 25.0574 153.296 24.5746C151.694 24.0918 150.419 23.5549 149.473 22.9638C147.661 21.8264 146.755 20.3419 146.755 18.5126C146.755 16.9104 147.408 15.5904 148.714 14.5527C150.02 13.515 151.716 12.9961 153.8 12.9961C155.184 12.9961 156.417 13.2508 157.501 13.7611C158.584 14.2715 159.435 14.9973 160.054 15.9385C160.673 16.8807 160.982 17.9248 160.982 19.0718H157.541C157.541 18.0341 157.215 17.2213 156.565 16.6345C155.914 16.0477 154.982 15.7538 153.773 15.7538C152.644 15.7538 151.767 15.9947 151.144 16.4775C150.52 16.9603 150.209 17.6341 150.209 18.4978C150.209 19.2257 150.546 19.8337 151.219 20.3207C151.893 20.8077 153.003 21.281 154.552 21.7404C156.099 22.1999 157.342 22.723 158.28 23.3108C159.217 23.8976 159.904 24.5714 160.342 25.3311C160.779 26.0908 160.997 26.9811 160.997 28.0008C160.997 29.6571 160.363 30.975 159.092 31.9533C157.822 32.9316 156.1 33.4208 153.924 33.4208C152.487 33.4208 151.164 33.1544 149.958 32.6218C148.751 32.0891 147.814 31.3548 147.145 30.4169C146.476 29.4799 146.141 28.387 146.141 27.1402H149.595C149.595 28.2692 149.968 29.1425 150.714 29.7622C151.46 30.3808 152.53 30.6906 153.923 30.6906C155.125 30.6906 156.029 30.4476 156.634 29.9606C157.239 29.4736 157.542 28.8295 157.542 28.0284H157.543Z" fill="#1072B9"/>
</svg>
