<svg width="267" height="68" viewBox="0 0 267 68" fill="none" xmlns="http://www.w3.org/2000/svg">
<path d="M14.3899 41.2434C14.3899 37.6762 14.3916 34.109 14.3899 30.5418C14.3881 28.5391 14.3441 26.5364 14.2491 24.5355C14.2209 23.9284 14.1945 23.3195 14.1365 22.7141C14.1118 22.4536 14.2121 22.429 14.4251 22.4308C15.9773 22.4378 17.5295 22.4413 19.0835 22.4272C19.3228 22.4255 19.3826 22.5152 19.3932 22.7229C19.4495 23.7225 19.5129 24.7221 19.5745 25.7216C19.6132 26.3481 19.6501 26.9746 19.6924 27.6011C19.6976 27.668 19.6501 27.7789 19.7628 27.7965C19.8596 27.8123 19.8807 27.7067 19.9176 27.6416C21.0879 25.565 22.7545 23.9952 24.9069 23.0045C28.8032 21.2112 32.6995 21.1672 36.478 23.3459C38.7922 24.6798 40.2265 26.7582 41.0994 29.2484C41.6309 30.7689 41.8931 32.3421 41.9987 33.9454C42.0444 34.6528 42.0462 35.3585 42.0462 36.0659C42.0462 42.2377 42.0444 48.4077 42.0532 54.5794C42.0532 54.8627 41.9899 54.9349 41.703 54.9314C39.9537 54.9155 38.2044 54.9173 36.4551 54.9314C36.1929 54.9331 36.133 54.8645 36.1348 54.6076C36.1418 48.5256 36.1436 42.4418 36.1383 36.3598C36.1383 34.6352 35.9711 32.9282 35.3763 31.2915C34.6407 29.2712 33.3859 27.7226 31.2793 27.0415C27.4305 25.7956 23.3951 27.3706 21.3642 31.1015C20.6269 32.4583 20.2978 33.9172 20.2978 35.457C20.2978 41.8241 20.2978 48.1912 20.3048 54.56C20.3048 54.8451 20.2538 54.9367 19.944 54.9349C18.2053 54.9173 16.4648 54.9208 14.726 54.9331C14.4638 54.9349 14.3864 54.8751 14.3864 54.6005C14.3952 50.1499 14.3934 45.6975 14.3934 41.2469L14.3899 41.2434Z" fill="#1072B9"/>
<path d="M57.2803 45.3254C57.2803 48.4104 57.275 51.4972 57.2873 54.5821C57.2873 54.876 57.2029 54.9324 56.9266 54.9306C54.8922 54.9183 52.8578 54.9183 50.8251 54.9306C50.5488 54.9306 50.4679 54.876 50.4679 54.5839C50.4784 48.4227 50.4749 42.2615 50.4749 36.1004C50.4749 35.6815 50.5347 35.7255 50.1 35.7238C48.5478 35.7238 46.9956 35.7185 45.4417 35.7273C45.2147 35.7273 45.1372 35.6727 45.1407 35.4351C45.1548 34.5904 45.1548 33.7457 45.1407 32.901C45.1372 32.6669 45.2199 32.63 45.4276 32.6317C47.0097 32.6388 48.5918 32.6317 50.174 32.6423C50.4168 32.6423 50.4907 32.5877 50.4819 32.3378C50.4397 31.1077 50.5048 29.8846 50.8621 28.695C51.4745 26.65 52.7381 25.1208 54.5525 24.0261C56.1628 23.0547 57.9209 22.4863 59.7582 22.1607C63.0738 21.5729 66.3806 21.668 69.6768 22.3525C69.9214 22.4036 69.9742 22.474 69.895 22.7186C69.6275 23.5492 69.3759 24.3851 69.1418 25.2263C69.0679 25.4938 68.9834 25.5607 68.6895 25.4956C66.4633 24.9958 64.2195 24.8744 61.9721 25.3302C60.3671 25.6557 58.9979 26.3861 58.1303 27.852C57.62 28.7161 57.3929 29.6664 57.3243 30.6554C57.2856 31.2133 57.3049 31.7747 57.275 32.3326C57.2627 32.5789 57.3366 32.6423 57.583 32.6423C60.4129 32.6335 63.2427 32.637 66.0726 32.637C66.3284 32.637 66.4563 32.7684 66.4563 33.0312C66.4563 33.8179 66.4457 34.6045 66.4615 35.3894C66.4668 35.6516 66.407 35.7343 66.1289 35.7343C63.3096 35.7238 60.4885 35.7273 57.6675 35.7273C57.4094 35.7273 57.2803 35.8522 57.2803 36.1021C57.2803 39.1783 57.2803 42.2527 57.2803 45.3289V45.3254Z" fill="#1072B9"/>
<path d="M6.04338 38.4136C6.04338 43.7881 6.04338 49.1644 6.04338 54.539C6.04338 54.9789 6.08738 54.9208 5.67557 54.9226C3.87699 54.9244 2.0784 54.9191 0.281579 54.9279C0.0651151 54.9279 0.00175987 54.8804 0.00351973 54.6551C0.00703947 43.8075 0.00703947 32.9581 0 22.1105C0 21.8817 0.066875 21.8377 0.279819 21.8395C2.09776 21.8483 3.9157 21.8518 5.73365 21.836C6.01171 21.8342 6.0469 21.9292 6.0469 22.1703C6.04162 27.5853 6.04162 32.9986 6.04162 38.4136H6.04338Z" fill="#1072B9"/>
<path d="M71.9445 38.3542C71.9445 32.9603 71.9463 27.5646 71.9375 22.1707C71.9375 21.8944 72.0167 21.8381 72.2772 21.8399C74.0564 21.8504 75.8338 21.8452 77.6131 21.8469C78.0249 21.8469 77.9809 21.7888 77.9809 22.2306C77.9809 28.9919 77.9809 35.7514 77.9809 42.5127C77.9809 46.5216 77.9809 50.5305 77.9809 54.5394C77.9809 54.9864 78.0319 54.923 77.5832 54.923C75.8145 54.9248 74.0458 54.9177 72.2772 54.93C72.0149 54.93 71.9375 54.8737 71.9375 54.5974C71.9463 49.1824 71.9445 43.7692 71.9445 38.3542Z" fill="#1072B9"/>
<path d="M100.566 47.6766L103.059 35.5742H107.961L103.112 54.5804H98.8622L95.2615 42.6188L91.6608 54.5804H87.4266L82.5781 35.5742H87.4794L89.9555 47.659L93.433 35.5742H97.1041L100.564 47.6766H100.566Z" fill="#1072B9"/>
<path d="M111.484 44.9017C111.484 43.017 111.847 41.3363 112.574 39.8598C113.299 38.3833 114.344 37.2429 115.71 36.4352C117.074 35.6274 118.658 35.2227 120.461 35.2227C123.026 35.2227 125.12 36.0075 126.741 37.5773C128.363 39.1471 129.268 41.2782 129.454 43.9708L129.49 45.2713C129.49 48.1874 128.675 50.5262 127.049 52.2895C125.421 54.0529 123.237 54.9328 120.497 54.9328C117.757 54.9328 115.569 54.0546 113.936 52.2983C112.303 50.542 111.486 48.1522 111.486 45.1323V44.9035L111.484 44.9017ZM116.56 45.2608C116.56 47.0663 116.899 48.4478 117.579 49.4034C118.258 50.359 119.23 50.8377 120.495 50.8377C121.76 50.8377 122.684 50.366 123.376 49.421C124.067 48.476 124.412 46.9678 124.412 44.8912C124.412 43.1208 124.067 41.7481 123.376 40.7749C122.684 39.8017 121.713 39.3143 120.46 39.3143C119.207 39.3143 118.258 39.7982 117.579 40.7661C116.899 41.734 116.56 43.2317 116.56 45.2608Z" fill="#1072B9"/>
<path d="M145.095 40.3332C144.403 40.2399 143.794 40.1924 143.268 40.1924C141.346 40.1924 140.088 40.8418 139.491 42.1423V54.5791H134.414V35.5729H139.21L139.35 37.8395C140.369 36.0955 141.781 35.2227 143.585 35.2227C144.146 35.2227 144.674 35.2983 145.165 35.4514L145.095 40.335V40.3332Z" fill="#1072B9"/>
<path d="M156.573 41.2479L159.771 35.5742H165.198L159.788 44.8837L165.427 54.5804H159.982L156.592 48.6076L153.22 54.5804H147.758L153.396 44.8837L148.004 35.5742H153.449L156.577 41.2479H156.573Z" fill="#1072B9"/>
<path fill-rule="evenodd" clip-rule="evenodd" d="M136.423 3.22832C135.464 3.22832 134.686 4.00617 134.686 4.96528C134.686 8.27377 131.385 8.1365 129.701 8.1365C127.605 8.1365 125.906 9.83474 125.906 11.9307C125.906 14.0267 127.605 15.7249 129.701 15.7249C132.12 15.7249 135.096 15.9977 135.096 19.8341C135.096 21.2191 136.219 22.3419 137.604 22.3419C138.989 22.3419 140.112 21.2191 140.112 19.8341C140.112 18.4491 138.989 17.3264 137.604 17.3264C133.768 17.3264 133.495 14.3505 133.495 11.9307C133.495 10.5088 133.053 6.70048 136.421 6.70048C137.381 6.70048 138.158 5.92263 138.158 4.96352C138.158 4.00441 137.381 3.22656 136.421 3.22656" fill="#FAC329"/>
<path fill-rule="evenodd" clip-rule="evenodd" d="M131.979 21.8059C131.979 19.71 130.281 18.0117 128.185 18.0117C126.089 18.0117 124.391 19.71 124.391 21.8059C124.391 24.4527 123.817 27.2016 120.281 27.2016C118.896 27.2016 117.773 28.3243 117.773 29.7093C117.773 31.0943 118.896 32.2171 120.281 32.2171C121.666 32.2171 122.789 31.0943 122.789 29.7093C122.789 26.1738 125.54 25.6001 128.185 25.6001C129.607 25.6001 133.415 25.1584 133.415 28.5267C133.415 29.4858 134.193 30.2637 135.152 30.2637C136.111 30.2637 136.889 29.4858 136.889 28.5267C136.889 27.5676 136.111 26.7898 135.152 26.7898C131.844 26.7898 131.981 23.4883 131.981 21.8042" fill="#FAC329"/>
<path fill-rule="evenodd" clip-rule="evenodd" d="M116.035 10.4112C116.035 12.5071 117.733 14.2054 119.829 14.2054C121.925 14.2054 123.624 12.5071 123.624 10.4112C123.624 7.99141 123.896 5.01553 127.733 5.01553C129.118 5.01553 130.241 3.89275 130.241 2.50776C130.241 1.12277 129.118 0 127.733 0C126.348 0 125.225 1.12277 125.225 2.50776C125.225 6.3442 122.249 6.61698 119.829 6.61698C117.911 6.61698 114.599 6.65217 114.599 3.69037C114.599 2.73126 113.821 1.95342 112.862 1.95342C111.903 1.95342 111.125 2.73126 111.125 3.69037C111.125 4.64948 111.903 5.42733 112.862 5.42733C115.699 5.42733 116.033 8.38737 116.033 10.4129" fill="#FAC329"/>
<path fill-rule="evenodd" clip-rule="evenodd" d="M118.31 24.0843C120.406 24.0843 122.104 22.386 122.104 20.2901C122.104 18.1941 120.406 16.4959 118.31 16.4959C115.399 16.4959 112.914 15.8553 112.914 12.3867C112.914 11.0017 111.791 9.87891 110.406 9.87891C109.021 9.87891 107.898 11.0017 107.898 12.3867C107.898 13.7717 109.021 14.8944 110.406 14.8944C113.877 14.8944 114.516 17.3811 114.516 20.2901C114.516 21.8827 114.56 25.5203 111.589 25.5203C110.63 25.5203 109.852 26.2982 109.852 27.2573C109.852 28.2164 110.63 28.9942 111.589 28.9942C112.548 28.9942 113.326 28.2164 113.326 27.2573C113.326 24.3975 116.464 24.086 118.312 24.086" fill="#FAC329"/>
<path d="M196.663 54.9744H190.935L176.238 31.5827V54.9744H170.508V22.0039H176.238L190.98 45.4871V22.0039H196.665V54.9744H196.663Z" fill="#1072B9"/>
<path d="M210.864 22.0039L220.374 47.2751L229.864 22.0039H237.269V54.9744H231.562V44.1057L232.129 29.5677L222.391 54.9762H218.293L208.578 29.5906L209.145 44.1057V54.9744H203.438V22.0039H210.866H210.864Z" fill="#1072B9"/>
<path d="M261.269 46.4824C261.269 45.0323 260.759 43.9165 259.74 43.1316C258.721 42.3467 256.882 41.5548 254.226 40.7541C251.569 39.9534 249.455 39.0629 247.885 38.0827C244.881 36.1961 243.378 33.7341 243.378 30.7002C243.378 28.0428 244.461 25.8536 246.627 24.1325C248.793 22.4113 251.606 21.5508 255.062 21.5508C257.357 21.5508 259.402 21.9731 261.199 22.8196C262.996 23.6661 264.407 24.8698 265.433 26.4308C266.459 27.9935 266.973 29.7252 266.973 31.6276H261.266C261.266 29.9065 260.725 28.5584 259.647 27.5853C258.568 26.6121 257.023 26.1246 255.016 26.1246C253.144 26.1246 251.69 26.5241 250.657 27.3248C249.622 28.1255 249.107 29.243 249.107 30.6755C249.107 31.8828 249.665 32.8912 250.782 33.6989C251.9 34.5067 253.74 35.2916 256.308 36.0536C258.874 36.8156 260.935 37.6832 262.49 38.6581C264.044 39.6313 265.185 40.7488 265.91 42.0089C266.635 43.2689 266.998 44.7454 266.998 46.4366C266.998 49.1837 265.945 51.3694 263.839 52.992C261.732 54.6146 258.876 55.4258 255.268 55.4258C252.883 55.4258 250.691 54.9841 248.69 54.1007C246.689 53.2172 245.135 51.9994 244.024 50.4437C242.915 48.8898 242.359 47.0772 242.359 45.0094H248.088C248.088 46.8818 248.707 48.3302 249.944 49.3579C251.182 50.3839 252.956 50.8978 255.266 50.8978C257.258 50.8978 258.758 50.4948 259.761 49.687C260.764 48.8793 261.267 47.811 261.267 46.4824H261.269Z" fill="#1072B9"/>
</svg>
