<svg width="80" height="80" viewBox="0 0 80 80" fill="none" xmlns="http://www.w3.org/2000/svg">
<g clip-path="url(#clip0_15361_9038)">
<path d="M40.0071 80.0002C17.7339 79.9316 -0.0820065 62.0379 0.000283924 39.8081C0.0825743 17.688 18.0493 -0.0684125 40.2266 0.000198164C62.3627 0.0688088 80.0963 18.1134 80.0003 40.4393C79.9043 62.2163 61.8415 80.0688 40.0071 80.0002ZM41.3375 29.489C41.3375 26.4839 41.3649 23.465 41.3375 20.4599C41.3238 19.1426 40.3912 18.2781 39.582 18.8407C39.0745 19.1975 38.6905 20.0757 38.6768 20.7206C38.6082 26.8956 38.6768 33.0842 38.6219 39.2729C38.6219 40.4256 39.1019 41.0568 40.0483 41.6057C43.6142 43.6228 47.1664 45.6949 50.7186 47.7395C51.5552 48.2198 52.4741 48.7686 53.1462 47.6709C53.8731 46.4908 52.9542 45.9144 52.049 45.393C48.8671 43.568 45.7126 41.7017 42.517 39.9316C41.6255 39.4376 41.3101 38.8613 41.3375 37.8595C41.4061 35.074 41.3649 32.2746 41.3649 29.489H41.3375ZM41.3101 9.75663C41.3101 9.11169 41.4609 8.39814 41.2689 7.82181C41.0906 7.31409 40.4323 6.54565 40.1169 6.60054C39.582 6.6966 38.8276 7.30037 38.7454 7.79437C38.5396 9.01564 38.5396 10.3055 38.7454 11.5268C38.8276 12.0208 39.582 12.6383 40.1031 12.7343C40.4323 12.7892 41.0769 12.0482 41.2826 11.5405C41.4884 11.0328 41.3238 10.3604 41.3238 9.77035L41.3101 9.75663ZM41.2826 70.4221C41.2826 70.4221 41.3101 70.4221 41.3238 70.4221C41.3238 69.7635 41.4884 69.0637 41.2689 68.4873C41.0769 67.9796 40.5009 67.2935 40.062 67.2661C39.6231 67.2386 38.8139 67.8973 38.7454 68.3227C38.5671 69.6537 38.5671 71.0396 38.7454 72.3844C38.8002 72.8098 39.582 73.3861 40.0894 73.441C40.446 73.4822 41.0769 72.8235 41.2415 72.357C41.4472 71.7806 41.2964 71.0671 41.2964 70.4221H41.2826ZM25.4966 16.6589C26.6487 16.6589 27.3481 15.7258 26.9367 14.8201C26.3881 13.64 25.7572 12.4736 24.9617 11.4445C24.6737 11.074 23.5902 10.8132 23.3433 11.0328C22.9456 11.3758 22.6301 12.2952 22.8222 12.7618C23.2748 13.9144 23.9879 14.971 24.6737 16.0139C24.8794 16.3433 25.332 16.5216 25.5103 16.6451L25.4966 16.6589ZM55.9166 10.8132C55.7932 10.8681 55.4366 10.9093 55.3269 11.0877C54.504 12.4187 53.6673 13.7498 53.0227 15.1631C52.8856 15.4513 53.4342 16.3433 53.8319 16.4942C54.2297 16.6451 55.0526 16.357 55.3269 15.9865C56.0675 14.9985 56.6984 13.887 57.2333 12.7618C57.7133 11.7463 57.0687 10.7721 55.9303 10.7995L55.9166 10.8132ZM12.5359 22.5868C11.0546 22.6417 10.2866 23.959 11.0409 24.5628C12.2753 25.5645 13.7565 26.3055 15.1966 27.0191C15.4435 27.1426 16.1703 26.7583 16.3761 26.4153C16.5818 26.0722 16.6092 25.2489 16.3761 25.0842C15.032 24.11 13.5919 23.2592 12.5221 22.5731L12.5359 22.5868ZM64.0908 52.2678C63.8576 52.8304 63.5148 53.3244 63.4736 53.8458C63.4325 54.3124 63.5833 55.0259 63.9125 55.2592C65.0234 56.0414 66.2166 56.7275 67.4373 57.2764C67.7939 57.441 68.5756 57.2077 68.8362 56.8921C69.0968 56.5765 69.1791 55.6297 68.9596 55.465C67.6293 54.4633 66.1892 53.6125 64.0908 52.2678ZM27.3618 64.7137C26.8955 64.1649 26.6487 63.6571 26.2646 63.5199C25.8806 63.3827 25.1126 63.4376 24.9343 63.6983C24.0702 64.947 23.3022 66.2643 22.6301 67.6228C22.493 67.911 22.781 68.6245 23.0965 68.8716C23.3982 69.1185 24.2485 69.2283 24.3857 69.0362C25.4143 67.6777 26.3332 66.2232 27.3344 64.7137H27.3618ZM9.60083 41.3861C9.60083 41.3861 9.60083 41.345 9.60083 41.3312C10.2592 41.3312 10.9723 41.4959 11.5484 41.2764C12.0558 41.0842 12.7279 40.4805 12.7416 40.0414C12.7553 39.616 12.0833 38.8201 11.6444 38.7652C10.3003 38.6005 8.91508 38.6143 7.571 38.7652C7.15955 38.8201 6.54237 39.5336 6.52866 39.959C6.52866 40.3981 7.04983 41.0568 7.50243 41.2352C8.13332 41.4822 8.90136 41.3587 9.60083 41.3861ZM67.8487 22.3124C66.3401 23.2866 64.9 24.1374 63.5696 25.1391C63.3502 25.3038 63.4462 26.2506 63.7205 26.58C63.9811 26.8956 64.7766 27.1151 65.1331 26.9367C66.3675 26.3741 67.547 25.688 68.6579 24.9059C68.9871 24.6726 69.1791 23.9179 69.0694 23.4925C68.9596 23.0808 68.3836 22.7927 67.8624 22.3124H67.8487ZM70.2352 41.3175C70.2352 41.3175 70.2352 41.3312 70.2352 41.345C70.8935 41.345 71.6204 41.5234 72.169 41.2901C72.7039 41.0705 73.2936 40.4668 73.3896 39.9316C73.4582 39.6023 72.6901 38.8064 72.2238 38.7515C70.9346 38.5868 69.6043 38.5868 68.3288 38.7789C67.8899 38.8338 67.3001 39.5885 67.2453 40.0825C67.2041 40.453 67.8213 41.098 68.2876 41.2626C68.8636 41.4685 69.5768 41.3175 70.2214 41.3175H70.2352ZM12.1381 57.7017C13.6468 56.7275 15.0731 55.8767 16.4035 54.875C16.6229 54.7103 16.5407 53.7635 16.2664 53.4342C16.0058 53.1185 15.224 52.899 14.8537 53.0637C13.6193 53.6263 12.4399 54.3124 11.3289 55.0945C10.9998 55.3278 10.8078 56.0825 10.9312 56.5079C11.0409 56.9196 11.6169 57.2215 12.1381 57.7017ZM57.6584 67.8287C56.7258 66.3604 55.8755 64.9333 54.888 63.5885C54.7234 63.369 53.9005 63.4101 53.5713 63.616C53.2422 63.8355 52.8719 64.5491 52.9953 64.8098C53.6673 66.2095 54.4491 67.5817 55.3132 68.8716C55.4777 69.1185 56.2595 69.1734 56.6298 69.0225C57.0001 68.8716 57.2196 68.3501 57.6584 67.8149V67.8287Z" fill="#1E76BD"/>
</g>
<defs>
<clipPath id="clip0_15361_9038">
<rect width="80" height="80" fill="white"/>
</clipPath>
</defs>
</svg>
