<svg width="25" height="25" viewBox="0 0 25 25" fill="none" xmlns="http://www.w3.org/2000/svg">
<path d="M16.4581 2.35156C13.4881 2.35156 11.0781 4.76156 11.0781 7.73156C11.0781 10.7016 13.4881 13.1116 16.4581 13.1116C19.4281 13.1116 21.8381 10.7016 21.8381 7.73156C21.8381 4.76156 19.4281 2.35156 16.4581 2.35156Z" fill="#4F697E"/>
<path d="M7.22844 13.6328C5.39844 13.6328 3.89844 15.1228 3.89844 16.9628C3.89844 18.8028 5.38844 20.2928 7.22844 20.2928C9.05844 20.2928 10.5584 18.8028 10.5584 16.9628C10.5584 15.1228 9.05844 13.6328 7.22844 13.6328Z" fill="#4F697E"/>
<path d="M17.4897 17.2227C15.9397 17.2227 14.6797 18.4827 14.6797 20.0327C14.6797 21.5827 15.9397 22.8427 17.4897 22.8427C19.0397 22.8427 20.2997 21.5827 20.2997 20.0327C20.2997 18.4827 19.0397 17.2227 17.4897 17.2227Z" fill="#4F697E"/>
</svg>
