<svg width="84" height="91" viewBox="0 0 84 91" fill="none" xmlns="http://www.w3.org/2000/svg">
<g clip-path="url(#clip0_15361_9055)">
<path d="M38.3283 69.8989C37.2583 69.8989 36.3083 69.8989 35.3483 69.8989C24.9783 69.8989 14.6083 69.8989 4.23829 69.8989C1.57829 69.8989 0.98829 69.2889 0.97829 66.6289C0.95829 61.8889 0.95829 57.1489 0.97829 52.3989C0.98829 49.6989 1.47829 49.1689 4.24829 49.1689C29.4883 49.1489 54.7283 49.1689 79.9583 49.1289C82.1583 49.1289 82.9783 50.1089 82.9583 52.2089C82.9183 57.0289 82.9583 61.8489 82.9383 66.6789C82.9283 69.3289 82.3283 69.9089 79.6383 69.9089C69.1883 69.9189 58.7383 69.9089 48.2883 69.9089C47.4183 69.9089 46.5383 69.9089 45.7083 69.9089C44.6383 74.4289 45.8083 78.0489 49.0383 80.0789C49.5783 80.4189 50.4383 80.3189 51.1483 80.3189C59.9083 80.3289 68.6683 80.3189 77.4283 80.3189C78.0683 80.3189 78.7183 80.2889 79.3583 80.3389C82.0283 80.5389 83.8583 82.3189 83.8983 84.7389C83.9383 87.2389 82.0283 89.2189 79.2783 89.2789C75.4183 89.3689 71.5583 89.3089 67.7083 89.3089C61.9183 89.3089 56.1283 89.2289 50.3483 89.3489C48.1483 89.3889 45.9583 89.9389 43.7483 90.1489C42.5683 90.2689 41.3483 90.2589 40.1683 90.1489C37.9583 89.9389 35.7683 89.3789 33.5683 89.3489C24.0883 89.2589 14.5983 89.3289 5.11829 89.2989C2.28829 89.2989 0.44829 87.8389 0.0582899 85.4489C-0.26171 83.4889 0.96829 81.3089 2.93829 80.6989C3.90829 80.3889 4.98829 80.3489 6.01829 80.3489C14.6983 80.3189 23.3783 80.2889 32.0583 80.3589C33.8683 80.3789 35.0483 80.0389 36.2083 78.3689C38.7283 74.7289 38.9683 74.5789 38.3283 69.8989ZM71.5983 57.4889C71.0383 57.4889 70.4783 57.5489 69.9283 57.4889C67.5483 57.2089 66.8883 58.3389 66.9683 60.5789C67.0383 62.4689 67.8083 63.1589 69.5883 63.0889C70.8583 63.0389 72.1383 63.0289 73.4183 63.0889C75.4383 63.1989 76.0183 62.1789 76.0183 60.3089C76.0183 58.3389 75.4383 57.2289 73.2783 57.4689C72.7283 57.5289 72.1583 57.4689 71.6083 57.4689L71.5983 57.4889Z" fill="#1E76BD"/>
<path d="M41.9739 20.76C29.5239 20.76 17.0639 20.76 4.61387 20.76C1.47387 20.76 0.973873 20.24 0.973873 17.13C0.973873 12.47 1.01387 7.81 0.953873 3.15C0.923873 0.92 1.79387 0 4.10387 0C29.3339 0.05 54.5539 0.05 79.7839 0C82.0539 0 82.9939 0.85 82.9639 3.12C82.8939 7.86 82.9539 12.6 82.9339 17.34C82.9339 20.23 82.3639 20.76 79.3339 20.76C66.8839 20.76 54.4239 20.76 41.9739 20.76ZM71.5939 8.34C70.7939 8.34 69.9939 8.36 69.2039 8.34C67.6939 8.29 67.0739 9 67.0139 10.5C66.8739 13.5 67.2439 13.94 70.3239 13.96C71.2839 13.96 72.2439 13.9 73.1939 13.97C75.2439 14.12 76.0639 13.26 76.0239 11.17C75.9839 9.22 75.4739 8.07 73.2739 8.33C72.7239 8.4 72.1539 8.33 71.6039 8.34H71.5939Z" fill="#1E76BD"/>
<path d="M41.9882 24.5987C54.4382 24.5987 66.8982 24.5987 79.3482 24.5987C82.5482 24.5987 82.9382 24.9887 82.9382 28.2187C82.9382 32.8787 82.8982 37.5387 82.9582 42.1987C82.9882 44.4387 82.0482 45.3787 79.7782 45.3687C54.6282 45.3387 29.4782 45.3487 4.32819 45.3387C1.63819 45.3387 0.988188 44.7087 0.968188 42.1387C0.938188 37.3187 1.00819 32.4987 0.938188 27.6787C0.908188 25.4187 1.85819 24.5487 4.12819 24.5587C16.7482 24.6187 29.3582 24.5887 41.9782 24.5887L41.9882 24.5987ZM71.4282 32.9187C70.8682 32.9187 70.3082 32.9687 69.7582 32.9187C67.6382 32.6887 66.9882 33.6687 66.9782 35.7087C66.9782 37.7687 67.6882 38.6887 69.7582 38.5687C70.8682 38.4987 71.9982 38.4787 73.1082 38.5687C75.3382 38.7487 76.0282 37.6987 76.0282 35.5887C76.0282 33.4287 75.0782 32.7287 73.0982 32.9187C72.5482 32.9787 71.9782 32.9187 71.4282 32.9187Z" fill="#1E76BD"/>
</g>
<defs>
<clipPath id="clip0_15361_9055">
<rect width="83.9" height="90.23" fill="white"/>
</clipPath>
</defs>
</svg>
