<svg width="25" height="25" viewBox="0 0 25 25" fill="none" xmlns="http://www.w3.org/2000/svg">
<path d="M19.3731 14.8103L18.3731 13.1503C18.1631 12.7803 17.9731 12.0803 17.9731 11.6703V9.14031C17.9731 6.79031 16.5931 4.76031 14.6031 3.81031C14.0831 2.89031 13.1231 2.32031 12.0231 2.32031C10.9331 2.32031 9.95315 2.91031 9.43315 3.84031C7.48315 4.81031 6.13315 6.82031 6.13315 9.14031V11.6703C6.13315 12.0803 5.94315 12.7803 5.73315 13.1403L4.72315 14.8103C4.32315 15.4803 4.23315 16.2203 4.48315 16.9003C4.72315 17.5703 5.29315 18.0903 6.03315 18.3403C7.97315 19.0003 10.0131 19.3203 12.0531 19.3203C14.0931 19.3203 16.1331 19.0003 18.0731 18.3503C18.7731 18.1203 19.3131 17.5903 19.5731 16.9003C19.8331 16.2103 19.7631 15.4503 19.3731 14.8103Z" fill="#4F697E"/>
<path d="M14.8609 20.3303C14.4409 21.4903 13.3309 22.3203 12.0309 22.3203C11.2409 22.3203 10.4609 22.0003 9.91094 21.4303C9.59094 21.1303 9.35094 20.7303 9.21094 20.3203C9.34094 20.3403 9.47094 20.3503 9.61094 20.3703C9.84094 20.4003 10.0809 20.4303 10.3209 20.4503C10.8909 20.5003 11.4709 20.5303 12.0509 20.5303C12.6209 20.5303 13.1909 20.5003 13.7509 20.4503C13.9609 20.4303 14.1709 20.4203 14.3709 20.3903C14.5309 20.3703 14.6909 20.3503 14.8609 20.3303Z" fill="#4F697E"/>
<circle cx="18.0742" cy="8.06641" r="3.25391" fill="#219F01" stroke="white"/>
</svg>
