<svg width="211" height="68" viewBox="0 0 211 68" fill="none" xmlns="http://www.w3.org/2000/svg">
<g clip-path="url(#clip0_15361_9060)">
<path d="M210.984 10.6562C210.975 4.18588 206.835 0 200.44 0C137.127 0 73.8144 0 10.4973 0C4.14268 0 0.0157516 4.22692 0.0067507 10.7109C-0.00225023 22.995 -0.00225023 35.279 0.0067507 47.5631C0.0157516 54.2659 3.98967 58.3241 10.5829 58.3697C13.4091 58.3925 16.2354 58.3743 19.3408 58.3743V68H48.0133V58.5202H163.108V67.9863H191.781V58.3743C194.963 58.3743 197.942 58.4199 200.917 58.3652C206.938 58.2512 210.98 54.0835 210.989 47.9643C211.007 35.5252 211.007 23.0907 210.989 10.6562H210.984ZM21.8925 48.0646C21.8925 50.6546 19.8043 52.7703 17.248 52.7703H10.6459C8.08959 52.7703 6.00138 50.6546 6.00138 48.0646V9.58922C6.00138 7.00382 8.08959 4.88352 10.6459 4.88352H17.248C19.8043 4.88352 21.8925 7.00382 21.8925 9.58922V48.0646ZM44.7954 48.0646C44.7954 50.6546 42.7072 52.7703 40.1554 52.7703H33.5487C30.997 52.7703 28.9043 50.6546 28.9043 48.0646V9.58922C28.9043 7.00382 30.997 4.88352 33.5487 4.88352H40.1554C42.7072 4.88352 44.7954 7.00382 44.7954 9.58922V48.0646ZM67.7118 48.0646C67.7118 50.6546 65.6236 52.7703 63.0673 52.7703H56.4606C53.9089 52.7703 51.8207 50.6546 51.8207 48.0646V9.58922C51.8207 7.00382 53.9089 4.88352 56.4606 4.88352H63.0673C65.6236 4.88352 67.7118 7.00382 67.7118 9.58922V48.0646ZM90.6147 48.0646C90.6147 50.6546 88.5265 52.7703 85.9702 52.7703H79.368C76.8118 52.7703 74.7235 50.6546 74.7235 48.0646V9.58922C74.7235 7.00382 76.8118 4.88352 79.368 4.88352H85.9702C88.5265 4.88352 90.6147 7.00382 90.6147 9.58922V48.0646ZM113.531 48.0646C113.531 50.6546 111.438 52.7703 108.887 52.7703H102.28C99.7281 52.7703 97.6399 50.6546 97.6399 48.0646V9.58922C97.6399 7.00382 99.7281 4.88352 102.28 4.88352H108.887C111.438 4.88352 113.531 7.00382 113.531 9.58922V48.0646ZM136.438 48.0646C136.438 50.6546 134.35 52.7703 131.794 52.7703H125.192C122.636 52.7703 120.547 50.6546 120.547 48.0646V9.58922C120.547 7.00382 122.636 4.88352 125.192 4.88352H131.794C134.35 4.88352 136.438 7.00382 136.438 9.58922V48.0646ZM159.346 48.0646C159.346 50.6546 157.253 52.7703 154.701 52.7703H148.095C145.543 52.7703 143.45 50.6546 143.45 48.0646V9.58922C143.45 7.00382 145.543 4.88352 148.095 4.88352H154.701C157.253 4.88352 159.346 7.00382 159.346 9.58922V48.0646ZM184.476 36.4053C180.467 36.3779 177.343 33.218 177.366 29.1963C177.388 25.1426 180.485 22.0283 184.512 22.0009C188.603 21.9736 191.826 25.2475 191.74 29.3467C191.659 33.3821 188.522 36.4281 184.476 36.4053Z" fill="#1E76BD"/>
</g>
<defs>
<clipPath id="clip0_15361_9060">
<rect width="211" height="68" fill="white"/>
</clipPath>
</defs>
</svg>
