<svg width="13" height="13" viewBox="0 0 13 13" fill="none" xmlns="http://www.w3.org/2000/svg">
<path d="M11.2613 10.1987C10.5169 11.1296 9.64117 11.7742 8.53531 12.1653C8.09949 11.0909 7.67792 10.0511 7.26755 9.04078H5.72282C5.32468 10.0388 4.9082 11.0807 4.47339 12.1694C3.37772 11.7865 2.49284 11.1571 1.75153 10.2171C2.62521 9.47259 3.49177 8.73525 4.32778 8.02337C4.15773 7.52332 4.00193 7.06706 3.83188 6.56905C2.7525 6.49267 1.63035 6.41323 0.515336 6.33379C0.411471 5.38971 0.845259 3.99854 1.51121 3.15528C2.46127 3.73985 3.41744 4.32749 4.35833 4.90697C4.77175 4.60552 5.17295 4.31221 5.61998 3.9853C5.36643 2.94854 5.09964 1.8578 4.82164 0.71614C5.92953 0.357653 7.02419 0.378021 8.17688 0.701881C7.905 1.81706 7.63719 2.92002 7.37855 3.98122C7.7991 4.29286 8.18706 4.58108 8.62391 4.90494C9.53323 4.34073 10.4884 3.74698 11.4853 3.12778C12.1818 4.0627 12.4638 5.12186 12.5331 6.30324C11.3845 6.39082 10.2633 6.47535 9.1697 6.55887C9.00474 7.04466 8.85098 7.50091 8.67686 8.01522C9.49759 8.70775 10.357 9.43389 11.2613 10.1967V10.1987ZM6.49773 4.99456C5.6434 4.99456 4.98762 5.65043 4.98966 6.49776C4.99272 7.35018 5.64543 8.00198 6.4957 8.00096C7.34596 8.00096 8.00683 7.34204 8.00683 6.49674C8.00683 5.64737 7.35004 4.99252 6.49672 4.99354L6.49773 4.99456Z" fill="#4F697E"/>
</svg>
