<svg width="80" height="87" viewBox="0 0 80 87" fill="none" xmlns="http://www.w3.org/2000/svg">
<g clip-path="url(#clip0_15361_8941)">
<path d="M12.2094 70.9046C11.3628 70.9046 10.6221 70.9046 9.88134 70.9046C4.50568 70.8199 0.0612358 66.4572 0.0400718 61.0779C-0.0234203 51.7383 -0.00225628 42.3776 0.0400718 33.038C0.0612358 27.7646 4.50568 23.3807 9.81785 23.2537C10.6009 23.2537 11.3628 23.2537 12.294 23.2537C12.294 20.9664 12.3364 18.8274 12.294 16.6884C12.2729 15.566 12.5903 14.6977 13.4157 13.8929C17.7544 9.6149 22.0295 5.25219 26.3893 0.995375C26.9395 0.444742 27.9131 0.0423564 28.6962 0.0423564C40.8866 0 53.1194 0 65.3522 0C67.0877 0 67.6803 0.635346 67.6803 2.43549C67.6803 8.85248 67.6803 15.2483 67.6803 21.6653C67.6803 22.1312 67.6803 22.6183 67.6803 23.2537C68.421 23.2537 69.0136 23.2537 69.6062 23.2537C75.5321 23.2748 79.9343 27.6375 79.9554 33.5462C79.9554 42.5046 79.9554 51.4418 79.9554 60.4002C79.9554 66.6266 75.6591 70.8834 69.4369 70.9046C68.929 70.9046 68.3999 70.9046 67.7438 70.9046C67.7226 71.4764 67.6803 71.9423 67.6591 72.4082C67.6591 76.4533 67.6591 80.4771 67.6591 84.5221C67.6591 86.3647 67.0665 86.9788 65.2253 86.9788C48.3787 86.9788 31.5533 86.9788 14.7067 86.9788C12.8443 86.9788 12.2517 86.3858 12.2517 84.5433C12.2517 80.4983 12.2517 76.4744 12.2517 72.4294C12.2517 71.9635 12.2094 71.4976 12.1882 70.9046H12.2094ZM16.2094 54.915V83.0397H63.7649V54.915H16.2094ZM63.7649 23.2113V3.9815H30.0507C30.0507 7.83593 30.0507 11.5633 30.0507 15.2695C30.0507 17.112 29.4369 17.7261 27.6168 17.7261C24.294 17.7261 20.9501 17.7261 17.6274 17.7261C17.1618 17.7261 16.6962 17.7685 16.2517 17.7897V23.1689H63.7861L63.7649 23.2113ZM54.6432 34.9864C52.8443 34.9864 51.3628 36.4688 51.3628 38.2478C51.3628 40.0691 52.929 41.594 54.7491 41.5516C56.548 41.5093 57.966 40.0268 57.9237 38.2055C57.9025 36.3841 56.4422 34.9652 54.6432 34.9864ZM65.7332 34.9864C63.9131 35.0075 62.4951 36.4688 62.5163 38.269C62.5163 40.0691 63.9766 41.5304 65.7755 41.5516C67.5956 41.5516 69.1194 40.0056 69.056 38.1631C69.0136 36.3418 67.5533 34.944 65.7332 34.9652V34.9864Z" fill="#1E76BD"/>
<path d="M39.9155 78.6974C34.1801 78.6974 28.4446 78.6974 22.7092 78.6974C22.2012 78.6974 21.4816 78.7609 21.2065 78.4644C20.6774 77.9349 20.0848 77.1302 20.1271 76.4948C20.1695 75.923 20.9737 75.3512 21.5451 74.8853C21.7568 74.7159 22.2224 74.8217 22.5822 74.8217C34.2435 74.8217 45.8838 74.8217 57.5451 74.8217C57.7144 74.8217 57.9049 74.8217 58.0742 74.8217C59.2594 74.8853 60.0213 75.6053 60.0636 76.6642C60.106 77.7867 59.3441 78.6338 58.0954 78.6762C56.3811 78.7397 54.688 78.6974 52.9737 78.6974C48.6351 78.6974 44.2965 78.6974 39.9578 78.6974H39.9155Z" fill="#1E76BD"/>
<path d="M39.9133 70.903C34.2201 70.903 28.527 70.903 22.8339 70.903C22.4318 70.903 22.0297 70.9454 21.6487 70.8819C20.654 70.7336 20.0614 70.1195 19.9979 69.1241C19.9344 68.1287 20.4 67.4086 21.3736 67.1545C22.0085 67.0063 22.6646 67.0063 23.3207 67.0063C34.6222 67.0063 45.9238 67.0063 57.2254 67.0063C57.6275 67.0063 58.0297 66.9851 58.4106 67.0698C59.4265 67.3028 60.0402 67.9381 59.9979 69.0182C59.9556 70.1406 59.2995 70.776 58.1778 70.8819C57.6064 70.9242 57.0349 70.8819 56.4635 70.8819C50.9397 70.8819 45.4159 70.8819 39.9133 70.8819V70.903Z" fill="#1E76BD"/>
<path d="M31.0665 59.2985C33.9025 59.2985 36.7596 59.2985 39.5956 59.2985C41.0771 59.2985 41.9025 59.9974 41.9025 61.2046C41.9025 62.4117 41.0983 63.1741 39.6168 63.1741C33.7967 63.1953 27.9766 63.1953 22.1565 63.1741C20.802 63.1741 19.9766 62.3905 19.9766 61.2257C19.9766 60.0186 20.802 59.2985 22.2623 59.2773C25.2041 59.2773 28.1247 59.2773 31.0665 59.2773V59.2985Z" fill="#1E76BD"/>
</g>
<defs>
<clipPath id="clip0_15361_8941">
<rect width="80" height="87" fill="white"/>
</clipPath>
</defs>
</svg>
