<svg width="14" height="14" viewBox="0 0 14 14" fill="none" xmlns="http://www.w3.org/2000/svg">
<mask id="mask0_14498_10057" style="mask-type:alpha" maskUnits="userSpaceOnUse" x="0" y="0" width="14" height="14">
<rect width="13.125" height="13.125" fill="#D9D9D9"/>
</mask>
<g mask="url(#mask0_14498_10057)">
<path d="M6.58984 10.9375C5.36849 10.9375 4.32943 10.5137 3.47266 9.66602C2.61589 8.81836 2.1875 7.78385 2.1875 6.5625V6.4668L1.3125 7.3418L0.546875 6.57617L2.73438 4.38867L4.92188 6.57617L4.15625 7.3418L3.28125 6.4668V6.5625C3.28125 7.47396 3.60254 8.2487 4.24512 8.88672C4.8877 9.52474 5.66927 9.84375 6.58984 9.84375C6.82682 9.84375 7.05924 9.81641 7.28711 9.76172C7.51497 9.70703 7.73828 9.625 7.95703 9.51563L8.77734 10.3359C8.43099 10.5365 8.07552 10.6868 7.71094 10.7871C7.34635 10.8874 6.97266 10.9375 6.58984 10.9375ZM10.3906 8.73633L8.20312 6.54883L8.96875 5.7832L9.84375 6.6582V6.5625C9.84375 5.65104 9.52246 4.8763 8.87988 4.23828C8.2373 3.60026 7.45573 3.28125 6.53516 3.28125C6.29818 3.28125 6.06576 3.30859 5.83789 3.36328C5.61003 3.41797 5.38672 3.5 5.16797 3.60938L4.34766 2.78906C4.69401 2.58854 5.04948 2.43815 5.41406 2.33789C5.77865 2.23763 6.15234 2.1875 6.53516 2.1875C7.75651 2.1875 8.79557 2.61133 9.65234 3.45898C10.5091 4.30664 10.9375 5.34115 10.9375 6.5625V6.6582L11.8125 5.7832L12.5781 6.54883L10.3906 8.73633Z" fill="#4F697E"/>
</g>
</svg>
