<svg width="127" height="93" viewBox="0 0 127 93" fill="none" xmlns="http://www.w3.org/2000/svg">
<g clip-path="url(#clip0_15361_8992)">
<path d="M124.711 35.9258H2.28906C1.01577 35.9258 0 36.9567 0 38.2311V87.4731C0 88.7475 1.01577 89.7784 2.28906 89.7784H124.711C125.97 89.7784 127 88.7475 127 87.4731V38.2311C127 36.9567 125.97 35.9258 124.711 35.9258ZM26.9108 67.7563C26.9108 68.5724 26.2384 69.2454 25.4229 69.2454H12.5326C11.7171 69.2454 11.0447 68.5724 11.0447 67.7563V54.8551C11.0447 54.0389 11.7171 53.366 12.5326 53.366H25.4229C26.2384 53.366 26.9108 54.0389 26.9108 54.8551V67.7563ZM48.9001 67.7563C48.9001 68.5724 48.2277 69.2454 47.3979 69.2454H34.5219C33.6921 69.2454 33.0197 68.5724 33.0197 67.7563V54.8551C33.0197 54.0389 33.6921 53.366 34.5219 53.366H47.3979C48.2277 53.366 48.9001 54.0389 48.9001 54.8551V67.7563ZM70.8894 67.7563C70.8894 68.5724 70.2313 69.2454 69.4015 69.2454H56.5112C55.6957 69.2454 55.0233 68.5724 55.0233 67.7563V54.8551C55.0233 54.0389 55.6957 53.366 56.5112 53.366H69.4015C70.2313 53.366 70.8894 54.0389 70.8894 54.8551V67.7563ZM111.592 65.8232C109.102 65.8232 107.085 63.8043 107.085 61.3129C107.085 58.8214 109.102 56.7881 111.592 56.7881C114.081 56.7881 116.098 58.8071 116.098 61.3129C116.098 63.8186 114.081 65.8232 111.592 65.8232Z" fill="#1E76BD"/>
<path d="M22.3021 88.8906H13.2031V93.0001H22.3021V88.8906Z" fill="#1E76BD"/>
<path d="M112.74 88.8906H103.641V93.0001H112.74V88.8906Z" fill="#1E76BD"/>
<path d="M98.8285 51.6189C96.9686 51.6189 91.1172 50.8744 91.1172 49.958L95.4378 1.66097C95.4378 0.744573 96.9686 0 98.8285 0C100.688 0 102.219 0.744573 102.219 1.66097L107.083 49.958C107.083 50.8744 100.688 51.6189 98.8285 51.6189Z" fill="#1E76BD"/>
<path d="M28.43 51.6189C26.5702 51.6189 20.7188 50.8744 20.7188 49.958L25.0394 1.66097C25.0394 0.744573 26.5702 0 28.43 0C30.2899 0 31.8207 0.744573 31.8207 1.66097L36.685 49.958C36.685 50.8744 30.2899 51.6189 28.43 51.6189Z" fill="#1E76BD"/>
</g>
<defs>
<clipPath id="clip0_15361_8992">
<rect width="127" height="93" fill="white"/>
</clipPath>
</defs>
</svg>
