<svg width="171" height="58" viewBox="0 0 171 58" fill="none" xmlns="http://www.w3.org/2000/svg">
<path d="M170.513 2.62464V51.929C170.513 53.205 169.479 54.2372 168.216 54.2372H2.29705C1.01932 54.2372 0 53.205 0 51.929V2.62464C0 1.34866 1.01932 0.316406 2.29705 0.316406H168.216C169.479 0.316406 170.513 1.34866 170.513 2.62464Z" fill="#1E76BD"/>
<path d="M22.3808 53.3633H13.25V57.4779H22.3808V53.3633Z" fill="#1E76BD"/>
<path d="M156.193 53.3633H147.062V57.4779H156.193V53.3633Z" fill="#1E76BD"/>
<path d="M40.0103 0C39.5653 1.87812 37.8855 3.2688 35.8756 3.2688C33.8657 3.2688 32.1573 1.87812 31.7266 0H40.0103Z" fill="white"/>
<path d="M51.3931 0C50.9481 1.87812 49.2396 3.2688 47.2441 3.2688C45.2485 3.2688 43.5544 1.87812 43.1094 0H51.3931Z" fill="white"/>
<path d="M62.7525 0C62.3074 1.87812 60.6277 3.2688 58.6178 3.2688C56.6079 3.2688 54.8994 1.87812 54.4688 0H62.7525Z" fill="white"/>
<path d="M74.1197 0C73.6746 1.87812 71.9949 3.2688 69.985 3.2688C67.9751 3.2688 66.2666 1.87812 65.8359 0H74.1197Z" fill="white"/>
<path d="M85.4869 0C85.0418 1.87812 83.3334 3.2688 81.3378 3.2688C79.3423 3.2688 77.6482 1.87812 77.2031 0H85.4869Z" fill="white"/>
<path d="M96.8541 0C96.409 1.87812 94.7293 3.2688 92.7194 3.2688C90.7094 3.2688 89.001 1.87812 88.5703 0H96.8541Z" fill="white"/>
<path d="M108.237 0C107.792 1.87812 106.083 3.2688 104.088 3.2688C102.092 3.2688 100.398 1.87812 99.9531 0H108.237Z" fill="white"/>
<path d="M119.588 0C119.143 1.87812 117.464 3.2688 115.454 3.2688C113.444 3.2688 111.735 1.87812 111.305 0H119.588Z" fill="white"/>
<path d="M130.963 0C130.518 1.87812 128.81 3.2688 126.814 3.2688C124.819 3.2688 123.125 1.87812 122.68 0H130.963Z" fill="white"/>
<path d="M142.316 0C141.871 1.87812 140.191 3.2688 138.182 3.2688C136.172 3.2688 134.492 1.87812 134.047 0H142.316Z" fill="white"/>
<path d="M68.573 27.2418C70.0374 28.6468 72.1765 28.9049 74.0572 27.9873C75.8375 27.1128 76.8855 25.3063 76.6988 23.2849C76.5266 21.3064 75.4642 19.93 73.6409 19.1989C71.8894 18.4964 70.181 18.7257 68.774 19.9587C67.4532 21.12 62.0264 26.5967 61.1937 27.3995C60.3323 28.2597 59.4997 29.1486 58.3655 29.6647C54.2164 31.5429 49.4501 28.9479 48.9619 24.4031C48.5743 20.8476 51.0436 17.6361 54.4892 17.163C54.4892 17.163 56.0541 16.9336 57.5759 17.077C57.5759 17.077 56.9155 10.5394 63.2611 10.2814C69.621 10.0233 69.6498 16.1595 69.6498 16.1595L68.0275 17.1487C68.0275 17.1487 67.9988 11.8441 63.3903 12.0161C59.7007 12.1595 59.4135 15.6863 59.3561 17.5358L59.2843 18.7974L54.9486 18.8691C52.5941 19.0842 50.5124 21.4211 50.656 23.7723C50.7709 25.7365 51.704 27.2562 53.513 28.059C55.3219 28.8762 57.1452 28.7042 58.6526 27.3565C59.9591 26.1952 66.0175 20.1021 67.1661 18.9981C70.224 16.0448 75.0478 16.5465 77.431 20.0304C79.1825 22.5967 78.7375 26.3529 76.4404 28.4461C73.6553 30.9837 69.6498 30.869 67.0082 28.1881L64.7255 25.5787L65.9745 24.3314L68.573 27.2275V27.2418Z" fill="white"/>
<path d="M11.9233 28.5312H9.10938V43.9003H11.9233V28.5312Z" fill="white"/>
<path d="M15.7855 32.891C15.7855 31.3283 15.7567 30.0523 15.6562 28.805H18.0969L18.2548 31.2996H18.3122C19.0588 29.8659 20.8103 28.4609 23.3083 28.4609C25.4044 28.4609 28.649 29.7082 28.649 34.8838V43.8874H25.9068V35.1992C25.9068 32.762 25.0024 30.7405 22.4182 30.7405C20.6093 30.7405 19.2023 32.0165 18.7429 33.5505C18.6137 33.8946 18.5563 34.3677 18.5563 34.8265V43.8874H15.8142V32.891H15.7855Z" fill="white"/>
<path d="M32.5709 43.9004V34.9829H30.1016V33.5492H32.5709V33.0617C32.5709 31.6137 33.1164 30.2804 34.6095 29.4488C35.8155 28.7607 37.4091 28.4883 38.9022 28.4883C40.0363 28.4883 41.0126 28.6316 41.6299 28.7894L41.1992 30.2374C40.7254 30.1083 40.065 30.008 39.1606 30.008C36.4328 30.008 35.7437 31.413 35.7437 33.0044V33.5635H40.0076V34.9972H35.7437V43.9147H32.5709V43.9004Z" fill="white"/>
<path d="M45.3764 28.5312H42.5625V43.9003H45.3764V28.5312Z" fill="white"/>
<path d="M49.6968 38.0403C49.6968 37.0941 49.6824 36.3056 49.625 35.5887H51.4483L51.5488 36.8217H51.6062C51.9651 36.1765 52.8552 35.4023 54.2335 35.4023C55.6691 35.4023 57.1622 36.3342 57.1622 38.9292V43.8181H55.0805V39.1729C55.0805 37.9973 54.6354 37.0941 53.5013 37.0941C52.6686 37.0941 52.0943 37.6819 51.879 38.3127C51.8072 38.4991 51.7928 38.7572 51.7928 38.9866V43.8181H49.6968V38.0403Z" fill="white"/>
<path d="M62.7869 35.5886L63.7631 37.1369C64.0359 37.5814 64.2656 37.9828 64.5097 38.3986H64.5671C64.7968 37.9398 65.0409 37.524 65.2706 37.0939L66.1894 35.5742H68.4578L65.7013 39.5312L68.5152 43.8036H66.1607L65.1414 42.1692C64.8686 41.7247 64.6389 41.2946 64.3948 40.8358H64.3661C64.1221 41.3089 63.8924 41.7104 63.6196 42.1692L62.6721 43.8036H60.375L63.232 39.6172L60.4755 35.5742H62.7869V35.5886Z" fill="white"/>
<path d="M74.3877 33.25V35.6012H76.369V37.1496H74.3877V40.7768C74.3877 41.7804 74.6605 42.2965 75.4501 42.2965C75.8091 42.2965 76.0818 42.2392 76.2685 42.1962L76.2972 43.7876C75.9957 43.9023 75.4501 43.9883 74.7897 43.9883C74.0288 43.9883 73.3828 43.7302 72.9952 43.3145C72.5501 42.8413 72.3491 42.0958 72.3491 41.0206V37.1496H71.1719V35.6012H72.3491V33.7375L74.3734 33.25H74.3877Z" fill="white"/>
<path d="M108.263 18.7812H95.1981C94.5321 18.7812 93.9922 19.3204 93.9922 19.9855V29.964C93.9922 30.6291 94.5321 31.1683 95.1981 31.1683H108.263C108.929 31.1683 109.469 30.6291 109.469 29.964V19.9855C109.469 19.3204 108.929 18.7812 108.263 18.7812Z" fill="white"/>
<path d="M126.911 18.7812H113.847C113.181 18.7812 112.641 19.3204 112.641 19.9855V29.964C112.641 30.6291 113.181 31.1683 113.847 31.1683H126.911C127.577 31.1683 128.117 30.6291 128.117 29.964V19.9855C128.117 19.3204 127.577 18.7812 126.911 18.7812Z" fill="white"/>
<path d="M144.888 18.7812H131.823C131.157 18.7812 130.617 19.3204 130.617 19.9855V29.964C130.617 30.6291 131.157 31.1683 131.823 31.1683H144.888C145.554 31.1683 146.094 30.6291 146.094 29.964V19.9855C146.094 19.3204 145.554 18.7812 144.888 18.7812Z" fill="white"/>
<path d="M162.989 18.7812H149.925C149.259 18.7812 148.719 19.3204 148.719 19.9855V29.964C148.719 30.6291 149.259 31.1683 149.925 31.1683H162.989C163.655 31.1683 164.195 30.6291 164.195 29.964V19.9855C164.195 19.3204 163.655 18.7812 162.989 18.7812Z" fill="white"/>
<path d="M150.705 47.6708C152.259 47.6708 153.518 46.4127 153.518 44.8608C153.518 43.3089 152.259 42.0508 150.705 42.0508C149.15 42.0508 147.891 43.3089 147.891 44.8608C147.891 46.4127 149.15 47.6708 150.705 47.6708Z" fill="#ED2024"/>
<path d="M160.447 47.6708C162.001 47.6708 163.261 46.4127 163.261 44.8608C163.261 43.3089 162.001 42.0508 160.447 42.0508C158.893 42.0508 157.633 43.3089 157.633 44.8608C157.633 46.4127 158.893 47.6708 160.447 47.6708Z" fill="#74C044"/>
</svg>
