<svg width="15" height="15" viewBox="0 0 15 15" fill="none" xmlns="http://www.w3.org/2000/svg">
<path fill-rule="evenodd" clip-rule="evenodd" d="M14.3538 13.6463L11.2244 10.5175C13.1086 8.25536 12.8803 4.91129 10.7061 2.92623C8.53188 0.941175 5.18089 1.01733 3.09911 3.09911C1.01733 5.18089 0.941175 8.53188 2.92623 10.7061C4.91129 12.8803 8.25536 13.1086 10.5175 11.2244L13.6463 14.3538C13.8416 14.5491 14.1584 14.5491 14.3538 14.3538C14.5491 14.1584 14.5491 13.8416 14.3538 13.6463ZM2.5 7C2.5 4.51472 4.51472 2.5 7 2.5C9.48528 2.5 11.5 4.51472 11.5 7C11.5 9.48528 9.48528 11.5 7 11.5C4.51586 11.4972 2.50276 9.48414 2.5 7Z" fill="#3D404A" stroke="white"/>
</svg>
