<svg width="23" height="22" viewBox="0 0 23 22" fill="none" xmlns="http://www.w3.org/2000/svg">
<path d="M18.4589 8.45165C16.7997 8.45165 16.1214 7.27832 16.9464 5.83915C17.423 5.00498 17.1389 3.94165 16.3047 3.46498L14.7189 2.55748C13.9947 2.12665 13.0597 2.38332 12.6289 3.10748L12.528 3.28165C11.703 4.72082 10.3464 4.72082 9.51219 3.28165L9.41135 3.10748C8.99885 2.38332 8.06385 2.12665 7.33969 2.55748L5.75385 3.46498C4.91969 3.94165 4.63552 5.01415 5.11219 5.84832C5.94635 7.27832 5.26802 8.45165 3.60885 8.45165C2.65552 8.45165 1.86719 9.23081 1.86719 10.1933V11.8066C1.86719 12.76 2.64635 13.5483 3.60885 13.5483C5.26802 13.5483 5.94635 14.7216 5.11219 16.1608C4.63552 16.995 4.91969 18.0583 5.75385 18.535L7.33969 19.4425C8.06385 19.8733 8.99885 19.6166 9.42969 18.8925L9.53052 18.7183C10.3555 17.2791 11.7122 17.2791 12.5464 18.7183L12.6472 18.8925C13.078 19.6166 14.013 19.8733 14.7372 19.4425L16.323 18.535C17.1572 18.0583 17.4414 16.9858 16.9647 16.1608C16.1305 14.7216 16.8089 13.5483 18.468 13.5483C19.4214 13.5483 20.2097 12.7691 20.2097 11.8066V10.1933C20.2005 9.23998 19.4214 8.45165 18.4589 8.45165ZM11.0339 13.9791C9.39302 13.9791 8.05469 12.6408 8.05469 11C8.05469 9.35915 9.39302 8.02082 11.0339 8.02082C12.6747 8.02082 14.013 9.35915 14.013 11C14.013 12.6408 12.6747 13.9791 11.0339 13.9791Z" fill="#4F697E"/>
</svg>
