<svg width="69" height="92" viewBox="0 0 69 92" fill="none" xmlns="http://www.w3.org/2000/svg">
<g clip-path="url(#clip0_15361_9049)">
<path d="M38.8297 0.000437698C40.288 0.122002 41.7462 0.243567 43.1923 0.377288C49.7302 0.98511 56.1952 1.9941 62.2348 4.70498C63.8267 5.42221 65.37 6.35826 66.7311 7.45234C69.7327 9.87147 69.7448 12.8984 66.8526 15.4513C65.9169 16.2658 64.8597 17.0316 63.7417 17.5422C61.6636 18.5026 59.537 19.4264 57.3375 20.0707C48.3084 22.6965 39.0606 23.28 29.7156 22.8667C23.6395 22.5993 17.6363 21.8213 11.7668 20.1194C8.86248 19.2806 6.00672 18.2594 3.51552 16.4846C2.5312 15.7795 1.61979 14.9164 0.878504 13.956C-0.324561 12.3879 -0.239496 10.5765 0.878504 8.94758C1.98435 7.35509 3.53983 6.29748 5.22898 5.42221C9.47009 3.2219 14.0271 2.01841 18.7057 1.30118C22.1934 0.77845 25.7054 0.523165 29.2174 0.146315C29.5455 0.109846 29.8614 0.0490635 30.1774 -0.0117188C33.0453 -0.0117188 35.9254 -0.0117188 38.7933 -0.0117188L38.8297 0.000437698Z" fill="#1E76BD"/>
<path d="M36.5399 69.0117C26.2106 68.9023 17.9714 68.2094 9.98744 65.7295C7.43548 64.9393 4.98074 63.9303 2.79335 62.3621C0.958377 61.0371 -0.0988614 59.3959 -0.00164404 56.989C0.13203 53.9377 0.0469646 50.8864 0.0226603 47.8352C0.0226603 47.0328 0.290008 46.425 1.00699 46.0725C1.72396 45.7199 2.42879 45.8293 3.01209 46.3399C5.8314 48.7834 9.234 49.9747 12.7581 50.8743C20.2925 52.8193 27.9848 53.2083 35.7257 53.1962C43.576 53.1962 51.317 52.3695 58.8027 49.9382C60.8564 49.2696 62.8008 48.2242 64.7694 47.3003C65.219 47.0936 65.5714 46.6925 65.9603 46.3642C66.5315 45.8658 67.1755 45.7321 67.8804 46.0239C68.5852 46.3156 68.9619 46.8505 68.9619 47.6285C68.9619 51.1903 68.9741 54.7522 68.9498 58.314C68.9498 59.4446 68.3543 60.3685 67.5887 61.1586C65.778 63.0429 63.4691 64.1005 61.0873 65.0122C56.5667 66.7384 51.8517 67.6988 47.0515 68.2094C42.8955 68.647 38.703 68.8537 36.5399 69.0117Z" fill="#1E76BD"/>
<path d="M36.6175 92.0003C26.434 91.9031 18.4014 91.2345 10.5876 88.9126C7.82903 88.0981 5.13125 87.0891 2.81018 85.3386C2.05675 84.7672 1.33977 84.0865 0.817228 83.3085C0.391902 82.6763 0.10025 81.8254 0.0880976 81.0595C0.0151846 77.6192 0.0637933 74.179 0.0516411 70.7265C0.0516411 69.9607 0.355445 69.3893 1.03597 69.049C1.71649 68.7086 2.39701 68.7694 2.96816 69.2678C6.20064 72.0638 10.1258 73.3037 14.1725 74.1911C23.7484 76.2942 33.4458 76.5616 43.1797 75.8566C49.0127 75.4311 54.7485 74.4343 60.2656 72.4406C62.3801 71.6747 64.446 70.8238 66.123 69.2435C66.6455 68.745 67.3868 68.6478 67.9579 69.0733C68.4076 69.4136 68.9301 70.0215 68.9423 70.5199C69.0273 74.106 69.003 77.7043 68.9666 81.2905C68.9544 82.494 68.2982 83.4422 67.4719 84.2688C65.9285 85.8249 64.0085 86.8217 62.0155 87.6362C57.2154 89.6055 52.1844 90.6388 47.0684 91.1858C42.9123 91.6356 38.7198 91.8301 36.6175 91.9882V92.0003Z" fill="#1E76BD"/>
<path d="M34.5868 46.1216C27.1375 45.9392 19.7612 45.3436 12.5428 43.4715C9.29816 42.6327 6.12644 41.5629 3.29499 39.703C1.14406 38.2928 -0.131922 36.5058 0.00175225 33.7585C0.15973 30.768 0.0503609 27.7775 0.0260566 24.7749C0.0260566 24.009 0.305556 23.4376 0.973926 23.073C1.67875 22.6961 2.39573 22.7812 2.97903 23.2918C6.19936 26.0513 10.1002 27.2548 14.1104 28.1908C21.742 29.9535 29.5072 30.2939 37.2968 30.1602C45.1714 30.0264 52.9123 29.0661 60.3737 26.4038C62.4274 25.6744 64.4325 24.8113 66.0609 23.2675C66.5835 22.769 67.2518 22.7326 67.9081 23.0243C68.5521 23.3161 68.9531 23.8145 68.9531 24.556C68.9531 28.1422 68.9774 31.7405 68.9288 35.3267C68.9167 36.4937 68.2726 37.4176 67.4827 38.232C65.6721 40.0677 63.3996 41.1253 61.0299 42.0127C55.9868 43.9091 50.7249 44.8695 45.3901 45.38C41.793 45.7204 38.1717 45.8663 34.5625 46.0973L34.5868 46.1216Z" fill="#1E76BD"/>
</g>
<defs>
<clipPath id="clip0_15361_9049">
<rect width="69" height="92" fill="white"/>
</clipPath>
</defs>
</svg>
