<svg width="183" height="62" viewBox="0 0 183 62" fill="none" xmlns="http://www.w3.org/2000/svg">
<g clip-path="url(#clip0_15361_8981)">
<path d="M16.8123 9.8125H16.2422V20.4957H16.8123V9.8125Z" fill="#1E76BD"/>
<path d="M19.3357 9.8125H18.7656V20.4957H19.3357V9.8125Z" fill="#1E76BD"/>
<path d="M21.867 9.8125H21.2969V20.4957H21.867V9.8125Z" fill="#1E76BD"/>
<path d="M24.3904 9.8125H23.8203V20.4957H24.3904V9.8125Z" fill="#1E76BD"/>
<path d="M26.9214 9.8125H26.3359V20.4957H26.9214V9.8125Z" fill="#1E76BD"/>
<path d="M29.4449 9.8125H28.8594V20.4957H29.4449V9.8125Z" fill="#1E76BD"/>
<path d="M16.24 33.1849V43.8681H16.8101V33.1849H16.24ZM18.7669 33.1849V43.8681H19.337V33.1849H18.7669ZM21.2938 33.1849V43.8681H21.8639V33.1849H21.2938ZM23.8207 33.1849V43.8681H24.3908V33.1849H23.8207ZM26.3322 33.1849V43.8681H26.9177V33.1849H26.3322ZM28.8591 33.1849V43.8681H29.4446V33.1849H28.8591ZM42.5875 33.1849V43.8681H43.1576V33.1849H42.5875ZM45.1144 33.1849V43.8681H45.6845V33.1849H45.1144ZM47.6413 33.1849V43.8681H48.2114V33.1849H47.6413ZM50.1682 33.1849V43.8681H50.7383V33.1849H50.1682ZM52.6797 33.1849V43.8681H53.2652V33.1849H52.6797ZM55.2066 33.1849V43.8681H55.7921V33.1849H55.2066ZM55.2066 33.1849V43.8681H55.7921V33.1849H55.2066ZM52.6797 33.1849V43.8681H53.2652V33.1849H52.6797ZM50.1682 33.1849V43.8681H50.7383V33.1849H50.1682ZM47.6413 33.1849V43.8681H48.2114V33.1849H47.6413ZM45.1144 33.1849V43.8681H45.6845V33.1849H45.1144ZM42.5875 33.1849V43.8681H43.1576V33.1849H42.5875ZM28.8591 33.1849V43.8681H29.4446V33.1849H28.8591ZM26.3322 33.1849V43.8681H26.9177V33.1849H26.3322ZM23.8207 33.1849V43.8681H24.3908V33.1849H23.8207ZM21.2938 33.1849V43.8681H21.8639V33.1849H21.2938ZM18.7669 33.1849V43.8681H19.337V33.1849H18.7669ZM16.24 33.1849V43.8681H16.8101V33.1849H16.24ZM16.24 33.1849V43.8681H16.8101V33.1849H16.24ZM18.7669 33.1849V43.8681H19.337V33.1849H18.7669ZM21.2938 33.1849V43.8681H21.8639V33.1849H21.2938ZM23.8207 33.1849V43.8681H24.3908V33.1849H23.8207ZM26.3322 33.1849V43.8681H26.9177V33.1849H26.3322ZM28.8591 33.1849V43.8681H29.4446V33.1849H28.8591ZM42.5875 9.81239V20.4956H43.1576V9.81239H42.5875ZM42.5875 33.1849V43.8681H43.1576V33.1849H42.5875ZM45.1144 9.81239V20.4956H45.6845V9.81239H45.1144ZM45.1144 33.1849V43.8681H45.6845V33.1849H45.1144ZM47.6413 9.81239V20.4956H48.2114V9.81239H47.6413ZM47.6413 33.1849V43.8681H48.2114V33.1849H47.6413ZM50.1682 9.81239V20.4956H50.7383V9.81239H50.1682ZM50.1682 33.1849V43.8681H50.7383V33.1849H50.1682ZM52.6797 9.81239V20.4956H53.2652V9.81239H52.6797ZM52.6797 33.1849V43.8681H53.2652V33.1849H52.6797ZM55.2066 9.81239V20.4956H55.7921V9.81239H55.2066ZM55.2066 33.1849V43.8681H55.7921V33.1849H55.2066ZM68.9351 9.81239V20.4956H69.5052V9.81239H68.9351ZM71.462 9.81239V20.4956H72.0321V9.81239H71.462ZM73.9889 9.81239V20.4956H74.559V9.81239H73.9889ZM76.5158 9.81239V20.4956H77.0859V9.81239H76.5158ZM79.0273 9.81239V20.4956H79.6128V9.81239H79.0273ZM81.5542 9.81239V20.4956H82.1397V9.81239H81.5542ZM81.5542 9.81239V20.4956H82.1397V9.81239H81.5542ZM79.0273 9.81239V20.4956H79.6128V9.81239H79.0273ZM76.5158 9.81239V20.4956H77.0859V9.81239H76.5158ZM73.9889 9.81239V20.4956H74.559V9.81239H73.9889ZM71.462 9.81239V20.4956H72.0321V9.81239H71.462ZM68.9351 9.81239V20.4956H69.5052V9.81239H68.9351ZM55.2066 9.81239V20.4956H55.7921V9.81239H55.2066ZM52.6797 9.81239V20.4956H53.2652V9.81239H52.6797ZM50.1682 9.81239V20.4956H50.7383V9.81239H50.1682ZM47.6413 9.81239V20.4956H48.2114V9.81239H47.6413ZM45.1144 9.81239V20.4956H45.6845V9.81239H45.1144ZM42.5875 9.81239V20.4956H43.1576V9.81239H42.5875ZM55.2066 33.1849V43.8681H55.7921V33.1849H55.2066ZM52.6797 33.1849V43.8681H53.2652V33.1849H52.6797ZM50.1682 33.1849V43.8681H50.7383V33.1849H50.1682ZM47.6413 33.1849V43.8681H48.2114V33.1849H47.6413ZM45.1144 33.1849V43.8681H45.6845V33.1849H45.1144ZM42.5875 33.1849V43.8681H43.1576V33.1849H42.5875ZM28.8591 33.1849V43.8681H29.4446V33.1849H28.8591ZM26.3322 33.1849V43.8681H26.9177V33.1849H26.3322ZM23.8207 33.1849V43.8681H24.3908V33.1849H23.8207ZM21.2938 33.1849V43.8681H21.8639V33.1849H21.2938ZM18.7669 33.1849V43.8681H19.337V33.1849H18.7669ZM16.24 33.1849V43.8681H16.8101V33.1849H16.24ZM16.24 33.1849V43.8681H16.8101V33.1849H16.24ZM18.7669 33.1849V43.8681H19.337V33.1849H18.7669ZM21.2938 33.1849V43.8681H21.8639V33.1849H21.2938ZM23.8207 33.1849V43.8681H24.3908V33.1849H23.8207ZM26.3322 33.1849V43.8681H26.9177V33.1849H26.3322ZM28.8591 33.1849V43.8681H29.4446V33.1849H28.8591ZM42.5875 9.81239V20.4956H43.1576V9.81239H42.5875ZM42.5875 33.1849V43.8681H43.1576V33.1849H42.5875ZM45.1144 9.81239V20.4956H45.6845V9.81239H45.1144ZM45.1144 33.1849V43.8681H45.6845V33.1849H45.1144ZM47.6413 9.81239V20.4956H48.2114V9.81239H47.6413ZM47.6413 33.1849V43.8681H48.2114V33.1849H47.6413ZM50.1682 9.81239V20.4956H50.7383V9.81239H50.1682ZM50.1682 33.1849V43.8681H50.7383V33.1849H50.1682ZM52.6797 9.81239V20.4956H53.2652V9.81239H52.6797ZM52.6797 33.1849V43.8681H53.2652V33.1849H52.6797ZM55.2066 9.81239V20.4956H55.7921V9.81239H55.2066ZM55.2066 33.1849V43.8681H55.7921V33.1849H55.2066ZM68.9351 9.81239V20.4956H69.5052V9.81239H68.9351ZM68.9351 33.1849V43.8681H69.5052V33.1849H68.9351ZM71.462 9.81239V20.4956H72.0321V9.81239H71.462ZM71.462 33.1849V43.8681H72.0321V33.1849H71.462ZM73.9889 9.81239V20.4956H74.559V9.81239H73.9889ZM73.9889 33.1849V43.8681H74.559V33.1849H73.9889ZM76.5158 9.81239V20.4956H77.0859V9.81239H76.5158ZM76.5158 33.1849V43.8681H77.0859V33.1849H76.5158ZM79.0273 9.81239V20.4956H79.6128V9.81239H79.0273ZM79.0273 33.1849V43.8681H79.6128V33.1849H79.0273ZM81.5542 9.81239V20.4956H82.1397V9.81239H81.5542ZM81.5542 33.1849V43.8681H82.1397V33.1849H81.5542ZM95.2827 33.1849V43.8681H95.8527V33.1849H95.2827ZM97.8095 33.1849V43.8681H98.3796V33.1849H97.8095ZM100.336 33.1849V43.8681H100.907V33.1849H100.336ZM102.863 33.1849V43.8681H103.433V33.1849H102.863ZM105.375 33.1849V43.8681H105.96V33.1849H105.375ZM107.902 33.1849V43.8681H108.487V33.1849H107.902ZM107.902 33.1849V43.8681H108.487V33.1849H107.902ZM105.375 33.1849V43.8681H105.96V33.1849H105.375ZM102.863 33.1849V43.8681H103.433V33.1849H102.863ZM100.336 33.1849V43.8681H100.907V33.1849H100.336ZM97.8095 33.1849V43.8681H98.3796V33.1849H97.8095ZM95.2827 33.1849V43.8681H95.8527V33.1849H95.2827ZM81.5542 9.81239V20.4956H82.1397V9.81239H81.5542ZM79.0273 9.81239V20.4956H79.6128V9.81239H79.0273ZM76.5158 9.81239V20.4956H77.0859V9.81239H76.5158ZM73.9889 9.81239V20.4956H74.559V9.81239H73.9889ZM71.462 9.81239V20.4956H72.0321V9.81239H71.462ZM68.9351 9.81239V20.4956H69.5052V9.81239H68.9351ZM81.5542 33.1849V43.8681H82.1397V33.1849H81.5542ZM79.0273 33.1849V43.8681H79.6128V33.1849H79.0273ZM76.5158 33.1849V43.8681H77.0859V33.1849H76.5158ZM73.9889 33.1849V43.8681H74.559V33.1849H73.9889ZM71.462 33.1849V43.8681H72.0321V33.1849H71.462ZM68.9351 33.1849V43.8681H69.5052V33.1849H68.9351ZM55.2066 9.81239V20.4956H55.7921V9.81239H55.2066ZM52.6797 9.81239V20.4956H53.2652V9.81239H52.6797ZM50.1682 9.81239V20.4956H50.7383V9.81239H50.1682ZM47.6413 9.81239V20.4956H48.2114V9.81239H47.6413ZM45.1144 9.81239V20.4956H45.6845V9.81239H45.1144ZM42.5875 9.81239V20.4956H43.1576V9.81239H42.5875ZM55.2066 33.1849V43.8681H55.7921V33.1849H55.2066ZM52.6797 33.1849V43.8681H53.2652V33.1849H52.6797ZM50.1682 33.1849V43.8681H50.7383V33.1849H50.1682ZM47.6413 33.1849V43.8681H48.2114V33.1849H47.6413ZM45.1144 33.1849V43.8681H45.6845V33.1849H45.1144ZM42.5875 33.1849V43.8681H43.1576V33.1849H42.5875ZM28.8591 33.1849V43.8681H29.4446V33.1849H28.8591ZM26.3322 33.1849V43.8681H26.9177V33.1849H26.3322ZM23.8207 33.1849V43.8681H24.3908V33.1849H23.8207ZM21.2938 33.1849V43.8681H21.8639V33.1849H21.2938ZM18.7669 33.1849V43.8681H19.337V33.1849H18.7669ZM16.24 33.1849V43.8681H16.8101V33.1849H16.24ZM16.24 33.1849V43.8681H16.8101V33.1849H16.24ZM18.7669 33.1849V43.8681H19.337V33.1849H18.7669ZM21.2938 33.1849V43.8681H21.8639V33.1849H21.2938ZM23.8207 33.1849V43.8681H24.3908V33.1849H23.8207ZM26.3322 33.1849V43.8681H26.9177V33.1849H26.3322ZM28.8591 33.1849V43.8681H29.4446V33.1849H28.8591ZM42.5875 9.81239V20.4956H43.1576V9.81239H42.5875ZM42.5875 33.1849V43.8681H43.1576V33.1849H42.5875ZM45.1144 9.81239V20.4956H45.6845V9.81239H45.1144ZM45.1144 33.1849V43.8681H45.6845V33.1849H45.1144ZM47.6413 9.81239V20.4956H48.2114V9.81239H47.6413ZM47.6413 33.1849V43.8681H48.2114V33.1849H47.6413ZM50.1682 9.81239V20.4956H50.7383V9.81239H50.1682ZM50.1682 33.1849V43.8681H50.7383V33.1849H50.1682ZM52.6797 9.81239V20.4956H53.2652V9.81239H52.6797ZM52.6797 33.1849V43.8681H53.2652V33.1849H52.6797ZM55.2066 9.81239V20.4956H55.7921V9.81239H55.2066ZM55.2066 33.1849V43.8681H55.7921V33.1849H55.2066ZM68.9351 9.81239V20.4956H69.5052V9.81239H68.9351ZM68.9351 33.1849V43.8681H69.5052V33.1849H68.9351ZM71.462 9.81239V20.4956H72.0321V9.81239H71.462ZM71.462 33.1849V43.8681H72.0321V33.1849H71.462ZM73.9889 9.81239V20.4956H74.559V9.81239H73.9889ZM73.9889 33.1849V43.8681H74.559V33.1849H73.9889ZM76.5158 9.81239V20.4956H77.0859V9.81239H76.5158ZM76.5158 33.1849V43.8681H77.0859V33.1849H76.5158ZM79.0273 9.81239V20.4956H79.6128V9.81239H79.0273ZM79.0273 33.1849V43.8681H79.6128V33.1849H79.0273ZM81.5542 9.81239V20.4956H82.1397V9.81239H81.5542ZM81.5542 33.1849V43.8681H82.1397V33.1849H81.5542ZM95.2827 9.81239V20.4956H95.8527V9.81239H95.2827ZM95.2827 33.1849V43.8681H95.8527V33.1849H95.2827ZM97.8095 9.81239V20.4956H98.3796V9.81239H97.8095ZM97.8095 33.1849V43.8681H98.3796V33.1849H97.8095ZM100.336 9.81239V20.4956H100.907V9.81239H100.336ZM100.336 33.1849V43.8681H100.907V33.1849H100.336ZM102.863 9.81239V20.4956H103.433V9.81239H102.863ZM102.863 33.1849V43.8681H103.433V33.1849H102.863ZM105.375 9.81239V20.4956H105.96V9.81239H105.375ZM105.375 33.1849V43.8681H105.96V33.1849H105.375ZM107.902 9.81239V20.4956H108.487V9.81239H107.902ZM107.902 33.1849V43.8681H108.487V33.1849H107.902ZM121.63 9.81239V20.4956H122.2V9.81239H121.63ZM124.157 9.81239V20.4956H124.727V9.81239H124.157ZM126.684 9.81239V20.4956H127.254V9.81239H126.684ZM129.211 9.81239V20.4956H129.781V9.81239H129.211ZM131.722 9.81239V20.4956H132.308V9.81239H131.722ZM134.249 9.81239V20.4956H134.835V9.81239H134.249ZM134.249 9.81239V20.4956H134.835V9.81239H134.249ZM131.722 9.81239V20.4956H132.308V9.81239H131.722ZM129.211 9.81239V20.4956H129.781V9.81239H129.211ZM126.684 9.81239V20.4956H127.254V9.81239H126.684ZM124.157 9.81239V20.4956H124.727V9.81239H124.157ZM121.63 9.81239V20.4956H122.2V9.81239H121.63ZM107.902 9.81239V20.4956H108.487V9.81239H107.902ZM105.375 9.81239V20.4956H105.96V9.81239H105.375ZM102.863 9.81239V20.4956H103.433V9.81239H102.863ZM100.336 9.81239V20.4956H100.907V9.81239H100.336ZM97.8095 9.81239V20.4956H98.3796V9.81239H97.8095ZM95.2827 9.81239V20.4956H95.8527V9.81239H95.2827ZM107.902 33.1849V43.8681H108.487V33.1849H107.902ZM105.375 33.1849V43.8681H105.96V33.1849H105.375ZM102.863 33.1849V43.8681H103.433V33.1849H102.863ZM100.336 33.1849V43.8681H100.907V33.1849H100.336ZM97.8095 33.1849V43.8681H98.3796V33.1849H97.8095ZM95.2827 33.1849V43.8681H95.8527V33.1849H95.2827ZM81.5542 9.81239V20.4956H82.1397V9.81239H81.5542ZM79.0273 9.81239V20.4956H79.6128V9.81239H79.0273ZM76.5158 9.81239V20.4956H77.0859V9.81239H76.5158ZM73.9889 9.81239V20.4956H74.559V9.81239H73.9889ZM71.462 9.81239V20.4956H72.0321V9.81239H71.462ZM68.9351 9.81239V20.4956H69.5052V9.81239H68.9351ZM81.5542 33.1849V43.8681H82.1397V33.1849H81.5542ZM79.0273 33.1849V43.8681H79.6128V33.1849H79.0273ZM76.5158 33.1849V43.8681H77.0859V33.1849H76.5158ZM73.9889 33.1849V43.8681H74.559V33.1849H73.9889ZM71.462 33.1849V43.8681H72.0321V33.1849H71.462ZM68.9351 33.1849V43.8681H69.5052V33.1849H68.9351ZM55.2066 9.81239V20.4956H55.7921V9.81239H55.2066ZM52.6797 9.81239V20.4956H53.2652V9.81239H52.6797ZM50.1682 9.81239V20.4956H50.7383V9.81239H50.1682ZM47.6413 9.81239V20.4956H48.2114V9.81239H47.6413ZM45.1144 9.81239V20.4956H45.6845V9.81239H45.1144ZM42.5875 9.81239V20.4956H43.1576V9.81239H42.5875ZM55.2066 33.1849V43.8681H55.7921V33.1849H55.2066ZM52.6797 33.1849V43.8681H53.2652V33.1849H52.6797ZM50.1682 33.1849V43.8681H50.7383V33.1849H50.1682ZM47.6413 33.1849V43.8681H48.2114V33.1849H47.6413ZM45.1144 33.1849V43.8681H45.6845V33.1849H45.1144ZM42.5875 33.1849V43.8681H43.1576V33.1849H42.5875ZM28.8591 33.1849V43.8681H29.4446V33.1849H28.8591ZM26.3322 33.1849V43.8681H26.9177V33.1849H26.3322ZM23.8207 33.1849V43.8681H24.3908V33.1849H23.8207ZM21.2938 33.1849V43.8681H21.8639V33.1849H21.2938ZM18.7669 33.1849V43.8681H19.337V33.1849H18.7669ZM16.24 33.1849V43.8681H16.8101V33.1849H16.24ZM16.24 33.1849V43.8681H16.8101V33.1849H16.24ZM18.7669 33.1849V43.8681H19.337V33.1849H18.7669ZM21.2938 33.1849V43.8681H21.8639V33.1849H21.2938ZM23.8207 33.1849V43.8681H24.3908V33.1849H23.8207ZM26.3322 33.1849V43.8681H26.9177V33.1849H26.3322ZM28.8591 33.1849V43.8681H29.4446V33.1849H28.8591ZM42.5875 9.81239V20.4956H43.1576V9.81239H42.5875ZM42.5875 33.1849V43.8681H43.1576V33.1849H42.5875ZM45.1144 9.81239V20.4956H45.6845V9.81239H45.1144ZM45.1144 33.1849V43.8681H45.6845V33.1849H45.1144ZM47.6413 9.81239V20.4956H48.2114V9.81239H47.6413ZM47.6413 33.1849V43.8681H48.2114V33.1849H47.6413ZM50.1682 9.81239V20.4956H50.7383V9.81239H50.1682ZM50.1682 33.1849V43.8681H50.7383V33.1849H50.1682ZM52.6797 9.81239V20.4956H53.2652V9.81239H52.6797ZM52.6797 33.1849V43.8681H53.2652V33.1849H52.6797ZM55.2066 9.81239V20.4956H55.7921V9.81239H55.2066ZM55.2066 33.1849V43.8681H55.7921V33.1849H55.2066ZM68.9351 9.81239V20.4956H69.5052V9.81239H68.9351ZM68.9351 33.1849V43.8681H69.5052V33.1849H68.9351ZM71.462 9.81239V20.4956H72.0321V9.81239H71.462ZM71.462 33.1849V43.8681H72.0321V33.1849H71.462ZM73.9889 9.81239V20.4956H74.559V9.81239H73.9889ZM73.9889 33.1849V43.8681H74.559V33.1849H73.9889ZM76.5158 9.81239V20.4956H77.0859V9.81239H76.5158ZM76.5158 33.1849V43.8681H77.0859V33.1849H76.5158ZM79.0273 9.81239V20.4956H79.6128V9.81239H79.0273ZM79.0273 33.1849V43.8681H79.6128V33.1849H79.0273ZM81.5542 9.81239V20.4956H82.1397V9.81239H81.5542ZM81.5542 33.1849V43.8681H82.1397V33.1849H81.5542ZM95.2827 9.81239V20.4956H95.8527V9.81239H95.2827ZM95.2827 33.1849V43.8681H95.8527V33.1849H95.2827ZM97.8095 9.81239V20.4956H98.3796V9.81239H97.8095ZM97.8095 33.1849V43.8681H98.3796V33.1849H97.8095ZM100.336 9.81239V20.4956H100.907V9.81239H100.336ZM100.336 33.1849V43.8681H100.907V33.1849H100.336ZM102.863 9.81239V20.4956H103.433V9.81239H102.863ZM102.863 33.1849V43.8681H103.433V33.1849H102.863ZM105.375 9.81239V20.4956H105.96V9.81239H105.375ZM105.375 33.1849V43.8681H105.96V33.1849H105.375ZM107.902 9.81239V20.4956H108.487V9.81239H107.902ZM107.902 33.1849V43.8681H108.487V33.1849H107.902ZM121.63 9.81239V20.4956H122.2V9.81239H121.63ZM121.63 33.1849V43.8681H122.2V33.1849H121.63ZM124.157 9.81239V20.4956H124.727V9.81239H124.157ZM124.157 33.1849V43.8681H124.727V33.1849H124.157ZM126.684 9.81239V20.4956H127.254V9.81239H126.684ZM126.684 33.1849V43.8681H127.254V33.1849H126.684ZM129.211 9.81239V20.4956H129.781V9.81239H129.211ZM129.211 33.1849V43.8681H129.781V33.1849H129.211ZM131.722 9.81239V20.4956H132.308V9.81239H131.722ZM131.722 33.1849V43.8681H132.308V33.1849H131.722ZM134.249 9.81239V20.4956H134.835V9.81239H134.249ZM134.249 33.1849V43.8681H134.835V33.1849H134.249ZM147.962 9.81239V20.4956H148.532V9.81239H147.962ZM150.489 9.81239V20.4956H151.059V9.81239H150.489ZM153.016 9.81239V20.4956H153.586V9.81239H153.016ZM155.543 9.81239V20.4956H156.113V9.81239H155.543ZM158.055 9.81239V20.4956H158.64V9.81239H158.055ZM160.581 9.81239V20.4956H161.167V9.81239H160.581ZM134.249 9.81239V20.4956H134.835V9.81239H134.249ZM131.722 20.4956H132.308V9.81239H131.722V20.4956ZM129.211 20.4956H129.781V9.81239H129.211V20.4956ZM126.684 20.4956H127.254V9.81239H126.684V20.4956ZM124.157 20.4956H124.727V9.81239H124.157V20.4956ZM121.63 20.4956H122.2V9.81239H121.63V20.4956ZM134.249 33.1849V43.8681H134.835V33.1849H134.249ZM131.722 43.8681H132.308V33.1849H131.722V43.8681ZM129.211 43.8681H129.781V33.1849H129.211V43.8681ZM126.684 43.8681H127.254V33.1849H126.684V43.8681ZM124.157 43.8681H124.727V33.1849H124.157V43.8681ZM121.63 43.8681H122.2V33.1849H121.63V43.8681ZM107.902 9.81239V20.4956H108.487V9.81239H107.902ZM105.375 20.4956H105.96V9.81239H105.375V20.4956ZM102.863 20.4956H103.433V9.81239H102.863V20.4956ZM100.336 20.4956H100.907V9.81239H100.336V20.4956ZM97.8095 20.4956H98.3796V9.81239H97.8095V20.4956ZM95.2827 20.4956H95.8527V9.81239H95.2827V20.4956ZM107.902 33.1849V43.8681H108.487V33.1849H107.902ZM105.375 43.8681H105.96V33.1849H105.375V43.8681ZM102.863 43.8681H103.433V33.1849H102.863V43.8681ZM100.336 43.8681H100.907V33.1849H100.336V43.8681ZM97.8095 43.8681H98.3796V33.1849H97.8095V43.8681ZM95.2827 43.8681H95.8527V33.1849H95.2827V43.8681ZM81.5542 9.81239V20.4956H82.1397V9.81239H81.5542ZM79.0273 20.4956H79.6128V9.81239H79.0273V20.4956ZM76.5158 20.4956H77.0859V9.81239H76.5158V20.4956ZM73.9889 20.4956H74.559V9.81239H73.9889V20.4956ZM71.462 20.4956H72.0321V9.81239H71.462V20.4956ZM68.9351 20.4956H69.5052V9.81239H68.9351V20.4956ZM81.5542 33.1849V43.8681H82.1397V33.1849H81.5542ZM79.0273 43.8681H79.6128V33.1849H79.0273V43.8681ZM76.5158 43.8681H77.0859V33.1849H76.5158V43.8681ZM73.9889 43.8681H74.559V33.1849H73.9889V43.8681ZM71.462 43.8681H72.0321V33.1849H71.462V43.8681ZM68.9351 43.8681H69.5052V33.1849H68.9351V43.8681ZM55.2066 9.81239V20.4956H55.7921V9.81239H55.2066ZM52.6797 20.4956H53.2652V9.81239H52.6797V20.4956ZM50.1682 20.4956H50.7383V9.81239H50.1682V20.4956ZM47.6413 20.4956H48.2114V9.81239H47.6413V20.4956ZM45.1144 20.4956H45.6845V9.81239H45.1144V20.4956ZM42.5875 20.4956H43.1576V9.81239H42.5875V20.4956ZM55.2066 33.1849V43.8681H55.7921V33.1849H55.2066ZM52.6797 43.8681H53.2652V33.1849H52.6797V43.8681ZM50.1682 43.8681H50.7383V33.1849H50.1682V43.8681ZM47.6413 43.8681H48.2114V33.1849H47.6413V43.8681ZM45.1144 43.8681H45.6845V33.1849H45.1144V43.8681ZM42.5875 43.8681H43.1576V33.1849H42.5875V43.8681ZM28.8591 33.1849V43.8681H29.4446V33.1849H28.8591ZM26.3322 43.8681H26.9177V33.1849H26.3322V43.8681ZM23.8207 43.8681H24.3908V33.1849H23.8207V43.8681ZM21.2938 43.8681H21.8639V33.1849H21.2938V43.8681ZM18.7669 43.8681H19.337V33.1849H18.7669V43.8681ZM16.24 43.8681H16.8101V33.1849H16.24V43.8681ZM160.581 9.81239V20.4956H161.167V9.81239H160.581ZM158.055 20.4956H158.64V9.81239H158.055V20.4956ZM155.543 20.4956H156.113V9.81239H155.543V20.4956ZM153.016 20.4956H153.586V9.81239H153.016V20.4956ZM150.489 20.4956H151.059V9.81239H150.489V20.4956ZM147.962 20.4956H148.532V9.81239H147.962V20.4956ZM180.535 0H2.46527C1.09396 0 0 1.11964 0 2.50364V55.9819C0 57.3659 1.09396 58.4856 2.46527 58.4856H180.535C181.891 58.4856 183 57.3659 183 55.9819V2.50364C183 1.11964 181.891 0 180.535 0ZM146.329 9.67243C146.329 8.94156 146.899 8.36619 147.623 8.36619H161.629C162.353 8.36619 162.923 8.94156 162.923 9.67243V20.4956C162.923 21.2109 162.353 21.8019 161.629 21.8019H158.394V22.5016H150.844V21.8019H147.623C146.899 21.8019 146.329 21.2109 146.329 20.4956V9.67243ZM31.2011 43.8681C31.2011 44.5834 30.631 45.1743 29.9068 45.1743H26.6711V45.8741H19.1212V45.1743H15.901C15.1768 45.1743 14.6067 44.5834 14.6067 43.8681V33.0449C14.6067 32.314 15.1768 31.7387 15.901 31.7387H29.9068C30.631 31.7387 31.2011 32.314 31.2011 33.0449V43.8681ZM31.2011 20.4956C31.2011 21.2109 30.631 21.8019 29.9068 21.8019H26.6711V22.5016H19.1212V21.8019H15.901C15.1768 21.8019 14.6067 21.2109 14.6067 20.4956V9.67243C14.6067 8.94156 15.1768 8.36619 15.901 8.36619H29.9068C30.631 8.36619 31.2011 8.94156 31.2011 9.67243V20.4956ZM57.5486 43.8681C57.5486 44.5834 56.9785 45.1743 56.2544 45.1743H53.0187V45.8741H45.4688V45.1743H42.2486C41.5244 45.1743 40.9543 44.5834 40.9543 43.8681V33.0449C40.9543 32.314 41.5244 31.7387 42.2486 31.7387H56.2544C56.9785 31.7387 57.5486 32.314 57.5486 33.0449V43.8681ZM57.5486 20.4956C57.5486 21.2109 56.9785 21.8019 56.2544 21.8019H53.0187V22.5016H45.4688V21.8019H42.2486C41.5244 21.8019 40.9543 21.2109 40.9543 20.4956V9.67243C40.9543 8.94156 41.5244 8.36619 42.2486 8.36619H56.2544C56.9785 8.36619 57.5486 8.94156 57.5486 9.67243V20.4956ZM83.8962 43.8681C83.8962 44.5834 83.3261 45.1743 82.6019 45.1743H79.3663V45.8741H71.8164V45.1743H68.5961C67.8719 45.1743 67.3018 44.5834 67.3018 43.8681V33.0449C67.3018 32.314 67.8719 31.7387 68.5961 31.7387H82.6019C83.3261 31.7387 83.8962 32.314 83.8962 33.0449V43.8681ZM83.8962 20.4956C83.8962 21.2109 83.3261 21.8019 82.6019 21.8019H79.3663V22.5016H71.8164V21.8019H68.5961C67.8719 21.8019 67.3018 21.2109 67.3018 20.4956V9.67243C67.3018 8.94156 67.8719 8.36619 68.5961 8.36619H82.6019C83.3261 8.36619 83.8962 8.94156 83.8962 9.67243V20.4956ZM110.244 43.8681C110.244 44.5834 109.674 45.1743 108.949 45.1743H105.714V45.8741H98.1639V45.1743H94.9437C94.2195 45.1743 93.6494 44.5834 93.6494 43.8681V33.0449C93.6494 32.314 94.2195 31.7387 94.9437 31.7387H108.949C109.674 31.7387 110.244 32.314 110.244 33.0449V43.8681ZM110.244 20.4956C110.244 21.2109 109.674 21.8019 108.949 21.8019H105.714V22.5016H98.1639V21.8019H94.9437C94.2195 21.8019 93.6494 21.2109 93.6494 20.4956V9.67243C93.6494 8.94156 94.2195 8.36619 94.9437 8.36619H108.949C109.674 8.36619 110.244 8.94156 110.244 9.67243V20.4956ZM136.591 43.8681C136.591 44.5834 136.021 45.1743 135.297 45.1743H132.061V45.8741H124.511V45.1743H121.291C120.567 45.1743 119.997 44.5834 119.997 43.8681V33.0449C119.997 32.314 120.567 31.7387 121.291 31.7387H135.297C136.021 31.7387 136.591 32.314 136.591 33.0449V43.8681ZM136.591 20.4956C136.591 21.2109 136.021 21.8019 135.297 21.8019H132.061V22.5016H124.511V21.8019H121.291C120.567 21.8019 119.997 21.2109 119.997 20.4956V9.67243C119.997 8.94156 120.567 8.36619 121.291 8.36619H135.297C136.021 8.36619 136.591 8.94156 136.591 9.67243V20.4956ZM150.844 45.8741V45.1743H147.623C146.899 45.1743 146.329 44.5834 146.329 43.8681V33.0449C146.329 32.314 146.899 31.7387 147.623 31.7387H161.629C162.353 31.7387 162.923 32.314 162.923 33.0449V43.8681C162.923 44.5834 162.353 45.1743 161.629 45.1743H158.394V45.8741H150.844ZM161.167 33.1849H160.581V43.8681H161.167V33.1849ZM161.167 9.81239H160.581V20.4956H161.167V9.81239ZM158.64 33.1849H158.055V43.8681H158.64V33.1849ZM158.64 9.81239H158.055V20.4956H158.64V9.81239ZM155.543 43.8681H156.113V33.1849H155.543V43.8681ZM156.113 9.81239H155.543V20.4956H156.113V9.81239ZM153.016 43.8681H153.586V33.1849H153.016V43.8681ZM153.586 9.81239H153.016V20.4956H153.586V9.81239ZM150.489 43.8681H151.059V33.1849H150.489V43.8681ZM151.059 9.81239H150.489V20.4956H151.059V9.81239ZM147.962 43.8681H148.532V33.1849H147.962V43.8681ZM148.532 9.81239H147.962V20.4956H148.532V9.81239ZM134.249 43.8681H134.835V33.1849H134.249V43.8681ZM134.249 20.4956H134.835V9.81239H134.249V20.4956ZM131.722 43.8681H132.308V33.1849H131.722V43.8681ZM131.722 20.4956H132.308V9.81239H131.722V20.4956ZM129.211 43.8681H129.781V33.1849H129.211V43.8681ZM129.211 20.4956H129.781V9.81239H129.211V20.4956ZM126.684 43.8681H127.254V33.1849H126.684V43.8681ZM126.684 20.4956H127.254V9.81239H126.684V20.4956ZM124.157 43.8681H124.727V33.1849H124.157V43.8681ZM124.157 20.4956H124.727V9.81239H124.157V20.4956ZM121.63 43.8681H122.2V33.1849H121.63V43.8681ZM121.63 20.4956H122.2V9.81239H121.63V20.4956ZM107.902 43.8681H108.487V33.1849H107.902V43.8681ZM107.902 20.4956H108.487V9.81239H107.902V20.4956ZM105.375 43.8681H105.96V33.1849H105.375V43.8681ZM105.375 20.4956H105.96V9.81239H105.375V20.4956ZM102.863 43.8681H103.433V33.1849H102.863V43.8681ZM102.863 20.4956H103.433V9.81239H102.863V20.4956ZM100.336 43.8681H100.907V33.1849H100.336V43.8681ZM100.336 20.4956H100.907V9.81239H100.336V20.4956ZM97.8095 43.8681H98.3796V33.1849H97.8095V43.8681ZM97.8095 20.4956H98.3796V9.81239H97.8095V20.4956ZM95.2827 43.8681H95.8527V33.1849H95.2827V43.8681ZM95.2827 20.4956H95.8527V9.81239H95.2827V20.4956ZM81.5542 43.8681H82.1397V33.1849H81.5542V43.8681ZM81.5542 20.4956H82.1397V9.81239H81.5542V20.4956ZM79.0273 43.8681H79.6128V33.1849H79.0273V43.8681ZM79.0273 20.4956H79.6128V9.81239H79.0273V20.4956ZM76.5158 43.8681H77.0859V33.1849H76.5158V43.8681ZM76.5158 20.4956H77.0859V9.81239H76.5158V20.4956ZM73.9889 43.8681H74.559V33.1849H73.9889V43.8681ZM73.9889 20.4956H74.559V9.81239H73.9889V20.4956ZM71.462 43.8681H72.0321V33.1849H71.462V43.8681ZM71.462 20.4956H72.0321V9.81239H71.462V20.4956ZM68.9351 43.8681H69.5052V33.1849H68.9351V43.8681ZM68.9351 20.4956H69.5052V9.81239H68.9351V20.4956ZM55.2066 43.8681H55.7921V33.1849H55.2066V43.8681ZM55.2066 20.4956H55.7921V9.81239H55.2066V20.4956ZM52.6797 43.8681H53.2652V33.1849H52.6797V43.8681ZM52.6797 20.4956H53.2652V9.81239H52.6797V20.4956ZM50.1682 43.8681H50.7383V33.1849H50.1682V43.8681ZM50.1682 20.4956H50.7383V9.81239H50.1682V20.4956ZM47.6413 43.8681H48.2114V33.1849H47.6413V43.8681ZM47.6413 20.4956H48.2114V9.81239H47.6413V20.4956ZM45.1144 43.8681H45.6845V33.1849H45.1144V43.8681ZM45.1144 20.4956H45.6845V9.81239H45.1144V20.4956ZM42.5875 43.8681H43.1576V33.1849H42.5875V43.8681ZM42.5875 20.4956H43.1576V9.81239H42.5875V20.4956ZM28.8591 43.8681H29.4446V33.1849H28.8591V43.8681ZM26.3322 43.8681H26.9177V33.1849H26.3322V43.8681ZM23.8207 43.8681H24.3908V33.1849H23.8207V43.8681ZM21.2938 43.8681H21.8639V33.1849H21.2938V43.8681ZM18.7669 43.8681H19.337V33.1849H18.7669V43.8681ZM16.24 43.8681H16.8101V33.1849H16.24V43.8681ZM16.24 33.1849V43.8681H16.8101V33.1849H16.24ZM18.7669 33.1849V43.8681H19.337V33.1849H18.7669ZM21.2938 33.1849V43.8681H21.8639V33.1849H21.2938ZM23.8207 33.1849V43.8681H24.3908V33.1849H23.8207ZM26.3322 33.1849V43.8681H26.9177V33.1849H26.3322ZM28.8591 33.1849V43.8681H29.4446V33.1849H28.8591ZM42.5875 33.1849V43.8681H43.1576V33.1849H42.5875ZM45.1144 33.1849V43.8681H45.6845V33.1849H45.1144ZM47.6413 33.1849V43.8681H48.2114V33.1849H47.6413ZM50.1682 33.1849V43.8681H50.7383V33.1849H50.1682ZM52.6797 33.1849V43.8681H53.2652V33.1849H52.6797ZM55.2066 33.1849V43.8681H55.7921V33.1849H55.2066ZM42.5875 9.81239V20.4956H43.1576V9.81239H42.5875ZM45.1144 9.81239V20.4956H45.6845V9.81239H45.1144ZM47.6413 9.81239V20.4956H48.2114V9.81239H47.6413ZM50.1682 9.81239V20.4956H50.7383V9.81239H50.1682ZM52.6797 9.81239V20.4956H53.2652V9.81239H52.6797ZM55.2066 9.81239V20.4956H55.7921V9.81239H55.2066ZM68.9351 33.1849V43.8681H69.5052V33.1849H68.9351ZM71.462 33.1849V43.8681H72.0321V33.1849H71.462ZM73.9889 33.1849V43.8681H74.559V33.1849H73.9889ZM76.5158 33.1849V43.8681H77.0859V33.1849H76.5158ZM79.0273 33.1849V43.8681H79.6128V33.1849H79.0273ZM81.5542 33.1849V43.8681H82.1397V33.1849H81.5542ZM68.9351 9.81239V20.4956H69.5052V9.81239H68.9351ZM71.462 9.81239V20.4956H72.0321V9.81239H71.462ZM73.9889 9.81239V20.4956H74.559V9.81239H73.9889ZM76.5158 9.81239V20.4956H77.0859V9.81239H76.5158ZM79.0273 9.81239V20.4956H79.6128V9.81239H79.0273ZM81.5542 9.81239V20.4956H82.1397V9.81239H81.5542ZM95.2827 33.1849V43.8681H95.8527V33.1849H95.2827ZM97.8095 33.1849V43.8681H98.3796V33.1849H97.8095ZM100.336 33.1849V43.8681H100.907V33.1849H100.336ZM102.863 33.1849V43.8681H103.433V33.1849H102.863ZM105.375 33.1849V43.8681H105.96V33.1849H105.375ZM107.902 33.1849V43.8681H108.487V33.1849H107.902ZM95.2827 9.81239V20.4956H95.8527V9.81239H95.2827ZM97.8095 9.81239V20.4956H98.3796V9.81239H97.8095ZM100.336 9.81239V20.4956H100.907V9.81239H100.336ZM102.863 9.81239V20.4956H103.433V9.81239H102.863ZM105.375 9.81239V20.4956H105.96V9.81239H105.375ZM107.902 9.81239V20.4956H108.487V9.81239H107.902ZM121.63 33.1849V43.8681H122.2V33.1849H121.63ZM124.157 33.1849V43.8681H124.727V33.1849H124.157ZM126.684 33.1849V43.8681H127.254V33.1849H126.684ZM129.211 33.1849V43.8681H129.781V33.1849H129.211ZM131.722 33.1849V43.8681H132.308V33.1849H131.722ZM134.249 33.1849V43.8681H134.835V33.1849H134.249ZM121.63 9.81239V20.4956H122.2V9.81239H121.63ZM124.157 9.81239V20.4956H124.727V9.81239H124.157ZM126.684 9.81239V20.4956H127.254V9.81239H126.684ZM129.211 9.81239V20.4956H129.781V9.81239H129.211ZM131.722 9.81239V20.4956H132.308V9.81239H131.722ZM134.249 9.81239V20.4956H134.835V9.81239H134.249ZM134.249 33.1849V43.8681H134.835V33.1849H134.249ZM134.249 9.81239V20.4956H134.835V9.81239H134.249ZM131.722 33.1849V43.8681H132.308V33.1849H131.722ZM131.722 9.81239V20.4956H132.308V9.81239H131.722ZM129.211 33.1849V43.8681H129.781V33.1849H129.211ZM129.211 9.81239V20.4956H129.781V9.81239H129.211ZM126.684 33.1849V43.8681H127.254V33.1849H126.684ZM126.684 9.81239V20.4956H127.254V9.81239H126.684ZM124.157 33.1849V43.8681H124.727V33.1849H124.157ZM124.157 9.81239V20.4956H124.727V9.81239H124.157ZM121.63 33.1849V43.8681H122.2V33.1849H121.63ZM121.63 9.81239V20.4956H122.2V9.81239H121.63ZM107.902 33.1849V43.8681H108.487V33.1849H107.902ZM107.902 9.81239V20.4956H108.487V9.81239H107.902ZM105.375 33.1849V43.8681H105.96V33.1849H105.375ZM105.375 9.81239V20.4956H105.96V9.81239H105.375ZM102.863 33.1849V43.8681H103.433V33.1849H102.863ZM102.863 9.81239V20.4956H103.433V9.81239H102.863ZM100.336 33.1849V43.8681H100.907V33.1849H100.336ZM100.336 9.81239V20.4956H100.907V9.81239H100.336ZM97.8095 33.1849V43.8681H98.3796V33.1849H97.8095ZM97.8095 9.81239V20.4956H98.3796V9.81239H97.8095ZM95.2827 33.1849V43.8681H95.8527V33.1849H95.2827ZM95.2827 9.81239V20.4956H95.8527V9.81239H95.2827ZM81.5542 33.1849V43.8681H82.1397V33.1849H81.5542ZM81.5542 9.81239V20.4956H82.1397V9.81239H81.5542ZM79.0273 33.1849V43.8681H79.6128V33.1849H79.0273ZM79.0273 9.81239V20.4956H79.6128V9.81239H79.0273ZM76.5158 33.1849V43.8681H77.0859V33.1849H76.5158ZM76.5158 9.81239V20.4956H77.0859V9.81239H76.5158ZM73.9889 33.1849V43.8681H74.559V33.1849H73.9889ZM73.9889 9.81239V20.4956H74.559V9.81239H73.9889ZM71.462 33.1849V43.8681H72.0321V33.1849H71.462ZM71.462 9.81239V20.4956H72.0321V9.81239H71.462ZM68.9351 33.1849V43.8681H69.5052V33.1849H68.9351ZM68.9351 9.81239V20.4956H69.5052V9.81239H68.9351ZM55.2066 33.1849V43.8681H55.7921V33.1849H55.2066ZM55.2066 9.81239V20.4956H55.7921V9.81239H55.2066ZM52.6797 33.1849V43.8681H53.2652V33.1849H52.6797ZM52.6797 9.81239V20.4956H53.2652V9.81239H52.6797ZM50.1682 33.1849V43.8681H50.7383V33.1849H50.1682ZM50.1682 9.81239V20.4956H50.7383V9.81239H50.1682ZM47.6413 33.1849V43.8681H48.2114V33.1849H47.6413ZM47.6413 9.81239V20.4956H48.2114V9.81239H47.6413ZM45.1144 33.1849V43.8681H45.6845V33.1849H45.1144ZM45.1144 9.81239V20.4956H45.6845V9.81239H45.1144ZM42.5875 33.1849V43.8681H43.1576V33.1849H42.5875ZM42.5875 9.81239V20.4956H43.1576V9.81239H42.5875ZM28.8591 33.1849V43.8681H29.4446V33.1849H28.8591ZM26.3322 33.1849V43.8681H26.9177V33.1849H26.3322ZM23.8207 33.1849V43.8681H24.3908V33.1849H23.8207ZM21.2938 33.1849V43.8681H21.8639V33.1849H21.2938ZM18.7669 33.1849V43.8681H19.337V33.1849H18.7669ZM16.24 33.1849V43.8681H16.8101V33.1849H16.24ZM16.24 33.1849V43.8681H16.8101V33.1849H16.24ZM18.7669 33.1849V43.8681H19.337V33.1849H18.7669ZM21.2938 33.1849V43.8681H21.8639V33.1849H21.2938ZM23.8207 33.1849V43.8681H24.3908V33.1849H23.8207ZM26.3322 33.1849V43.8681H26.9177V33.1849H26.3322ZM28.8591 33.1849V43.8681H29.4446V33.1849H28.8591ZM42.5875 33.1849V43.8681H43.1576V33.1849H42.5875ZM45.1144 33.1849V43.8681H45.6845V33.1849H45.1144ZM47.6413 33.1849V43.8681H48.2114V33.1849H47.6413ZM50.1682 33.1849V43.8681H50.7383V33.1849H50.1682ZM52.6797 33.1849V43.8681H53.2652V33.1849H52.6797ZM55.2066 33.1849V43.8681H55.7921V33.1849H55.2066ZM42.5875 9.81239V20.4956H43.1576V9.81239H42.5875ZM45.1144 9.81239V20.4956H45.6845V9.81239H45.1144ZM47.6413 9.81239V20.4956H48.2114V9.81239H47.6413ZM50.1682 9.81239V20.4956H50.7383V9.81239H50.1682ZM52.6797 9.81239V20.4956H53.2652V9.81239H52.6797ZM55.2066 9.81239V20.4956H55.7921V9.81239H55.2066ZM68.9351 33.1849V43.8681H69.5052V33.1849H68.9351ZM71.462 33.1849V43.8681H72.0321V33.1849H71.462ZM73.9889 33.1849V43.8681H74.559V33.1849H73.9889ZM76.5158 33.1849V43.8681H77.0859V33.1849H76.5158ZM79.0273 33.1849V43.8681H79.6128V33.1849H79.0273ZM81.5542 33.1849V43.8681H82.1397V33.1849H81.5542ZM68.9351 9.81239V20.4956H69.5052V9.81239H68.9351ZM71.462 9.81239V20.4956H72.0321V9.81239H71.462ZM73.9889 9.81239V20.4956H74.559V9.81239H73.9889ZM76.5158 9.81239V20.4956H77.0859V9.81239H76.5158ZM79.0273 9.81239V20.4956H79.6128V9.81239H79.0273ZM81.5542 9.81239V20.4956H82.1397V9.81239H81.5542ZM95.2827 33.1849V43.8681H95.8527V33.1849H95.2827ZM97.8095 33.1849V43.8681H98.3796V33.1849H97.8095ZM100.336 33.1849V43.8681H100.907V33.1849H100.336ZM102.863 33.1849V43.8681H103.433V33.1849H102.863ZM105.375 33.1849V43.8681H105.96V33.1849H105.375ZM107.902 33.1849V43.8681H108.487V33.1849H107.902ZM95.2827 9.81239V20.4956H95.8527V9.81239H95.2827ZM97.8095 9.81239V20.4956H98.3796V9.81239H97.8095ZM100.336 9.81239V20.4956H100.907V9.81239H100.336ZM102.863 9.81239V20.4956H103.433V9.81239H102.863ZM105.375 9.81239V20.4956H105.96V9.81239H105.375ZM107.902 9.81239V20.4956H108.487V9.81239H107.902ZM107.902 33.1849V43.8681H108.487V33.1849H107.902ZM107.902 9.81239V20.4956H108.487V9.81239H107.902ZM105.375 33.1849V43.8681H105.96V33.1849H105.375ZM105.375 9.81239V20.4956H105.96V9.81239H105.375ZM102.863 33.1849V43.8681H103.433V33.1849H102.863ZM102.863 9.81239V20.4956H103.433V9.81239H102.863ZM100.336 33.1849V43.8681H100.907V33.1849H100.336ZM100.336 9.81239V20.4956H100.907V9.81239H100.336ZM97.8095 33.1849V43.8681H98.3796V33.1849H97.8095ZM97.8095 9.81239V20.4956H98.3796V9.81239H97.8095ZM95.2827 33.1849V43.8681H95.8527V33.1849H95.2827ZM95.2827 9.81239V20.4956H95.8527V9.81239H95.2827ZM81.5542 33.1849V43.8681H82.1397V33.1849H81.5542ZM81.5542 9.81239V20.4956H82.1397V9.81239H81.5542ZM79.0273 33.1849V43.8681H79.6128V33.1849H79.0273ZM79.0273 9.81239V20.4956H79.6128V9.81239H79.0273ZM76.5158 33.1849V43.8681H77.0859V33.1849H76.5158ZM76.5158 9.81239V20.4956H77.0859V9.81239H76.5158ZM73.9889 33.1849V43.8681H74.559V33.1849H73.9889ZM73.9889 9.81239V20.4956H74.559V9.81239H73.9889ZM71.462 33.1849V43.8681H72.0321V33.1849H71.462ZM71.462 9.81239V20.4956H72.0321V9.81239H71.462ZM68.9351 33.1849V43.8681H69.5052V33.1849H68.9351ZM68.9351 9.81239V20.4956H69.5052V9.81239H68.9351ZM55.2066 33.1849V43.8681H55.7921V33.1849H55.2066ZM55.2066 9.81239V20.4956H55.7921V9.81239H55.2066ZM52.6797 33.1849V43.8681H53.2652V33.1849H52.6797ZM52.6797 9.81239V20.4956H53.2652V9.81239H52.6797ZM50.1682 33.1849V43.8681H50.7383V33.1849H50.1682ZM50.1682 9.81239V20.4956H50.7383V9.81239H50.1682ZM47.6413 33.1849V43.8681H48.2114V33.1849H47.6413ZM47.6413 9.81239V20.4956H48.2114V9.81239H47.6413ZM45.1144 33.1849V43.8681H45.6845V33.1849H45.1144ZM45.1144 9.81239V20.4956H45.6845V9.81239H45.1144ZM42.5875 33.1849V43.8681H43.1576V33.1849H42.5875ZM42.5875 9.81239V20.4956H43.1576V9.81239H42.5875ZM28.8591 33.1849V43.8681H29.4446V33.1849H28.8591ZM26.3322 33.1849V43.8681H26.9177V33.1849H26.3322ZM23.8207 33.1849V43.8681H24.3908V33.1849H23.8207ZM21.2938 33.1849V43.8681H21.8639V33.1849H21.2938ZM18.7669 33.1849V43.8681H19.337V33.1849H18.7669ZM16.24 33.1849V43.8681H16.8101V33.1849H16.24ZM16.24 33.1849V43.8681H16.8101V33.1849H16.24ZM18.7669 33.1849V43.8681H19.337V33.1849H18.7669ZM21.2938 33.1849V43.8681H21.8639V33.1849H21.2938ZM23.8207 33.1849V43.8681H24.3908V33.1849H23.8207ZM26.3322 33.1849V43.8681H26.9177V33.1849H26.3322ZM28.8591 33.1849V43.8681H29.4446V33.1849H28.8591ZM42.5875 33.1849V43.8681H43.1576V33.1849H42.5875ZM45.1144 33.1849V43.8681H45.6845V33.1849H45.1144ZM47.6413 33.1849V43.8681H48.2114V33.1849H47.6413ZM50.1682 33.1849V43.8681H50.7383V33.1849H50.1682ZM52.6797 33.1849V43.8681H53.2652V33.1849H52.6797ZM55.2066 33.1849V43.8681H55.7921V33.1849H55.2066ZM42.5875 9.81239V20.4956H43.1576V9.81239H42.5875ZM45.1144 9.81239V20.4956H45.6845V9.81239H45.1144ZM47.6413 9.81239V20.4956H48.2114V9.81239H47.6413ZM50.1682 9.81239V20.4956H50.7383V9.81239H50.1682ZM52.6797 9.81239V20.4956H53.2652V9.81239H52.6797ZM55.2066 9.81239V20.4956H55.7921V9.81239H55.2066ZM68.9351 33.1849V43.8681H69.5052V33.1849H68.9351ZM71.462 33.1849V43.8681H72.0321V33.1849H71.462ZM73.9889 33.1849V43.8681H74.559V33.1849H73.9889ZM76.5158 33.1849V43.8681H77.0859V33.1849H76.5158ZM79.0273 33.1849V43.8681H79.6128V33.1849H79.0273ZM81.5542 33.1849V43.8681H82.1397V33.1849H81.5542ZM68.9351 9.81239V20.4956H69.5052V9.81239H68.9351ZM71.462 9.81239V20.4956H72.0321V9.81239H71.462ZM73.9889 9.81239V20.4956H74.559V9.81239H73.9889ZM76.5158 9.81239V20.4956H77.0859V9.81239H76.5158ZM79.0273 9.81239V20.4956H79.6128V9.81239H79.0273ZM81.5542 9.81239V20.4956H82.1397V9.81239H81.5542ZM81.5542 33.1849V43.8681H82.1397V33.1849H81.5542ZM81.5542 9.81239V20.4956H82.1397V9.81239H81.5542ZM79.0273 33.1849V43.8681H79.6128V33.1849H79.0273ZM79.0273 9.81239V20.4956H79.6128V9.81239H79.0273ZM76.5158 33.1849V43.8681H77.0859V33.1849H76.5158ZM76.5158 9.81239V20.4956H77.0859V9.81239H76.5158ZM73.9889 33.1849V43.8681H74.559V33.1849H73.9889ZM73.9889 9.81239V20.4956H74.559V9.81239H73.9889ZM71.462 33.1849V43.8681H72.0321V33.1849H71.462ZM71.462 9.81239V20.4956H72.0321V9.81239H71.462ZM68.9351 33.1849V43.8681H69.5052V33.1849H68.9351ZM68.9351 9.81239V20.4956H69.5052V9.81239H68.9351ZM55.2066 33.1849V43.8681H55.7921V33.1849H55.2066ZM55.2066 9.81239V20.4956H55.7921V9.81239H55.2066ZM52.6797 33.1849V43.8681H53.2652V33.1849H52.6797ZM52.6797 9.81239V20.4956H53.2652V9.81239H52.6797ZM50.1682 33.1849V43.8681H50.7383V33.1849H50.1682ZM50.1682 9.81239V20.4956H50.7383V9.81239H50.1682ZM47.6413 33.1849V43.8681H48.2114V33.1849H47.6413ZM47.6413 9.81239V20.4956H48.2114V9.81239H47.6413ZM45.1144 33.1849V43.8681H45.6845V33.1849H45.1144ZM45.1144 9.81239V20.4956H45.6845V9.81239H45.1144ZM42.5875 33.1849V43.8681H43.1576V33.1849H42.5875ZM42.5875 9.81239V20.4956H43.1576V9.81239H42.5875ZM28.8591 33.1849V43.8681H29.4446V33.1849H28.8591ZM26.3322 33.1849V43.8681H26.9177V33.1849H26.3322ZM23.8207 33.1849V43.8681H24.3908V33.1849H23.8207ZM21.2938 33.1849V43.8681H21.8639V33.1849H21.2938ZM18.7669 33.1849V43.8681H19.337V33.1849H18.7669ZM16.24 33.1849V43.8681H16.8101V33.1849H16.24ZM16.24 33.1849V43.8681H16.8101V33.1849H16.24ZM18.7669 33.1849V43.8681H19.337V33.1849H18.7669ZM21.2938 33.1849V43.8681H21.8639V33.1849H21.2938ZM23.8207 33.1849V43.8681H24.3908V33.1849H23.8207ZM26.3322 33.1849V43.8681H26.9177V33.1849H26.3322ZM28.8591 33.1849V43.8681H29.4446V33.1849H28.8591ZM42.5875 33.1849V43.8681H43.1576V33.1849H42.5875ZM45.1144 33.1849V43.8681H45.6845V33.1849H45.1144ZM47.6413 33.1849V43.8681H48.2114V33.1849H47.6413ZM50.1682 33.1849V43.8681H50.7383V33.1849H50.1682ZM52.6797 33.1849V43.8681H53.2652V33.1849H52.6797ZM55.2066 33.1849V43.8681H55.7921V33.1849H55.2066ZM42.5875 9.81239V20.4956H43.1576V9.81239H42.5875ZM45.1144 9.81239V20.4956H45.6845V9.81239H45.1144ZM47.6413 9.81239V20.4956H48.2114V9.81239H47.6413ZM50.1682 9.81239V20.4956H50.7383V9.81239H50.1682ZM52.6797 9.81239V20.4956H53.2652V9.81239H52.6797ZM55.2066 9.81239V20.4956H55.7921V9.81239H55.2066ZM55.2066 33.1849V43.8681H55.7921V33.1849H55.2066ZM55.2066 9.81239V20.4956H55.7921V9.81239H55.2066ZM52.6797 33.1849V43.8681H53.2652V33.1849H52.6797ZM52.6797 9.81239V20.4956H53.2652V9.81239H52.6797ZM50.1682 33.1849V43.8681H50.7383V33.1849H50.1682ZM50.1682 9.81239V20.4956H50.7383V9.81239H50.1682ZM47.6413 33.1849V43.8681H48.2114V33.1849H47.6413ZM47.6413 9.81239V20.4956H48.2114V9.81239H47.6413ZM45.1144 33.1849V43.8681H45.6845V33.1849H45.1144ZM45.1144 9.81239V20.4956H45.6845V9.81239H45.1144ZM42.5875 33.1849V43.8681H43.1576V33.1849H42.5875ZM42.5875 9.81239V20.4956H43.1576V9.81239H42.5875ZM28.8591 33.1849V43.8681H29.4446V33.1849H28.8591ZM26.3322 33.1849V43.8681H26.9177V33.1849H26.3322ZM23.8207 33.1849V43.8681H24.3908V33.1849H23.8207ZM21.2938 33.1849V43.8681H21.8639V33.1849H21.2938ZM18.7669 33.1849V43.8681H19.337V33.1849H18.7669ZM16.24 33.1849V43.8681H16.8101V33.1849H16.24ZM16.24 33.1849V43.8681H16.8101V33.1849H16.24ZM18.7669 33.1849V43.8681H19.337V33.1849H18.7669ZM21.2938 33.1849V43.8681H21.8639V33.1849H21.2938ZM23.8207 33.1849V43.8681H24.3908V33.1849H23.8207ZM26.3322 33.1849V43.8681H26.9177V33.1849H26.3322ZM28.8591 33.1849V43.8681H29.4446V33.1849H28.8591ZM28.8591 33.1849V43.8681H29.4446V33.1849H28.8591ZM26.3322 33.1849V43.8681H26.9177V33.1849H26.3322ZM23.8207 33.1849V43.8681H24.3908V33.1849H23.8207ZM21.2938 33.1849V43.8681H21.8639V33.1849H21.2938ZM18.7669 33.1849V43.8681H19.337V33.1849H18.7669ZM16.24 33.1849V43.8681H16.8101V33.1849H16.24Z" fill="#1E76BD"/>
<path d="M24.0182 57.5352H14.2188V61.9982H24.0182V57.5352Z" fill="#1E76BD"/>
<path d="M167.635 57.5352H157.836V61.9982H167.635V57.5352Z" fill="#1E76BD"/>
</g>
<defs>
<clipPath id="clip0_15361_8981">
<rect width="183" height="62" fill="white"/>
</clipPath>
</defs>
</svg>
