<svg width="17" height="12" viewBox="0 0 17 12" fill="none" xmlns="http://www.w3.org/2000/svg">
<path d="M8.54437 9.24274C9.43565 9.24274 10.1932 8.9308 10.8171 8.30691C11.441 7.68302 11.753 6.92543 11.753 6.03416C11.753 5.14289 11.441 4.38531 10.8171 3.76141C10.1932 3.13752 9.43565 2.82558 8.54437 2.82558C7.6531 2.82558 6.89552 3.13752 6.27163 3.76141C5.64774 4.38531 5.33579 5.14289 5.33579 6.03416C5.33579 6.92543 5.64774 7.68302 6.27163 8.30691C6.89552 8.9308 7.6531 9.24274 8.54437 9.24274ZM8.54437 7.95931C8.00961 7.95931 7.55506 7.77214 7.18073 7.39781C6.80639 7.02347 6.61922 6.56892 6.61922 6.03416C6.61922 5.4994 6.80639 5.04485 7.18073 4.67051C7.55506 4.29618 8.00961 4.10901 8.54437 4.10901C9.07914 4.10901 9.53369 4.29618 9.90802 4.67051C10.2824 5.04485 10.4695 5.4994 10.4695 6.03416C10.4695 6.56892 10.2824 7.02347 9.90802 7.39781C9.53369 7.77214 9.07914 7.95931 8.54437 7.95931ZM8.54437 11.3818C6.80936 11.3818 5.22884 10.8975 3.8028 9.92902C2.37676 8.96051 1.34289 7.66222 0.701172 6.03416C1.34289 4.4061 2.37676 3.10781 3.8028 2.1393C5.22884 1.17078 6.80936 0.686523 8.54437 0.686523C10.2794 0.686523 11.8599 1.17078 13.2859 2.1393C14.712 3.10781 15.7459 4.4061 16.3876 6.03416C15.7459 7.66222 14.712 8.96051 13.2859 9.92902C11.8599 10.8975 10.2794 11.3818 8.54437 11.3818ZM8.54437 9.95576C9.88722 9.95576 11.1202 9.60222 12.2432 8.89515C13.3662 8.18807 14.2248 7.23441 14.8189 6.03416C14.2248 4.83391 13.3662 3.88025 12.2432 3.17317C11.1202 2.4661 9.88722 2.11256 8.54437 2.11256C7.20152 2.11256 5.96859 2.4661 4.84559 3.17317C3.72259 3.88025 2.86399 4.83391 2.26981 6.03416C2.86399 7.23441 3.72259 8.18807 4.84559 8.89515C5.96859 9.60222 7.20152 9.95576 8.54437 9.95576Z" fill="#424242"/>
</svg>
