<svg width="78" height="78" viewBox="0 0 78 78" fill="none" xmlns="http://www.w3.org/2000/svg">
<g clip-path="url(#clip0_15361_8978)">
<path d="M39.0058 0C17.4641 0 0 17.4524 0 38.9942C0 60.5359 17.4641 78 39.0058 78C60.5476 78 78 60.5359 78 38.9942C78 17.4524 60.5476 0 39.0058 0ZM39.0408 66.1748C35.534 66.1981 32.6913 63.4136 32.7146 59.9068C32.7495 56.3301 35.4058 53.6505 39.0175 53.6039C42.4777 53.5573 45.2621 56.4117 45.2854 59.8718C45.3087 63.332 42.5126 66.1515 39.0408 66.1748ZM52.835 51.2505C51.4835 52.7651 49.2 52.8816 47.5922 51.4369C46.1942 50.1903 44.7146 49.1068 42.9204 48.5359C38.6097 47.1728 34.6835 47.8951 31.1767 50.7612C30.8738 51.0175 30.5942 51.2971 30.2913 51.5534C28.6951 52.8583 26.435 52.7184 25.1301 51.2272C23.7786 49.666 23.9068 47.4641 25.4214 46.0078C28.6252 42.9437 32.4117 41.1379 36.8039 40.6019C37.3165 40.5437 37.8408 40.532 38.3651 40.5087C41.9184 40.4272 45.3087 41.1146 48.3845 42.9437C49.8291 43.7942 51.1573 44.8544 52.4388 45.9262C54.1282 47.3476 54.2563 49.666 52.835 51.2505ZM59.6621 43.7359C58.4738 44.0738 57.3553 43.8524 56.3884 43.0602C55.2932 42.1631 54.268 41.1845 53.1379 40.3456C49.8524 37.9107 46.1476 36.4544 42.0932 35.9534C36.1748 35.2311 30.6757 36.466 25.701 39.7515C24.4078 40.6019 23.2427 41.6621 22.066 42.6874C20.7845 43.8291 19.3748 44.2602 17.767 43.5379C15.367 42.4544 14.8427 39.3553 16.8117 37.5146C18.3146 36.1165 19.899 34.7767 21.5884 33.6117C25.899 30.6524 30.7223 29.0214 35.9184 28.4971C36.9553 28.3922 37.9922 28.3689 38.8544 28.3223C47.5806 28.4854 54.9786 31.4563 61.1185 37.433C63.2854 39.5301 62.4932 42.9553 59.6621 43.7359ZM67.6078 35.2777C66.4194 35.4058 65.4291 34.9165 64.5553 34.1243C63.367 33.0524 62.2019 31.9573 60.932 30.9786C56.1786 27.332 50.8311 25.0252 44.9126 24.0816C36.3029 22.7184 28.2058 24.1981 20.6563 28.5553C18.0117 30.0816 15.6466 31.9689 13.4447 34.0893C11.8485 35.6272 9.73981 35.7437 8.24854 34.299C7.71262 33.7864 7.43301 32.9942 7.02524 32.3301V30.8388C7.91068 28.5553 9.90291 27.2738 11.6621 25.8408C17.1612 21.3437 23.4524 18.4311 30.4194 17.0447C34.2757 16.2757 38.167 16.0544 42.0816 16.3223C49.6427 16.8583 56.5864 19.2 62.9243 23.3359C65.4058 24.9553 67.6893 26.8194 69.7864 28.9165C70.8816 30 71.266 31.3165 70.7534 32.7961C70.2408 34.2757 69.1456 35.0913 67.6078 35.2777Z" fill="#1E76BD"/>
</g>
<defs>
<clipPath id="clip0_15361_8978">
<rect width="78" height="78" fill="white"/>
</clipPath>
</defs>
</svg>
