<svg width="139" height="77" viewBox="0 0 139 77" fill="none" xmlns="http://www.w3.org/2000/svg">
<g clip-path="url(#clip0_15361_8960)">
<path d="M135.131 4.14143C134.977 1.81873 133.042 0 130.711 0H129.524C129.062 2.03785 127.216 3.5498 125.039 3.5498C122.862 3.5498 121.015 2.03785 120.554 0H117.19C116.706 2.03785 114.837 3.5498 112.66 3.5498C110.484 3.5498 108.659 2.03785 108.175 0H104.811C104.349 2.03785 102.502 3.5498 100.326 3.5498C98.1491 3.5498 96.2802 2.03785 95.8185 0H92.4765C91.9928 2.03785 90.1459 3.5498 87.9693 3.5498C85.7926 3.5498 83.9457 2.03785 83.462 0H80.098C79.6363 2.03785 77.7894 3.5498 75.6127 3.5498C73.436 3.5498 71.5672 2.03785 71.1055 0H67.7635C67.2798 2.03785 65.4329 3.5498 63.2562 3.5498C61.0795 3.5498 59.2326 2.03785 58.7489 0H55.385C54.9232 2.03785 53.0763 3.5498 50.8997 3.5498C48.723 3.5498 46.8541 2.03785 46.3924 0H43.0284C42.5447 2.03785 40.7198 3.5498 38.5431 3.5498C36.3664 3.5498 34.4976 2.03785 34.0139 0H30.6939C30.2102 2.03785 28.3413 3.5498 26.1646 3.5498C23.9879 3.5498 22.163 2.03785 21.6793 0H18.3154C17.8316 2.03785 16.0068 3.5498 13.8301 3.5498C11.6534 3.5498 9.78451 2.03785 9.3008 0H8.26743C5.93684 0 4.00201 1.81873 3.8481 4.14143L0.000423604 66.3506C-0.153483 68.8924 1.86929 71.0398 4.41975 71.0398H13.984V77H26.9341V71.0398H115.321V77H128.271V71.0398H134.559C137.11 71.0398 139.132 68.8924 138.978 66.3506L135.131 4.14143ZM65.8506 51.6036C64.4435 51.4283 63.1023 51.2749 61.7611 51.0996C57.9354 50.5737 54.1317 50.0259 50.306 49.5438C49.5365 49.4343 49.2726 49.2151 49.2726 48.4044C49.3166 44.2629 49.2946 40.0996 49.2946 35.8267H65.8506V51.6036ZM65.8506 32.9124H49.3606V19.5239C54.8793 18.7789 60.332 18.0339 65.8506 17.2888V32.9124ZM90.7396 55.1096C83.374 54.0578 76.0525 53.0498 68.6869 51.998V35.8267H90.7396V55.1096ZM90.7396 32.9343H68.6869V16.8725C76.0525 15.7988 83.374 14.747 90.7396 13.6952V32.9343Z" fill="#1E76BD"/>
</g>
<defs>
<clipPath id="clip0_15361_8960">
<rect width="139" height="77" fill="white"/>
</clipPath>
</defs>
</svg>
